<svg width="1931" height="533" viewBox="0 0 1931 533" fill="none" xmlns="http://www.w3.org/2000/svg">
<g filter="url(#filter0_f_3129_26625)">
<path d="M1922.6 269.635C1898.14 281.275 1906.1 264.537 1889.97 271.75C1883.05 274.851 1885.58 268.581 1867.43 273.731C1849.28 278.882 1847.52 281.662 1835.7 281.595C1814.2 281.479 1810.04 292.967 1799.18 291.085C1788.32 289.203 1774.04 285.572 1747.26 281.856C1710.05 276.689 1708.52 273.105 1692.44 273.881C1683.1 274.326 1686.19 281.086 1681.48 280.533C1676.77 279.98 1678.77 277.506 1670.43 280.662C1653.96 286.915 1658.8 283.273 1643.27 286.924C1616.12 293.277 1610.34 298.83 1593.31 298.22C1564.51 297.188 1567.95 293.552 1549.47 293.457C1530.99 293.361 1531.92 303.07 1509.82 300.641C1498.19 299.354 1489.74 292.637 1479.88 287.486C1470.97 282.843 1460.59 280.303 1448.62 272.715C1431.21 261.691 1431.67 261.825 1421.57 256.491C1411.47 251.158 1400.5 241.376 1391.51 241.383C1381.24 241.392 1367.14 260.04 1320.46 260.079C1283.65 260.109 1260.64 240.518 1255.66 238.002C1244.58 232.396 1243.59 233.174 1232.32 226.608C1215.57 216.86 1218.59 227.498 1188.7 217.338C1148.84 203.793 1140.54 194.763 1124.32 195.731C1116.54 196.194 1117.24 192.075 1108.99 190.709C1100.75 189.344 1097.67 184.311 1092.25 184.316C1086.83 184.32 1083.06 190.424 1077.64 188.446C1072.22 186.468 1064.91 186.321 1056.43 183.736C1047.94 181.151 1042.99 182.375 1039.44 178.716C1035.9 175.056 1033.38 172.481 1028.83 172.485C1026.24 172.487 1019.15 179.774 1011.64 183.788C1007.64 185.927 1005.52 186.384 1002.23 191.575C998.935 196.766 996.4 193.02 994.188 196.453C992.583 198.955 990.889 201.414 986.948 199.066C980.825 195.423 980.831 199.383 976.322 198.969C971.813 198.555 970.523 198.662 963.605 198.979C956.687 199.297 953.961 196.069 951.205 197.43C948.448 198.79 951.529 200.66 940.585 201.278C929.641 201.897 923.844 202.732 914.026 202.548C904.208 202.364 898.659 200.324 885.734 204.971C872.809 209.618 872.984 212.69 867.37 212.037C865.219 211.784 864.261 210.729 863.208 210.322C861.516 209.661 860.092 209.71 858.49 209.193C857.466 208.863 855.443 204.876 854.263 208.851C853.082 212.826 852.788 214.377 850.495 213.289C842.726 209.547 841.533 209.937 835.699 206.433C829.286 202.561 821.227 198.017 814.309 203.442C807.392 208.866 804.873 210.533 798.653 215.602C792.432 220.671 790.65 224.065 786.334 224.021C770.021 223.866 777.45 232.917 767.522 233.564C754.266 234.434 759.036 230.998 753.067 231.089C745.993 231.196 743.118 227.92 735.266 228.1C727.413 228.279 721.612 226.695 719.747 224.162C715.898 218.934 701.204 220.66 692.697 219.64C684.191 218.62 666.455 210.13 649.86 214.439C637.934 217.54 634.389 217.332 628.266 223.211C624.69 226.646 624.96 228.973 621.78 229.653C618.6 230.332 621.785 232.787 616.354 235.416C610.656 238.167 610.253 236.535 605.35 240.316C600.447 244.098 599.426 245.639 593.83 246.848C588.233 248.058 589.33 252.611 583.764 254.152C578.198 255.692 574.484 256.305 571.442 259.825C568.399 263.346 553.159 271.124 521.965 272.076C490.771 273.028 500.015 271.614 492.849 269.153C485.682 266.692 481.186 264.906 472.99 263.343C464.793 261.781 466.021 259.558 454.051 258.353C446.635 257.615 445.513 256.44 435.129 259.041C424.744 261.641 418.199 263.374 411.477 265.113C402.708 267.361 402.239 265.869 396.243 267.89C390.247 269.91 382.158 270.44 380.546 268.651C378.935 266.862 379.059 265.739 375.812 266.256C372.565 266.772 373.586 265.437 364.495 264.993C355.403 264.549 357.571 261.788 349.367 259.779C341.163 257.77 337.067 256.017 327.005 255.924C313.183 255.806 307.926 255.94 302.533 254.879C286.608 251.681 275.947 253.149 268.133 254.125C260.32 255.101 258.379 256.471 249.664 255.211C240.95 253.951 235.507 254.287 225.196 256.301C220.689 257.179 215.408 255.863 212.433 259.912C210.953 261.953 198.344 259.923 185.552 264.013C180.853 265.524 170.383 265.192 159.119 265.201C147.856 265.211 136.87 262.887 134.036 266.782C131.203 270.677 126.236 271.358 115.574 271.947C104.912 272.537 97.2563 275.461 90.7925 272.064C84.3287 268.666 82.474 263.283 70.4993 263.72C59.6887 264.118 52.6389 270.152 45.5856 273.949C38.5324 277.746 26.7007 284.307 8.28011 283.348L8.65448 524.584L1922.99 522.999L1922.6 269.635Z" fill="url(#paint0_linear_3129_26625)"/>
</g>
<path d="M1922.72 352.269C1917.41 353.789 1906.36 354.436 1890.95 356.133C1877.03 357.675 1868.6 359.927 1833.53 359.889C1777.8 359.83 1774.03 355.937 1744.47 359.296C1714.9 362.655 1707.86 368.174 1651.97 365.159C1562.56 360.339 1548.7 365.388 1485.9 375.914C1376.47 394.236 1393.1 383.346 1328.91 398.08C1264.72 412.814 1190.25 440.569 1190.25 440.569L1190.38 523.244L1922.97 522.638L1922.72 352.269Z" fill="url(#paint1_linear_3129_26625)"/>
<path d="M8.34721 354.625C19.5293 354.616 18.1588 360.244 46.4327 360.106C78.1546 359.954 107.285 347.942 117.592 343.137C125.128 339.626 118.867 333.184 127.822 331.861C132.078 331.228 133.825 334.232 135.758 332.853C137.691 331.473 139.045 329.096 142.522 328.589C145.999 328.082 142.706 322.952 151.409 321.696C160.113 320.441 157.597 319.291 159.914 316.677C162.231 314.063 165.911 315.794 172.867 310.905C179.822 306.017 179.441 309.147 189.486 302.624C196.835 297.86 199.121 299.332 207.074 292.465C214.805 285.818 218.683 290.203 225.832 286.313C232.982 282.423 241.684 280.414 248.807 278.027C255.929 275.64 262.034 272.735 271.44 274.878C298.144 280.991 301.045 281.992 316.525 284.86C332.005 287.728 343.065 290.244 354.835 291.843C372.25 294.205 385.607 300.584 408.824 300.565C426.428 300.55 441.896 296.279 464.717 294.383C487.538 292.487 496.26 293.214 509.396 290.836C533.763 286.433 550.601 290.178 555.821 290.318C561.042 290.457 568.729 288.66 578.653 290.548C587.168 292.169 593.485 291.348 597.802 292.535C604.575 294.411 605.54 290.277 609.606 291.901C613.672 293.525 620.054 296.525 625.283 297.169C630.511 297.813 637.662 299.66 646.372 302.433C655.082 305.205 660.466 305.931 663.979 304.55C667.492 303.169 668.597 303.494 679.649 305.79C691.072 308.181 690.314 311.408 695.913 311.662C698.619 311.785 699.973 309.907 704.423 310.153C708.872 310.399 707.891 303.908 713.504 303.904C721.238 303.897 720.072 297.657 725.872 298.612C731.672 299.568 739.616 300.853 745.417 302.351C751.218 303.849 760.319 305.469 762.257 307.099C764.194 308.73 770.77 307.841 778.311 307.835C785.853 307.829 799.4 307.818 804.431 309.945C809.462 312.073 814.693 314.195 824.943 315.689C835.193 317.184 844.293 317.925 851.258 319.672C858.224 321.418 859.579 320.418 869.445 323.041C879.312 325.664 882.05 322.277 894.99 327.404C907.93 332.53 916.025 336.028 927.701 338.419C975.106 348.02 984.591 348.516 1005.48 349.752C1026.37 350.988 1044.4 354.641 1058.14 356.718C1099.16 362.95 1107.09 365.948 1129.16 372.316C1151.22 378.683 1175.41 386.68 1190.13 393.812C1204.84 400.944 1208.89 406.904 1228.85 414.425C1244.72 420.423 1251.94 415.323 1273.74 423.03C1287.87 428.03 1294.25 428.899 1305.86 427.012C1317.46 425.125 1334.47 428.717 1390.9 447.37C1447.32 466.023 1482.41 475.793 1509.94 483.567C1537.46 491.342 1610.73 511.263 1645.89 523.304L8.611 524.66L8.34721 354.625Z" fill="url(#paint2_linear_3129_26625)"/>
<path d="M8.45592 465.487C183.652 459.477 165.75 477.815 196.711 473.912C227.672 470.01 235.835 474.231 247.794 477.4C259.752 480.568 277.668 485.484 310.281 475.576C342.894 465.667 351.066 475.542 373.312 475.172C395.558 474.802 427.646 470.894 476.015 474.383C524.384 477.873 570.587 490.182 592.821 482.401C615.055 474.619 635.911 467.027 640.607 458.716C648.194 445.304 671.57 451.284 673.727 441.05C675.883 430.815 698.219 426.014 729.671 428.3C792.169 432.832 816.085 438.822 828.045 437.743C840.004 436.664 905.194 432.382 949.217 439.761C993.239 447.141 1061.97 461.819 1098.69 466.455C1165.54 474.865 1186.72 463.56 1251.4 474.091C1316.08 484.622 1317.17 492.032 1385.65 495.856C1454.13 499.681 1487.62 501.271 1505.21 506.698C1516.63 510.214 1548.28 506.58 1598.3 523.263L8.54733 524.584L8.45592 465.487Z" fill="#EBF0F8"/>
<rect x="450.07" y="69.7071" width="80.3722" height="80.3722" rx="9.5" transform="rotate(45 450.07 69.7071)" stroke="#BB29BB"/>
<rect x="1199.49" y="1.44343" width="58.9367" height="58.9367" rx="9.5" transform="rotate(45 1199.49 1.44343)" stroke="#6DCFF6"/>
<rect x="1564.07" y="256.707" width="65.849" height="65.849" rx="9.5" transform="rotate(45 1564.07 256.707)" stroke="#8DC13F"/>
<defs>
<filter id="filter0_f_3129_26625" x="0.398286" y="164.604" width="1930.47" height="367.861" filterUnits="userSpaceOnUse" color-interpolation-filters="sRGB">
<feFlood flood-opacity="0" result="BackgroundImageFix"/>
<feBlend mode="normal" in="SourceGraphic" in2="BackgroundImageFix" result="shape"/>
<feGaussianBlur stdDeviation="3.94051" result="effect1_foregroundBlur_3129_26625"/>
</filter>
<linearGradient id="paint0_linear_3129_26625" x1="964.744" y1="172.538" x2="964.849" y2="301.416" gradientUnits="userSpaceOnUse">
<stop stop-color="#D2DBE9"/>
<stop offset="1" stop-color="#EBF0F8"/>
</linearGradient>
<linearGradient id="paint1_linear_3129_26625" x1="1585.22" y1="340.769" x2="1602.95" y2="525.263" gradientUnits="userSpaceOnUse">
<stop stop-color="#D2DBE9"/>
<stop offset="1" stop-color="#EBF0F8"/>
</linearGradient>
<linearGradient id="paint2_linear_3129_26625" x1="851.317" y1="333.772" x2="823.957" y2="617.958" gradientUnits="userSpaceOnUse">
<stop stop-color="#D2DBE9"/>
<stop offset="1" stop-color="#EBF0F8"/>
</linearGradient>
</defs>
</svg>
