<svg width="1920" height="541" viewBox="0 0 1920 541" fill="none" xmlns="http://www.w3.org/2000/svg">
<g clip-path="url(#clip0_1857_1393)">
<g filter="url(#filter0_f_1857_1393)">
<path d="M1920 144.324C1895.46 162.523 1903.47 136.318 1887.28 147.594C1880.32 152.442 1882.87 142.625 1864.66 150.668C1846.45 158.712 1844.68 163.064 1832.83 162.944C1811.26 162.734 1807.08 180.723 1796.19 177.761C1785.3 174.799 1770.98 169.093 1744.13 163.237C1706.82 155.096 1705.29 149.481 1689.16 150.676C1679.79 151.36 1682.88 161.952 1678.16 161.08C1673.43 160.208 1675.44 156.336 1667.07 161.268C1650.54 171.04 1655.4 165.342 1639.83 171.04C1612.58 180.956 1606.78 189.646 1589.69 188.669C1560.81 187.015 1564.27 181.324 1545.73 181.151C1527.2 180.978 1528.11 196.186 1505.95 192.352C1494.29 190.322 1485.83 179.791 1475.94 171.709C1467.02 164.425 1456.61 160.433 1444.62 148.533C1427.17 131.244 1427.63 131.454 1417.51 123.087C1407.39 114.72 1396.4 99.385 1387.39 99.385C1377.09 99.385 1362.92 128.575 1316.1 128.575C1279.17 128.575 1256.13 97.859 1251.14 93.9124C1240.03 85.1171 1239.04 86.3349 1227.75 76.0362C1210.96 60.7459 1213.97 77.4118 1184.01 61.4601C1144.06 40.1935 1135.75 26.0383 1119.48 27.5343C1111.68 28.2484 1112.38 21.7985 1104.11 19.6486C1095.84 17.4986 1092.77 9.61294 1087.33 9.61294C1081.89 9.61294 1078.11 19.1675 1072.67 16.0628C1067.23 12.9582 1059.91 12.7176 1051.4 8.65824C1042.89 4.59887 1037.93 6.50828 1034.38 0.772545C1030.83 -4.96319 1028.3 -9 1023.74 -9C1021.14 -9 1014.02 2.40381 1006.48 8.68079C1002.47 12.026 1000.34 12.7402 997.029 20.8664C993.719 28.9926 991.183 23.1216 988.96 28.4965C987.346 32.413 985.643 36.2619 981.694 32.5784C975.558 26.8652 975.558 33.067 971.037 32.413C966.515 31.759 965.221 31.9244 958.282 32.413C951.343 32.9017 948.614 27.8425 945.847 29.9699C943.081 32.0973 946.167 35.0291 935.19 35.9838C924.213 36.9385 918.397 38.239 908.551 37.9383C898.704 37.6376 893.141 34.4352 880.171 41.697C867.201 48.9587 867.372 53.7698 861.742 52.7399C859.585 52.3415 858.626 50.6877 857.57 50.0487C855.874 49.0113 854.446 49.0865 852.84 48.2746C851.814 47.7559 849.791 41.509 848.601 47.7334C847.411 53.9577 847.114 56.3858 844.815 54.6794C837.029 48.8084 835.832 49.4173 829.986 43.9221C823.561 37.8481 815.484 30.7216 808.538 39.2087C801.591 47.6958 799.063 50.3043 792.816 58.2351C786.569 66.1659 784.776 71.4807 780.448 71.4055C764.087 71.1424 771.524 85.3276 761.566 86.3274C748.268 87.673 753.058 82.2981 747.071 82.4334C739.976 82.5913 737.098 77.457 729.222 77.7276C721.346 77.9982 715.53 75.51 713.664 71.5408C709.811 63.3469 695.071 66.0306 686.541 64.4219C678.011 62.8132 660.236 49.4924 643.585 56.2205C631.618 61.0616 628.064 60.7309 621.913 69.9321C618.321 75.307 618.589 78.9529 615.398 80.0128C612.208 81.0728 615.398 84.9217 609.947 89.0337C604.228 93.3336 603.826 90.7777 598.903 96.6938C593.98 102.61 592.953 105.023 587.339 106.91C581.724 108.797 582.817 115.931 577.232 118.336C571.646 120.742 567.92 121.697 564.864 127.207C561.807 132.717 546.509 144.88 515.222 146.331C483.934 147.782 493.208 145.579 486.024 141.715C478.84 137.851 474.333 135.047 466.115 132.589C457.897 130.131 459.132 126.65 447.128 124.749C439.691 123.583 438.568 121.742 428.149 125.801C417.73 129.86 411.163 132.567 404.418 135.28C395.62 138.791 395.151 136.453 389.135 139.61C383.118 142.768 375.004 143.587 373.39 140.783C371.777 137.979 371.903 136.22 368.646 137.024C365.388 137.829 366.414 135.739 357.297 135.032C348.179 134.326 350.358 130.003 342.133 126.846C333.907 123.689 329.802 120.937 319.71 120.779C305.847 120.576 300.575 120.779 295.168 119.111C279.201 114.081 268.506 116.367 260.667 117.885C252.829 119.404 250.88 121.546 242.142 119.562C233.403 117.577 227.945 118.096 217.6 121.238C213.078 122.606 207.783 120.539 204.793 126.876C203.306 130.071 190.663 126.876 177.827 133.266C173.111 135.626 162.61 135.092 151.314 135.092C140.017 135.092 129.003 131.439 126.154 137.536C123.306 143.632 118.323 144.692 107.629 145.602C96.9341 146.511 89.2517 151.082 82.774 145.752C76.2964 140.422 74.4446 131.988 62.4338 132.657C51.5906 133.266 44.5106 142.707 37.4305 148.646C30.3505 154.585 18.4736 164.846 0 163.32V541.164H1920V144.324Z" fill="url(#paint0_linear_1857_1393)"/>
</g>
<path d="M1920 274.224C1914.67 276.599 1903.59 277.599 1888.12 280.238C1874.16 282.636 1865.7 286.154 1830.52 286.049C1774.63 285.883 1770.86 279.779 1741.2 285.004C1711.54 290.228 1704.47 298.866 1648.42 294.07C1558.75 286.402 1544.84 294.295 1481.83 310.706C1372.05 339.271 1388.75 322.23 1324.35 345.233C1259.94 368.236 1185.21 411.626 1185.21 411.626V541.165H1919.98L1920 274.224Z" fill="url(#paint1_linear_1857_1393)"/>
<path d="M0 275.05C11.215 275.05 9.83174 283.86 38.1891 283.68C70.0047 283.484 99.2396 264.714 109.584 257.204C117.148 251.716 110.879 241.62 119.862 239.561C124.131 238.576 125.879 243.282 127.82 241.124C129.761 238.967 131.122 235.246 134.61 234.456C138.098 233.667 134.803 225.631 143.534 223.676C152.266 221.722 149.744 219.918 152.072 215.828C154.4 211.739 158.089 214.453 165.072 206.808C172.055 199.162 171.669 204.064 181.753 193.863C189.131 186.413 191.421 188.721 199.409 177.979C207.173 167.582 211.055 174.453 218.232 168.371C225.409 162.29 234.14 159.155 241.287 155.427C248.434 151.698 254.562 147.157 263.992 150.525C290.765 160.132 293.673 161.703 309.194 166.214C324.715 170.724 335.804 174.678 347.606 177.197C365.068 180.918 378.455 190.923 401.74 190.923C419.396 190.923 434.917 184.256 457.808 181.316C480.699 178.377 489.445 179.527 502.623 175.821C527.069 168.958 543.951 174.844 549.187 175.069C554.422 175.295 562.134 172.491 572.085 175.46C580.623 178.009 586.959 176.731 591.288 178.595C598.078 181.542 599.052 175.069 603.127 177.618C607.203 180.166 613.599 184.872 618.842 185.887C624.085 186.902 631.254 189.803 639.985 194.156C648.716 198.508 654.115 199.651 657.641 197.494C661.166 195.336 662.274 195.847 673.355 199.456C684.808 203.214 684.042 208.266 689.657 208.672C692.371 208.867 693.732 205.928 698.195 206.319C702.657 206.71 701.683 196.546 707.312 196.546C715.069 196.546 713.909 186.774 719.725 188.277C725.541 189.781 733.506 191.803 739.321 194.156C745.137 196.509 754.262 199.057 756.203 201.613C758.145 204.169 764.741 202.786 772.305 202.786C779.868 202.786 793.455 202.786 798.498 206.123C803.54 209.461 808.783 212.791 819.061 215.144C829.339 217.497 838.464 218.67 845.448 221.414C852.431 224.158 853.792 222.594 863.683 226.713C873.574 230.833 876.326 225.533 889.296 233.577C902.266 241.62 910.38 247.108 922.086 250.867C969.616 265.962 979.128 266.751 1000.08 268.713C1021.03 270.675 1039.1 276.418 1052.88 279.688C1094.01 289.498 1101.97 294.204 1124.08 304.202C1146.2 314.2 1170.45 326.754 1185.2 337.94C1199.95 349.126 1204 358.462 1224 370.265C1239.91 379.676 1247.17 371.7 1269.01 383.796C1283.18 391.644 1289.58 393.012 1301.22 390.073C1312.86 387.134 1329.91 392.779 1386.48 422.059C1443.04 451.339 1478.22 466.682 1505.81 478.89C1533.4 491.098 1606.86 522.386 1642.1 541.284H0V275.05Z" fill="url(#paint2_linear_1857_1393)"/>
</g>
<defs>
<filter id="filter0_f_1857_1393" x="-6" y="-15" width="1932" height="562.164" filterUnits="userSpaceOnUse" color-interpolation-filters="sRGB">
<feFlood flood-opacity="0" result="BackgroundImageFix"/>
<feBlend mode="normal" in="SourceGraphic" in2="BackgroundImageFix" result="shape"/>
<feGaussianBlur stdDeviation="3" result="effect1_foregroundBlur_1857_1393"/>
</filter>
<linearGradient id="paint0_linear_1857_1393" x1="959.465" y1="-9" x2="959.461" y2="192.86" gradientUnits="userSpaceOnUse">
<stop stop-color="#D2DBE9"/>
<stop offset="1" stop-color="#EBF0F8"/>
</linearGradient>
<linearGradient id="paint1_linear_1857_1393" x1="1581.51" y1="255.769" x2="1623.96" y2="541.15" gradientUnits="userSpaceOnUse">
<stop stop-color="#D2DBE9"/>
<stop offset="1" stop-color="#EBF0F8"/>
</linearGradient>
<linearGradient id="paint2_linear_1857_1393" x1="845.485" y1="243.492" x2="778.916" y2="682.558" gradientUnits="userSpaceOnUse">
<stop stop-color="#D2DBE9"/>
<stop offset="1" stop-color="#EBF0F8"/>
</linearGradient>
<clipPath id="clip0_1857_1393">
<rect width="1920" height="541" fill="white"/>
</clipPath>
</defs>
</svg>
