
<svg width="1440" height="415" viewBox="0 0 1440 415" fill="none" xmlns="http://www.w3.org/2000/svg">
<g clip-path="url(#clip0_930_2316)">
<g filter="url(#filter0_f_930_2316)">
<path d="M1680 151.685C1655.46 169.69 1663.47 143.765 1647.28 154.92C1640.32 159.717 1642.87 150.005 1624.66 157.962C1606.45 165.92 1604.68 170.226 1592.83 170.107C1571.26 169.899 1567.08 187.695 1556.19 184.765C1545.3 181.835 1530.98 176.19 1504.13 170.397C1466.82 162.343 1465.29 156.787 1449.15 157.97C1439.79 158.646 1442.88 169.125 1438.16 168.262C1433.43 167.4 1435.44 163.57 1427.07 168.448C1410.54 178.116 1415.4 172.479 1399.83 178.116C1372.58 187.926 1366.78 196.523 1349.69 195.556C1320.81 193.92 1324.27 188.29 1305.73 188.119C1287.2 187.948 1288.11 202.993 1265.95 199.2C1254.29 197.192 1245.83 186.773 1235.94 178.778C1227.02 171.572 1216.61 167.623 1204.62 155.85C1187.17 138.745 1187.63 138.953 1177.51 130.676C1167.39 122.398 1156.4 107.227 1147.39 107.227C1137.09 107.227 1122.92 136.105 1076.1 136.105C1039.17 136.105 1016.13 105.717 1011.14 101.813C1000.03 93.1114 999.044 94.3162 987.748 84.1275C970.962 69.0006 973.974 85.4885 944.01 69.7071C904.059 48.6678 895.752 34.6639 879.48 36.1439C871.678 36.8504 872.385 30.4694 864.115 28.3425C855.845 26.2155 852.766 18.414 847.329 18.414C841.893 18.414 838.108 27.8665 832.671 24.795C827.235 21.7235 819.909 21.4855 811.401 17.4695C802.893 13.4536 797.925 15.3426 794.378 9.66812C790.83 3.99368 788.302 0 783.743 0C781.14 0 774.023 11.2819 766.482 17.4919C762.466 20.8013 760.339 21.5078 757.029 29.5472C753.72 37.5867 751.184 31.7784 748.96 37.0958C747.346 40.9705 745.643 44.7783 741.694 41.1341C735.559 35.482 735.559 41.6175 731.037 40.9705C726.515 40.3235 725.221 40.4871 718.282 40.9705C711.344 41.4539 708.614 36.4488 705.848 38.5535C703.081 40.6581 706.167 43.5586 695.19 44.5031C684.213 45.4476 678.398 46.7342 668.551 46.4367C658.704 46.1392 653.142 42.9711 640.171 50.1552C627.201 57.3394 627.372 62.099 621.742 61.0802C619.586 60.686 618.626 59.0499 617.57 58.4177C615.875 57.3914 614.447 57.4658 612.84 56.6626C611.814 56.1494 609.791 49.9693 608.601 56.1271C607.411 62.285 607.114 64.6871 604.816 62.9989C597.029 57.1906 595.832 57.793 589.987 52.3566C583.561 46.3475 575.484 39.2972 568.538 47.6936C561.592 56.0899 559.063 58.6706 552.816 66.5166C546.569 74.3627 544.777 79.6207 540.448 79.5463C524.087 79.286 531.524 93.3196 521.566 94.3087C508.269 95.64 513.058 90.3225 507.071 90.4564C499.976 90.6126 497.098 85.5331 489.222 85.8008C481.347 86.0685 475.531 83.6069 473.664 79.6801C469.812 71.5738 455.072 74.2288 446.541 72.6373C438.011 71.0458 420.237 57.8674 403.585 64.5235C391.619 69.313 388.064 68.9857 381.914 78.0886C378.322 83.4061 378.589 87.013 375.399 88.0617C372.208 89.1103 375.399 92.918 369.948 96.9861C364.229 101.24 363.827 98.7115 358.904 104.564C353.98 110.417 352.954 112.805 347.339 114.671C341.724 116.538 342.817 123.596 337.232 125.976C331.647 128.355 327.921 129.3 324.864 134.751C321.808 140.203 306.51 152.236 275.222 153.671C243.935 155.106 253.209 152.927 246.025 149.105C238.84 145.282 234.334 142.508 226.116 140.076C217.898 137.644 219.132 134.201 207.129 132.319C199.692 131.167 198.569 129.345 188.15 133.361C177.73 137.376 171.164 140.054 164.418 142.739C155.62 146.212 155.152 143.899 149.135 147.022C143.119 150.146 135.005 150.956 133.391 148.182C131.777 145.408 131.904 143.668 128.646 144.464C125.389 145.26 126.415 143.192 117.297 142.493C108.18 141.794 110.359 137.518 102.133 134.394C93.908 131.271 89.8028 128.549 79.7107 128.393C65.8481 128.192 60.5753 128.393 55.1686 126.742C39.2013 121.766 28.5069 124.027 20.6683 125.529C12.8297 127.032 10.8812 129.151 2.14267 127.188C-6.59581 125.224 -12.0546 125.738 -22.3995 128.846C-26.9212 130.2 -32.2163 128.155 -35.206 134.424C-36.6934 137.585 -49.3363 134.424 -62.1726 140.745C-66.8877 143.081 -77.3887 142.553 -88.6856 142.553C-99.9824 142.553 -110.997 138.938 -113.845 144.97C-116.693 151.001 -121.676 152.05 -132.371 152.95C-143.065 153.849 -150.747 158.371 -157.225 153.098C-163.703 147.825 -165.555 139.481 -177.565 140.143C-188.408 140.745 -195.488 150.086 -202.569 155.962C-209.649 161.837 -221.525 171.988 -239.999 170.479V544.285H1680V151.685Z" fill="url(#paint0_linear_930_2316)"/>
</g>
<mask id="mask0_930_2316" style="mask-type:luminance" maskUnits="userSpaceOnUse" x="-240" y="8" width="1920" height="545">
<path d="M1680 159.739C1655.46 177.744 1663.47 151.819 1647.28 162.974C1640.32 167.771 1642.87 158.058 1624.66 166.016C1606.45 173.974 1604.68 178.28 1592.83 178.161C1571.26 177.952 1567.08 195.749 1556.19 192.819C1545.3 189.889 1530.98 184.244 1504.13 178.451C1466.82 170.396 1465.28 164.841 1449.15 166.024C1439.79 166.7 1442.88 177.179 1438.15 176.316C1433.43 175.454 1435.44 171.624 1427.07 176.502C1410.54 186.17 1415.4 180.533 1399.82 186.17C1372.58 195.98 1366.77 204.577 1349.69 203.61C1320.81 201.974 1324.26 196.344 1305.73 196.173C1287.2 196.002 1288.11 211.047 1265.95 207.254C1254.29 205.246 1245.83 194.827 1235.94 186.832C1227.02 179.626 1216.61 175.677 1204.62 163.904C1187.17 146.799 1187.63 147.007 1177.51 138.73C1167.39 130.452 1156.4 115.281 1147.39 115.281C1137.09 115.281 1122.91 144.159 1076.1 144.159C1039.17 144.159 1016.13 113.771 1011.14 109.867C1000.03 101.165 999.043 102.37 987.747 92.1814C970.961 77.0546 973.973 93.5424 944.01 77.7611C904.058 56.7218 895.751 42.7179 879.479 44.1978C871.677 44.9044 872.384 38.5234 864.114 36.3964C855.844 34.2694 852.765 26.468 847.328 26.468C841.892 26.468 838.107 35.9204 832.67 32.849C827.234 29.7775 819.908 29.5395 811.4 25.5235C802.892 21.5075 797.924 23.3965 794.377 17.7221C790.829 12.0476 788.301 8.05396 783.742 8.05396C781.139 8.05396 774.022 19.3359 766.481 25.5458C762.465 28.8553 760.338 29.5618 757.028 37.6012C753.719 45.6406 751.183 39.8323 748.959 45.1498C747.345 49.0245 745.642 52.8322 741.693 49.1881C735.558 43.5359 735.558 49.6715 731.036 49.0245C726.514 48.3774 725.22 48.541 718.281 49.0245C711.343 49.5079 708.613 44.5028 705.847 46.6074C703.08 48.7121 706.167 51.6125 695.189 52.557C684.212 53.5015 678.397 54.7881 668.55 54.4907C658.703 54.1932 653.141 51.025 640.17 58.2092C627.2 65.3933 627.371 70.153 621.742 69.1341C619.585 68.74 618.625 67.1038 617.569 66.4717C615.874 65.4454 614.446 65.5197 612.839 64.7166C611.813 64.2034 609.79 58.0232 608.6 64.1811C607.41 70.3389 607.113 72.7411 604.815 71.0529C597.028 65.2446 595.831 65.847 589.986 60.4105C583.56 54.4014 575.483 47.3511 568.537 55.7475C561.591 64.1439 559.062 66.7245 552.815 74.5706C546.568 82.4166 544.776 87.6746 540.448 87.6002C524.086 87.3399 531.523 101.374 521.565 102.363C508.268 103.694 513.057 98.3765 507.07 98.5103C499.975 98.6665 497.097 93.587 489.221 93.8548C481.346 94.1225 475.53 91.6608 473.663 87.7341C469.811 79.6278 455.071 82.2828 446.54 80.6913C438.01 79.0997 420.236 65.9213 403.584 72.5775C391.618 77.3669 388.063 77.0397 381.913 86.1426C378.321 91.46 378.588 95.067 375.398 96.1156C372.207 97.1642 375.398 100.972 369.947 105.04C364.228 109.294 363.826 106.765 358.903 112.618C353.979 118.471 352.953 120.859 347.338 122.725C341.723 124.592 342.816 131.65 337.231 134.03C331.646 136.409 327.92 137.354 324.863 142.805C321.807 148.257 306.509 160.29 275.221 161.725C243.934 163.16 253.208 160.981 246.024 157.159C238.839 153.336 234.333 150.562 226.115 148.13C217.897 145.698 219.131 142.255 207.128 140.373C199.691 139.221 198.568 137.398 188.149 141.414C177.73 145.43 171.163 148.108 164.417 150.793C155.619 154.266 155.151 151.953 149.134 155.076C143.118 158.2 135.004 159.01 133.39 156.236C131.776 153.462 131.903 151.722 128.645 152.518C125.388 153.314 126.414 151.246 117.296 150.547C108.179 149.848 110.358 145.572 102.132 142.448C93.907 139.325 89.8018 136.603 79.7097 136.447C65.8472 136.246 60.5743 136.447 55.1676 134.796C39.2003 129.82 28.5059 132.081 20.6673 133.583C12.8287 135.086 10.8802 137.205 2.14169 135.242C-6.59679 133.278 -12.0556 133.792 -22.4005 136.9C-26.9221 138.254 -32.2173 136.209 -35.207 142.478C-36.6944 145.639 -49.3373 142.478 -62.1736 148.799C-66.8887 151.135 -77.3897 150.607 -88.6865 150.607C-99.9834 150.607 -110.998 146.992 -113.846 153.024C-116.694 159.055 -121.677 160.104 -132.372 161.004C-143.066 161.903 -150.748 166.425 -157.226 161.152C-163.704 155.879 -165.555 147.535 -177.566 148.197C-188.409 148.799 -195.489 158.14 -202.57 164.016C-209.65 169.891 -221.526 180.042 -240 178.533V552.339H1680V159.739Z" fill="white"/>
</mask>
<g mask="url(#mask0_930_2316)">
<g filter="url(#filter1_f_930_2316)">
<path d="M1041.24 120.731C895.998 72.7625 893.246 143.637 613.503 152.048C524.891 154.711 515.557 130.727 454.931 158.043C394.304 185.359 314.014 193.993 194.122 193.993C74.2302 193.993 67.2394 199.021 9.20836 178.866C-74.406 149.862 -56.5423 183.329 -115.161 181.655C-149.832 180.666 -208.399 174.397 -220.662 167.696C-241.88 172.723 -244.111 177.186 -244.111 177.186L-244.669 306.716L605.144 342.28L1360.19 182.049L1160.46 67.9136L1041.24 120.731Z" fill="url(#paint1_linear_930_2316)"/>
<path d="M937.532 361.713C1031.65 336.739 1107.37 361.438 1109.02 361.713C1110.67 361.988 978.413 437.436 978.413 437.436L937.532 361.713Z" fill="url(#paint2_linear_930_2316)"/>
</g>
</g>
<path d="M1680 280.197C1674.67 282.547 1663.59 283.536 1648.12 286.147C1634.17 288.519 1625.7 292 1590.53 291.896C1534.63 291.732 1530.86 285.693 1501.2 290.862C1471.54 296.031 1464.48 304.576 1408.42 299.831C1318.75 292.245 1304.84 300.054 1241.83 316.289C1132.06 344.55 1148.75 327.69 1084.35 350.447C1019.94 373.205 945.208 416.131 945.208 416.131V544.286H1679.98L1680 280.197Z" fill="url(#paint3_linear_930_2316)"/>
<path d="M-239.999 281.015C-228.784 281.015 -230.167 289.731 -201.81 289.552C-169.994 289.359 -140.76 270.789 -130.415 263.359C-122.851 257.93 -129.121 247.942 -120.137 245.904C-115.868 244.93 -114.12 249.586 -112.179 247.451C-110.238 245.317 -108.877 241.636 -105.389 240.855C-101.901 240.074 -105.196 232.124 -96.4647 230.19C-87.7336 228.256 -90.2548 226.472 -87.927 222.426C-85.5992 218.38 -81.9104 221.065 -74.9271 213.501C-67.9437 205.938 -68.3304 210.787 -58.2458 200.695C-50.8683 193.325 -48.5777 195.608 -40.5904 184.98C-32.8261 174.695 -28.944 181.492 -21.7673 175.476C-14.5906 169.459 -5.85953 166.358 1.28745 162.669C8.43442 158.981 14.5625 154.489 23.9926 157.82C50.7659 167.325 53.6737 168.879 69.1948 173.342C84.7159 177.804 95.8044 181.716 107.607 184.207C125.069 187.888 138.456 197.787 161.741 197.787C179.396 197.787 194.917 191.19 217.809 188.282C240.7 185.375 249.446 186.512 262.624 182.846C287.07 176.056 303.952 181.879 309.187 182.102C314.423 182.325 322.135 179.551 332.086 182.489C340.624 185.01 346.96 183.746 351.288 185.59C358.078 188.506 359.052 182.102 363.128 184.623C367.203 187.145 373.599 191.8 378.842 192.804C384.085 193.808 391.255 196.679 399.986 200.985C408.717 205.291 414.116 206.421 417.641 204.287C421.166 202.152 422.274 202.658 433.356 206.228C444.809 209.946 444.043 214.944 449.658 215.346C452.372 215.539 453.733 212.631 458.195 213.018C462.657 213.405 461.683 203.35 467.313 203.35C475.07 203.35 473.91 193.682 479.725 195.169C485.541 196.657 493.506 198.657 499.322 200.985C505.138 203.313 514.263 205.834 516.204 208.362C518.145 210.891 524.742 209.523 532.305 209.523C539.868 209.523 553.456 209.523 558.498 212.825C563.54 216.127 568.784 219.421 579.062 221.749C589.339 224.077 598.465 225.237 605.448 227.951C612.431 230.666 613.792 229.119 623.684 233.195C633.575 237.27 636.327 232.027 649.297 239.985C662.267 247.942 670.381 253.371 682.086 257.09C729.616 272.023 739.128 272.804 760.078 274.745C781.029 276.686 799.1 282.368 812.881 285.603C854.008 295.309 861.966 299.964 884.083 309.855C906.201 319.747 930.453 332.166 945.201 343.233C959.948 354.299 964.001 363.536 984 375.212C999.907 384.523 1007.17 376.632 1029.01 388.598C1043.18 396.363 1049.58 397.716 1061.22 394.808C1072.86 391.9 1089.91 397.486 1146.48 426.453C1203.04 455.42 1238.22 470.599 1265.81 482.677C1293.4 494.754 1366.86 525.707 1402.1 544.404H-239.999V281.015Z" fill="url(#paint4_linear_930_2316)"/>
</g>
<defs>
<filter id="filter0_f_930_2316" x="-244.999" y="-5" width="1930" height="554.285" filterUnits="userSpaceOnUse" color-interpolation-filters="sRGB">
<feFlood flood-opacity="0" result="BackgroundImageFix"/>
<feBlend mode="normal" in="SourceGraphic" in2="BackgroundImageFix" result="shape"/>
<feGaussianBlur stdDeviation="2.5" result="effect1_foregroundBlur_930_2316"/>
</filter>
<filter id="filter1_f_930_2316" x="-248.669" y="63.9136" width="1612.86" height="377.523" filterUnits="userSpaceOnUse" color-interpolation-filters="sRGB">
<feFlood flood-opacity="0" result="BackgroundImageFix"/>
<feBlend mode="normal" in="SourceGraphic" in2="BackgroundImageFix" result="shape"/>
<feGaussianBlur stdDeviation="2" result="effect1_foregroundBlur_930_2316"/>
</filter>
<linearGradient id="paint0_linear_930_2316" x1="703.103" y1="19.9535" x2="708.919" y2="132.862" gradientUnits="userSpaceOnUse">
<stop stop-color="#74AFDD"/>
<stop offset="1" stop-color="#5791C0"/>
</linearGradient>
<linearGradient id="paint1_linear_930_2316" x1="538.843" y1="105.233" x2="566.672" y2="309.936" gradientUnits="userSpaceOnUse">
<stop stop-color="#185992"/>
<stop offset="1" stop-color="#A8D7F9"/>
</linearGradient>
<linearGradient id="paint2_linear_930_2316" x1="969.928" y1="535.33" x2="1043" y2="297.591" gradientUnits="userSpaceOnUse">
<stop stop-color="#17479E"/>
<stop offset="0.67" stop-color="#73AEDC"/>
<stop offset="1" stop-color="#BCD8E4"/>
</linearGradient>
<linearGradient id="paint3_linear_930_2316" x1="1341.51" y1="261.939" x2="1298.5" y2="586.639" gradientUnits="userSpaceOnUse">
<stop stop-color="#0E3F6C"/>
<stop offset="0.390625" stop-color="#2B679D"/>
<stop offset="1" stop-color="#536686"/>
</linearGradient>
<linearGradient id="paint4_linear_930_2316" x1="581" y1="128.5" x2="581" y2="394.5" gradientUnits="userSpaceOnUse">
<stop stop-color="#2E5C9E"/>
<stop offset="1" stop-color="#023459"/>
</linearGradient>
<clipPath id="clip0_930_2316">
<rect width="1440" height="415" fill="white"/>
</clipPath>
</defs>
</svg>
