<svg width="1931" height="369" viewBox="0 0 1931 369" fill="none" xmlns="http://www.w3.org/2000/svg">
<g filter="url(#filter0_f_2304_1351)">
<path d="M1922.49 105.896C1898.04 117.536 1906 100.798 1889.86 108.011C1882.94 111.112 1885.47 104.842 1867.32 109.992C1849.17 115.143 1847.41 117.923 1835.59 117.856C1814.09 117.74 1809.93 129.228 1799.07 127.346C1788.22 125.464 1773.93 121.833 1747.15 118.117C1709.95 112.949 1708.41 109.366 1692.33 110.142C1683 110.586 1686.08 117.346 1681.37 116.794C1676.66 116.241 1678.66 113.767 1670.33 116.923C1653.85 123.176 1658.69 119.534 1643.17 123.184C1616.01 129.537 1610.23 135.09 1593.2 134.481C1564.4 133.449 1567.84 129.813 1549.36 129.717C1530.88 129.622 1531.81 139.331 1509.71 136.902C1498.08 135.615 1489.63 128.898 1479.77 123.747C1470.86 119.104 1460.48 116.564 1448.51 108.976C1431.1 97.9517 1431.56 98.0857 1421.46 92.7522C1411.36 87.4188 1400.39 77.6369 1391.41 77.6444C1381.14 77.6529 1367.03 96.3009 1320.35 96.3396C1283.54 96.37 1260.53 76.7784 1255.56 74.2628C1244.47 68.6566 1243.48 69.435 1232.21 62.869C1215.46 53.1208 1218.48 63.7587 1188.59 53.599C1148.73 40.0542 1140.44 31.0237 1124.21 31.9922C1116.44 32.4546 1117.13 28.3361 1108.89 26.9703C1100.64 25.6045 1097.56 20.5724 1092.14 20.5768C1086.72 20.5813 1082.95 26.6846 1077.53 24.7069C1072.11 22.7292 1064.8 22.5817 1056.32 19.997C1047.83 17.4123 1042.88 18.6354 1039.34 14.9764C1035.79 11.3173 1033.27 8.74209 1028.72 8.74585C1026.13 8.748 1019.04 16.0347 1011.53 20.0485C1007.53 22.1875 1005.41 22.6452 1002.12 27.8362C998.826 33.0272 996.291 29.2809 994.08 32.7143C992.475 35.2162 990.78 37.6749 986.839 35.3264C980.716 31.6839 980.722 35.6435 976.213 35.2296C971.704 34.8158 970.414 34.9225 963.496 35.2402C956.579 35.5579 953.852 32.3301 951.096 33.6906C948.34 35.0511 951.42 36.9204 940.476 37.539C929.532 38.1576 923.735 38.9927 913.917 38.8088C904.099 38.625 898.55 36.585 885.625 41.232C872.7 45.879 872.876 48.9505 867.261 48.2976C865.111 48.045 864.152 46.99 863.099 46.5829C861.407 45.9219 859.984 45.9711 858.381 45.4541C857.357 45.1238 855.334 41.1371 854.154 45.112C852.974 49.087 852.68 50.6375 850.387 49.5499C842.617 45.8079 841.424 46.1977 835.59 42.6941C829.178 38.8214 821.118 34.2782 814.2 39.7025C807.283 45.1269 804.765 46.7944 798.544 51.863C792.323 56.9316 790.541 60.3263 786.226 60.2818C769.912 60.1274 777.341 69.1778 767.414 69.8244C754.157 70.6945 758.927 67.2589 752.958 67.3502C745.884 67.4569 743.009 64.1812 735.157 64.3605C727.305 64.5398 721.504 62.9559 719.638 60.4234C715.789 55.1951 701.095 56.9207 692.589 55.9007C684.082 54.8806 666.347 46.3906 649.751 50.6999C637.825 53.8006 634.28 53.5924 628.157 59.472C624.581 62.9066 624.852 65.2341 621.671 65.9135C618.491 66.5929 621.676 69.0476 616.245 71.6774C610.547 74.4274 610.144 72.7959 605.241 76.5771C600.338 80.3584 599.318 81.8999 593.721 83.1092C588.125 84.3185 589.222 88.8723 583.655 90.4127C578.089 91.9531 574.375 92.5657 571.333 96.0863C568.291 99.6068 553.05 107.385 521.856 108.337C490.662 109.289 499.907 107.875 492.74 105.414C485.573 102.953 481.077 101.167 472.881 99.6042C464.685 98.0416 465.912 95.8184 453.942 94.6141C446.526 93.8763 445.405 92.7013 435.02 95.3017C424.636 97.902 418.091 99.6352 411.368 101.373C402.599 103.622 402.13 102.13 396.134 104.15C390.139 106.171 382.05 106.701 380.438 104.912C378.826 103.123 378.95 102 375.703 102.516C372.456 103.033 373.477 101.698 364.386 101.254C355.294 100.81 357.463 98.0488 349.258 96.0398C341.054 94.0308 336.958 92.2776 326.896 92.1851C313.074 92.067 307.817 92.2009 302.424 91.1399C286.499 87.9423 275.839 89.4101 268.025 90.3861C260.211 91.362 258.27 92.7315 249.555 91.4717C240.841 90.2118 235.399 90.5475 225.087 92.5622C220.58 93.4394 215.299 92.124 212.324 96.1724C210.844 98.2134 198.236 96.1841 185.443 100.274C180.745 101.785 170.274 101.453 159.011 101.462C147.747 101.472 136.762 99.1482 133.928 103.043C131.094 106.938 126.127 107.619 115.465 108.208C104.803 108.798 97.1475 111.722 90.6837 108.325C84.2199 104.927 82.3652 99.5436 70.3905 99.9807C59.58 100.378 52.5302 106.412 45.4769 110.21C38.4236 114.007 26.5919 120.568 8.17135 119.609L8.54572 360.845L1922.88 359.26L1922.49 105.896Z" fill="url(#paint0_linear_2304_1351)"/>
</g>
<path d="M1922.62 188.529C1917.3 190.05 1906.25 190.697 1890.84 192.394C1876.93 193.936 1868.49 196.188 1833.42 196.15C1777.69 196.091 1773.92 192.198 1744.36 195.557C1714.79 198.916 1707.76 204.434 1651.86 201.42C1562.45 196.6 1548.59 201.649 1485.79 212.175C1376.36 230.497 1392.99 219.606 1328.8 234.341C1264.61 249.075 1190.14 276.83 1190.14 276.83L1190.27 359.505L1922.87 358.899L1922.62 188.529Z" fill="url(#paint1_linear_2304_1351)"/>
<path d="M8.23905 190.886C19.4211 190.877 18.0506 196.505 46.3245 196.367C78.0464 196.215 107.177 184.203 117.484 179.398C125.02 175.887 118.759 169.445 127.714 168.122C131.97 167.489 133.717 170.493 135.65 169.114C137.583 167.734 138.937 165.357 142.413 164.85C145.89 164.343 142.597 159.213 151.301 157.957C160.004 156.702 157.489 155.552 159.806 152.938C162.123 150.324 165.803 152.054 172.759 147.166C179.714 142.278 179.333 145.408 189.378 138.885C196.726 134.121 199.013 135.593 206.966 128.726C214.697 122.079 218.575 126.464 225.724 122.574C232.874 118.684 241.576 116.675 248.698 114.288C255.821 111.901 261.926 108.996 271.332 111.139C298.036 117.252 300.937 118.253 316.417 121.121C331.897 123.989 342.957 126.505 354.727 128.104C372.142 130.466 385.499 136.845 408.716 136.826C426.319 136.811 441.788 132.54 464.609 130.644C487.43 128.748 496.152 129.475 509.288 127.097C533.655 122.694 550.493 126.439 555.713 126.579C560.934 126.718 568.621 124.921 578.545 126.809C587.06 128.43 593.377 127.609 597.694 128.796C604.467 130.672 605.432 126.538 609.498 128.162C613.564 129.786 619.946 132.786 625.175 133.43C630.403 134.074 637.554 135.921 646.264 138.694C654.974 141.466 660.358 142.192 663.871 140.811C667.384 139.43 668.489 139.755 679.541 142.051C690.964 144.442 690.205 147.669 695.804 147.923C698.511 148.046 699.865 146.168 704.315 146.414C708.764 146.66 707.783 140.169 713.396 140.165C721.13 140.158 719.964 133.918 725.764 134.873C731.564 135.829 739.508 137.114 745.309 138.612C751.11 140.11 760.21 141.73 762.148 143.36C764.086 144.991 770.662 144.102 778.203 144.096C785.745 144.09 799.292 144.079 804.323 146.206C809.354 148.334 814.585 150.456 824.835 151.95C835.085 153.445 844.184 154.186 851.15 155.933C858.116 157.679 859.471 156.679 869.337 159.302C879.204 161.925 881.942 158.538 894.882 163.665C907.822 168.791 915.917 172.289 927.593 174.68C974.998 184.281 984.483 184.777 1005.37 186.013C1026.26 187.249 1044.29 190.902 1058.03 192.979C1099.05 199.211 1106.99 202.209 1129.05 208.577C1151.11 214.944 1175.3 222.941 1190.02 230.073C1204.74 237.205 1208.79 243.165 1228.74 250.686C1244.61 256.684 1251.84 251.584 1273.63 259.291C1287.76 264.291 1294.15 265.16 1305.75 263.273C1317.35 261.386 1334.36 264.978 1390.79 283.631C1447.22 302.284 1482.31 312.054 1509.83 319.828C1537.35 327.603 1610.62 347.524 1645.78 359.565L8.50284 360.921L8.23905 190.886Z" fill="url(#paint2_linear_2304_1351)"/>
<path d="M8.34715 301.748C183.543 295.737 165.641 314.075 196.602 310.173C227.563 306.271 235.726 310.492 247.685 313.661C259.644 316.829 277.56 321.745 310.172 311.837C342.785 301.928 350.957 311.803 373.203 311.433C395.449 311.063 427.537 307.155 475.906 310.644C524.275 314.134 570.478 326.443 592.712 318.661C614.947 310.88 635.802 303.288 640.498 294.977C648.086 281.564 671.461 287.545 673.618 277.31C675.775 267.075 698.11 262.275 729.563 264.56C792.06 269.093 815.977 275.083 827.936 274.004C839.896 272.925 905.086 268.643 949.108 276.022C993.13 283.401 1061.86 298.08 1098.59 302.716C1165.43 311.126 1186.61 299.821 1251.29 310.352C1315.97 320.882 1317.06 328.293 1385.54 332.117C1454.02 335.942 1487.51 337.532 1505.1 342.959C1516.52 346.474 1548.17 342.841 1598.19 359.524L8.43856 360.845L8.34715 301.748Z" fill="#F7F7FE"/>
<defs>
<filter id="filter0_f_2304_1351" x="0.290375" y="0.864838" width="1930.47" height="367.861" filterUnits="userSpaceOnUse" color-interpolation-filters="sRGB">
<feFlood flood-opacity="0" result="BackgroundImageFix"/>
<feBlend mode="normal" in="SourceGraphic" in2="BackgroundImageFix" result="shape"/>
<feGaussianBlur stdDeviation="3.94051" result="effect1_foregroundBlur_2304_1351"/>
</filter>
<linearGradient id="paint0_linear_2304_1351" x1="964.635" y1="8.79892" x2="965.421" y2="218.836" gradientUnits="userSpaceOnUse">
<stop stop-color="#C9E3F4"/>
<stop offset="1" stop-color="#EEF7FD"/>
</linearGradient>
<linearGradient id="paint1_linear_2304_1351" x1="1585.11" y1="177.03" x2="1602.84" y2="361.524" gradientUnits="userSpaceOnUse">
<stop stop-color="#B9DCF7"/>
<stop offset="1" stop-color="#F7F7FE"/>
</linearGradient>
<linearGradient id="paint2_linear_2304_1351" x1="796.075" y1="135.162" x2="827.641" y2="446.481" gradientUnits="userSpaceOnUse">
<stop stop-color="#B4DAF6"/>
<stop offset="1" stop-color="#EBF0F8"/>
</linearGradient>
</defs>
</svg>
