<svg width="1921" height="557" viewBox="0 0 1921 557" fill="none" xmlns="http://www.w3.org/2000/svg">
<g filter="url(#filter0_f_2504_34534)">
<path d="M1918.25 160.308C1893.71 178.507 1901.72 152.302 1885.53 163.578C1878.57 168.426 1881.12 158.609 1862.91 166.652C1844.7 174.696 1842.93 179.048 1831.08 178.928C1809.51 178.718 1805.33 196.707 1794.44 193.745C1783.55 190.783 1769.23 185.077 1742.38 179.221C1705.07 171.08 1703.54 165.465 1687.4 166.66C1678.04 167.344 1681.13 177.936 1676.4 177.064C1671.68 176.192 1673.69 172.32 1665.32 177.252C1648.79 187.024 1653.65 181.326 1638.07 187.024C1610.83 196.94 1605.02 205.63 1587.94 204.652C1559.06 202.999 1562.51 197.308 1543.98 197.135C1525.45 196.962 1526.36 212.17 1504.2 208.336C1492.54 206.306 1484.08 195.774 1474.19 187.693C1465.27 180.409 1454.86 176.417 1442.87 164.517C1425.42 147.227 1425.88 147.438 1415.76 139.071C1405.64 130.704 1394.65 115.369 1385.64 115.369C1375.34 115.369 1361.16 144.559 1314.35 144.559C1277.42 144.559 1254.38 113.843 1249.39 109.896C1238.28 101.101 1237.29 102.319 1226 92.0201C1209.21 76.7298 1212.22 93.3958 1182.26 77.4439C1142.31 56.1774 1134 42.0222 1117.73 43.5182C1109.93 44.2323 1110.63 37.7824 1102.36 35.6325C1094.09 33.4825 1091.01 25.5968 1085.58 25.5968C1080.14 25.5968 1076.36 35.1514 1070.92 32.0467C1065.48 28.942 1058.16 28.7015 1049.65 24.6421C1041.14 20.5828 1036.17 22.4922 1032.63 16.7564C1029.08 11.0207 1026.55 6.98389 1021.99 6.98389C1019.39 6.98389 1012.27 18.3877 1004.73 24.6647C1000.71 28.0099 998.587 28.724 995.278 36.8503C991.969 44.9765 989.432 39.1055 987.209 44.4804C985.595 48.3969 983.892 52.2458 979.943 48.5623C973.807 42.8491 973.807 49.0509 969.286 48.3969C964.764 47.7429 963.47 47.9083 956.531 48.3969C949.592 48.8856 946.863 43.8264 944.096 45.9538C941.33 48.0812 944.416 51.013 933.439 51.9677C922.462 52.9224 916.646 54.2229 906.8 53.9222C896.953 53.6215 891.39 50.4191 878.42 57.6809C865.45 64.9426 865.621 69.7537 859.991 68.7238C857.834 68.3254 856.875 66.6716 855.819 66.0326C854.123 64.9952 852.695 65.0704 851.089 64.2585C850.063 63.7398 848.04 57.4929 846.85 63.7173C845.66 69.9416 845.363 72.3697 843.065 70.6633C835.278 64.7923 834.081 65.4012 828.235 59.906C821.81 53.832 813.733 46.7055 806.787 55.1926C799.841 63.6797 797.312 66.2882 791.065 74.219C784.818 82.1498 783.025 87.4646 778.697 87.3894C762.336 87.1263 769.773 101.312 759.815 102.311C746.517 103.657 751.307 98.282 745.32 98.4173C738.225 98.5752 735.347 93.4408 727.471 93.7115C719.595 93.9821 713.779 91.4939 711.913 87.5247C708.06 79.3308 693.32 82.0145 684.79 80.4058C676.26 78.7971 658.485 65.4763 641.834 72.2044C629.867 77.0455 626.313 76.7148 620.162 85.916C616.57 91.2909 616.838 94.9368 613.647 95.9967C610.457 97.0567 613.647 100.906 608.196 105.018C602.477 109.317 602.075 106.762 597.152 112.678C592.229 118.594 591.202 121.007 585.588 122.894C579.973 124.781 581.066 131.915 575.481 134.32C569.895 136.726 566.169 137.68 563.113 143.191C560.056 148.701 544.758 160.864 513.471 162.315C482.183 163.766 491.457 161.563 484.273 157.699C477.089 153.835 472.582 151.031 464.364 148.573C456.146 146.115 457.381 142.634 445.377 140.732C437.94 139.567 436.817 137.726 426.398 141.785C415.979 145.844 409.412 148.55 402.667 151.264C393.869 154.775 393.4 152.437 387.384 155.594C381.367 158.752 373.253 159.571 371.639 156.767C370.026 153.963 370.152 152.204 366.895 153.008C363.637 153.813 364.663 151.723 355.546 151.016C346.428 150.31 348.607 145.987 340.382 142.83C332.156 139.673 328.051 136.921 317.959 136.763C304.096 136.56 298.824 136.763 293.417 135.094C277.45 130.065 266.755 132.351 258.917 133.869C251.078 135.388 249.129 137.53 240.391 135.545C231.652 133.561 226.194 134.08 215.849 137.222C211.327 138.59 206.032 136.523 203.042 142.86C201.555 146.055 188.912 142.86 176.076 149.25C171.36 151.61 160.859 151.076 149.563 151.076C138.266 151.076 127.252 147.423 124.403 153.519C121.555 159.616 116.572 160.676 105.878 161.586C95.1831 162.495 87.5007 167.066 81.023 161.736C74.5454 156.406 72.6936 147.972 60.6828 148.641C49.8396 149.25 42.7596 158.691 35.6795 164.63C28.5995 170.569 16.7226 180.83 -1.75098 179.304V557.148H1918.25V160.308Z" fill="url(#paint0_linear_2504_34534)"/>
</g>
<mask id="mask0_2504_34534" style="mask-type:luminance" maskUnits="userSpaceOnUse" x="-2" y="6" width="1921" height="552">
<path d="M1918.25 160.308C1893.71 178.507 1901.72 152.302 1885.53 163.578C1878.57 168.426 1881.12 158.609 1862.91 166.652C1844.7 174.696 1842.93 179.048 1831.08 178.928C1809.51 178.718 1805.33 196.707 1794.44 193.745C1783.55 190.783 1769.23 185.077 1742.38 179.221C1705.07 171.08 1703.54 165.465 1687.4 166.66C1678.04 167.344 1681.13 177.936 1676.4 177.064C1671.68 176.192 1673.69 172.32 1665.32 177.252C1648.79 187.024 1653.65 181.326 1638.07 187.024C1610.83 196.94 1605.02 205.63 1587.94 204.652C1559.06 202.999 1562.51 197.308 1543.98 197.135C1525.45 196.962 1526.36 212.17 1504.2 208.336C1492.54 206.306 1484.08 195.774 1474.19 187.693C1465.27 180.409 1454.86 176.417 1442.87 164.517C1425.42 147.227 1425.88 147.438 1415.76 139.071C1405.64 130.704 1394.65 115.369 1385.64 115.369C1375.34 115.369 1361.16 144.559 1314.35 144.559C1277.42 144.559 1254.38 113.843 1249.39 109.896C1238.28 101.101 1237.29 102.319 1226 92.0201C1209.21 76.7298 1212.22 93.3957 1182.26 77.4439C1142.31 56.1774 1134 42.0222 1117.73 43.5182C1109.93 44.2323 1110.63 37.7824 1102.36 35.6325C1094.09 33.4825 1091.01 25.5968 1085.58 25.5968C1080.14 25.5968 1076.36 35.1514 1070.92 32.0467C1065.48 28.942 1058.16 28.7015 1049.65 24.6421C1041.14 20.5828 1036.17 22.4922 1032.63 16.7564C1029.08 11.0207 1026.55 6.98389 1021.99 6.98389C1019.39 6.98389 1012.27 18.3877 1004.73 24.6647C1000.71 28.0099 998.587 28.724 995.278 36.8503C991.969 44.9765 989.433 39.1055 987.209 44.4804C985.595 48.3969 983.892 52.2458 979.943 48.5623C973.807 42.8491 973.807 49.0509 969.286 48.3969C964.764 47.7429 963.47 47.9083 956.531 48.3969C949.592 48.8856 946.863 43.8264 944.096 45.9538C941.33 48.0812 944.416 51.013 933.439 51.9677C922.462 52.9224 916.646 54.2229 906.8 53.9222C896.953 53.6215 891.39 50.4191 878.42 57.6808C865.45 64.9426 865.621 69.7537 859.991 68.7238C857.835 68.3254 856.875 66.6716 855.819 66.0326C854.123 64.9952 852.696 65.0704 851.089 64.2585C850.063 63.7398 848.04 57.4929 846.85 63.7173C845.66 69.9416 845.363 72.3697 843.065 70.6633C835.278 64.7922 834.081 65.4012 828.235 59.906C821.81 53.832 813.733 46.7055 806.787 55.1926C799.841 63.6797 797.312 66.2882 791.065 74.219C784.818 82.1498 783.025 87.4646 778.697 87.3894C762.336 87.1263 769.773 101.312 759.815 102.311C746.517 103.657 751.307 98.282 745.32 98.4173C738.225 98.5752 735.347 93.4408 727.471 93.7115C719.595 93.9821 713.779 91.4939 711.913 87.5247C708.06 79.3308 693.32 82.0145 684.79 80.4058C676.26 78.7971 658.485 65.4763 641.834 72.2044C629.867 77.0455 626.313 76.7148 620.162 85.916C616.57 91.2909 616.838 94.9368 613.647 95.9967C610.457 97.0567 613.647 100.906 608.196 105.018C602.477 109.317 602.075 106.762 597.152 112.678C592.229 118.594 591.203 121.007 585.588 122.894C579.973 124.781 581.066 131.915 575.481 134.32C569.895 136.726 566.169 137.68 563.113 143.191C560.056 148.701 544.758 160.864 513.471 162.315C482.183 163.766 491.457 161.563 484.273 157.699C477.089 153.835 472.582 151.031 464.364 148.573C456.146 146.115 457.381 142.634 445.377 140.732C437.94 139.567 436.817 137.726 426.398 141.785C415.979 145.844 409.412 148.55 402.667 151.264C393.869 154.775 393.4 152.437 387.384 155.594C381.367 158.752 373.253 159.571 371.639 156.767C370.026 153.963 370.152 152.204 366.895 153.008C363.637 153.813 364.663 151.723 355.546 151.016C346.428 150.31 348.607 145.987 340.382 142.83C332.156 139.673 328.051 136.921 317.959 136.763C304.096 136.56 298.824 136.763 293.417 135.094C277.45 130.065 266.755 132.351 258.917 133.869C251.078 135.388 249.129 137.53 240.391 135.545C231.652 133.561 226.194 134.08 215.849 137.222C211.327 138.59 206.032 136.523 203.042 142.86C201.555 146.055 188.912 142.86 176.076 149.25C171.361 151.61 160.859 151.076 149.563 151.076C138.266 151.076 127.252 147.423 124.403 153.519C121.555 159.616 116.572 160.676 105.878 161.586C95.1831 162.495 87.5007 167.066 81.023 161.736C74.5454 156.406 72.6936 147.972 60.6828 148.641C49.8396 149.25 42.7596 158.691 35.6795 164.63C28.5995 170.569 16.7226 180.83 -1.75098 179.304V557.148H1918.25V160.308Z" fill="white"/>
</mask>
<g mask="url(#mask0_2504_34534)">
<path d="M1175.78 364.464C1269.9 339.221 1345.62 364.186 1347.27 364.464C1348.92 364.742 1216.66 441.005 1216.66 441.005L1175.78 364.464Z" fill="url(#paint1_linear_2504_34534)"/>
</g>
<path d="M1918.25 290.208C1912.92 292.583 1901.84 293.583 1886.37 296.222C1872.42 298.62 1863.95 302.138 1828.77 302.033C1772.88 301.867 1769.11 295.763 1739.45 300.988C1709.79 306.212 1702.72 314.85 1646.67 310.054C1557 302.386 1543.09 310.279 1480.08 326.69C1370.3 355.256 1387 338.214 1322.6 361.217C1258.19 384.22 1183.46 427.61 1183.46 427.61V557.149H1918.23L1918.25 290.208Z" fill="url(#paint2_linear_2504_34534)"/>
<path d="M-1.75098 291.034C9.46405 291.034 8.08076 299.844 36.4381 299.664C68.2537 299.468 97.4886 280.698 107.833 273.188C115.397 267.7 109.128 257.604 118.111 255.544C122.38 254.56 124.128 259.266 126.069 257.108C128.01 254.951 129.371 251.23 132.859 250.44C136.347 249.651 133.052 241.615 141.783 239.66C150.515 237.706 147.993 235.902 150.321 231.812C152.649 227.723 156.338 230.437 163.321 222.791C170.304 215.146 169.918 220.048 180.002 209.847C187.38 202.397 189.67 204.705 197.658 193.962C205.422 183.566 209.304 190.437 216.481 184.355C223.658 178.274 232.389 175.139 239.536 171.41C246.683 167.682 252.811 163.141 262.241 166.509C289.014 176.116 291.922 177.687 307.443 182.198C322.964 186.708 334.053 190.662 345.855 193.181C363.317 196.902 376.704 206.907 399.989 206.907C417.645 206.907 433.166 200.239 456.057 197.3C478.948 194.361 487.694 195.511 500.872 191.805C525.318 184.942 542.2 190.828 547.436 191.053C552.671 191.279 560.383 188.475 570.334 191.444C578.872 193.993 585.208 192.715 589.537 194.579C596.327 197.526 597.301 191.053 601.376 193.602C605.452 196.15 611.848 200.856 617.091 201.871C622.334 202.886 629.503 205.787 638.234 210.14C646.965 214.492 652.365 215.635 655.89 213.477C659.415 211.32 660.523 211.831 671.604 215.439C683.057 219.198 682.291 224.25 687.906 224.656C690.62 224.851 691.982 221.912 696.444 222.303C700.906 222.694 699.932 212.53 705.561 212.53C713.318 212.53 712.158 202.758 717.974 204.261C723.79 205.765 731.755 207.787 737.57 210.14C743.386 212.493 752.511 215.041 754.452 217.597C756.394 220.153 762.99 218.77 770.554 218.77C778.117 218.77 791.704 218.77 796.747 222.107C801.789 225.445 807.032 228.775 817.31 231.128C827.588 233.481 836.713 234.654 843.697 237.398C850.68 240.141 852.041 238.578 861.932 242.697C871.823 246.817 874.575 241.517 887.545 249.561C900.516 257.604 908.629 263.092 920.335 266.851C967.865 281.945 977.377 282.735 998.327 284.697C1019.28 286.659 1037.35 292.402 1051.13 295.672C1092.26 305.482 1100.21 310.188 1122.33 320.186C1144.45 330.184 1168.7 342.738 1183.45 353.924C1198.2 365.11 1202.25 374.446 1222.25 386.249C1238.16 395.66 1245.41 387.684 1267.26 399.78C1281.42 407.628 1287.83 408.996 1299.47 406.057C1311.11 403.117 1328.16 408.763 1384.72 438.043C1441.29 467.323 1476.47 482.666 1504.06 494.874C1531.65 507.082 1605.11 538.37 1640.35 557.268H-1.75098V291.034Z" fill="url(#paint3_linear_2504_34534)"/>
<path d="M-1.75098 464.717C173.963 455.561 155.981 484.164 187.038 478.113C218.095 472.061 226.275 478.661 238.264 483.623C250.252 488.584 268.213 496.282 300.936 480.856C333.659 465.431 341.839 480.856 364.15 480.308C386.461 479.759 418.649 473.7 467.153 479.21C515.657 484.72 561.975 503.995 584.286 491.877C606.597 479.759 627.525 467.934 632.247 454.967C639.878 434.038 663.312 443.405 665.491 427.431C667.67 411.456 690.078 403.992 721.618 407.6C784.29 414.756 808.267 424.138 820.263 422.469C832.258 420.8 897.645 414.2 941.784 425.777C985.922 437.354 1054.83 460.357 1091.65 467.641C1158.68 480.856 1179.94 463.236 1244.79 479.759C1309.64 496.282 1310.73 507.851 1379.4 513.91C1448.07 519.969 1481.65 522.495 1499.29 530.99C1510.74 536.492 1542.49 530.862 1592.63 556.969H-1.75098V464.717Z" fill="#EBF0F8"/>
<defs>
<filter id="filter0_f_2504_34534" x="-7.75098" y="0.983887" width="1932" height="562.164" filterUnits="userSpaceOnUse" color-interpolation-filters="sRGB">
<feFlood flood-opacity="0" result="BackgroundImageFix"/>
<feBlend mode="normal" in="SourceGraphic" in2="BackgroundImageFix" result="shape"/>
<feGaussianBlur stdDeviation="3" result="effect1_foregroundBlur_2504_34534"/>
</filter>
<linearGradient id="paint0_linear_2504_34534" x1="957.714" y1="6.98389" x2="957.71" y2="208.844" gradientUnits="userSpaceOnUse">
<stop stop-color="#D2DBE9"/>
<stop offset="1" stop-color="#EBF0F8"/>
</linearGradient>
<linearGradient id="paint1_linear_2504_34534" x1="1208.18" y1="539.956" x2="1282.69" y2="300.099" gradientUnits="userSpaceOnUse">
<stop stop-color="#D2DBE9"/>
<stop offset="1" stop-color="#EBF0F8"/>
</linearGradient>
<linearGradient id="paint2_linear_2504_34534" x1="1579.76" y1="271.753" x2="1622.21" y2="557.134" gradientUnits="userSpaceOnUse">
<stop stop-color="#D2DBE9"/>
<stop offset="1" stop-color="#EBF0F8"/>
</linearGradient>
<linearGradient id="paint3_linear_2504_34534" x1="843.734" y1="259.476" x2="777.165" y2="698.542" gradientUnits="userSpaceOnUse">
<stop stop-color="#D2DBE9"/>
<stop offset="1" stop-color="#EBF0F8"/>
</linearGradient>
</defs>
</svg>
