<svg width="16" height="15" viewBox="0 0 16 15" fill="none" xmlns="http://www.w3.org/2000/svg">
<path d="M10.0512 0.346199C11.5909 0.3462 12.9175 0.847158 14.031 1.84908C15.1444 2.85099 15.7012 4.10002 15.7012 5.59617C15.7012 7.09232 15.1444 8.34136 14.031 9.34327C12.9175 10.3452 11.5909 10.8461 10.0512 10.8461L3.155 10.8461L6.00502 13.6962L4.9512 14.75L0.297372 10.0962L4.9512 5.44235L6.00502 6.49617L3.155 9.3462L10.0512 9.3462C11.1717 9.3462 12.1435 8.99042 12.9666 8.27887C13.7897 7.56734 14.2012 6.67311 14.2012 5.59617C14.2012 4.51924 13.7897 3.62501 12.9666 2.91347C12.1435 2.20192 11.1717 1.84615 10.0512 1.84615L3.20122 1.84615L3.20122 0.346199L10.0512 0.346199Z" fill="#58595B"/>
</svg>