<?xml version="1.0" encoding="UTF-8"?><svg xmlns="http://www.w3.org/2000/svg" viewBox="0 0 71.05 71.05"><defs><style>.cls-1{fill:#ededee;}.cls-2{fill:#14477d;}.cls-3{fill:#6dcff6;}</style></defs><g id="CIRCLES"><circle class="cls-1" cx="35.48" cy="36.41" r="34.6"/></g><g id="ICONS"><path class="cls-2" d="m20.38,55.39v-11.6h-4.16c-1.65,0-2-.19-2-1.69v-23.08c0-2.31.38-2.57,2.68-2.57h36.88c2.3,0,2.95.38,2.95,2.68v22.14c0,2.31-.18,2.52-2.48,2.52h-22.42l-9.71,12.21c-.58.73-1.75.32-1.75-.61m-3.7-36.45v22.46l6.15-.06v9.83l7.82-9.83,23.42.02.09-22.45-37.49.03Z"/><path class="cls-3" d="m25.42,45.39c-.12,0-.22-.02-.3-.05-.26-.09-.7-.38-.7-1.28v-3.61c0-.37-.3-.67-.67-.67h-3.15c-1.11,0-2.02-.91-2.02-2.02v-15.35c0-1.11.91-2.02,2.02-2.02h29.77c1.11,0,2.02.91,2.02,2.02v15.35c0,1.11-.91,2.02-2.02,2.02h-18.91c-.53,0-1.32.38-1.66.8l-3.34,4.19c-.39.49-.76.62-1.04.62Zm-4.83-23.65c-.37,0-.67.3-.67.67v15.35c0,.37.3.67.67.67h3.15c1.11,0,2.02.91,2.02,2.02v3.03l2.98-3.74c.59-.75,1.76-1.31,2.71-1.31h18.91c.37,0,.67-.3.67-.67v-15.35c0-.37-.3-.67-.67-.67h-29.77Z"/></g></svg>