<svg width="72" height="72" viewBox="0 0 72 72" fill="none" xmlns="http://www.w3.org/2000/svg">
<path d="M24.3006 22.6C23.6706 22.5 23.0606 22.38 22.4806 22.26C22.4506 22.26 22.4206 22.25 22.3906 22.24C22.3606 22.24 22.3406 22.23 22.3106 22.22C20.9406 25.06 20.1306 28.06 19.8906 31.13H21.9006C22.1506 28.25 22.9906 25.39 24.4006 22.61C24.3606 22.61 24.3306 22.61 24.3006 22.6Z" fill="white"/>
<path d="M24.5403 43.29C24.5403 43.29 24.6103 43.29 24.6403 43.29C23.3503 40.66 21.8403 36.76 21.8203 32.83H19.8203C19.8203 36.2 20.7403 39.81 22.5303 43.57C22.5903 43.57 22.6503 43.55 22.7103 43.54C23.3903 43.44 23.9903 43.36 24.5403 43.3" fill="white"/>
<path d="M25.2701 44.91C24.5901 44.98 23.9901 45.05 23.4201 45.13C23.3901 45.13 23.3601 45.13 23.3301 45.14C23.6001 45.64 23.9001 46.13 24.1901 46.63C24.3501 46.72 24.5001 46.83 24.6501 46.92C25.5301 47.41 26.4701 47.81 27.4401 48.12C27.4601 48.12 27.4701 48.12 27.4801 48.13C27.0801 47.55 26.3101 46.4 25.4801 44.89C25.4101 44.89 25.3401 44.89 25.2701 44.91Z" fill="white"/>
<path d="M33.1403 17.17C33.0503 17.17 32.9603 17.16 32.8703 17.15C32.4803 17.12 32.0903 17.12 31.7003 17.15C31.6103 17.15 31.5203 17.16 31.4303 17.17C31.3803 17.17 31.3303 17.17 31.2803 17.18V21.56C31.2803 21.56 31.3803 21.56 31.4303 21.56C32.0003 21.58 32.5803 21.59 33.1403 21.59C33.1903 21.59 33.2303 21.59 33.2803 21.59V17.17C33.2303 17.17 33.1803 17.17 33.1303 17.16" fill="white"/>
<path d="M43.5803 30.03C43.9003 29.98 44.2203 29.96 44.5403 29.92C44.2203 27.43 43.5303 24.98 42.4603 22.64C42.4003 22.64 42.3403 22.66 42.2803 22.67C41.6403 22.76 41.0103 22.84 40.4203 22.91C40.3803 22.91 40.3503 22.91 40.3203 22.91C41.5003 25.29 42.2303 27.74 42.5603 30.2C42.8903 30.14 43.2303 30.08 43.5803 30.03Z" fill="white"/>
<path d="M31.29 48.83C31.29 48.83 31.39 48.83 31.44 48.84C31.53 48.84 31.62 48.85 31.71 48.86C31.81 48.86 31.9 48.86 32 48.86C32.16 48.66 32.32 48.46 32.47 48.27L31.95 46.56C31.73 45.92 31.58 45.25 31.48 44.57H31.43C31.43 44.57 31.34 44.57 31.29 44.57V48.82V48.83Z" fill="white"/>
<path d="M31.2903 42.88V43.16H31.3603C31.3603 43.07 31.3603 42.97 31.3603 42.88C31.3303 42.88 31.3103 42.88 31.2803 42.88H31.2903Z" fill="white"/>
<path d="M40.3598 19.35C39.2898 18.72 38.1898 18.22 37.0898 17.87C37.0798 17.87 37.0698 17.87 37.0498 17.87C37.4498 18.33 38.4098 19.53 39.4498 21.31C39.5198 21.31 39.5998 21.31 39.6698 21.29C40.3398 21.22 40.9698 21.15 41.5798 21.07C41.6098 21.07 41.6398 21.07 41.6698 21.06C41.4098 20.59 41.1498 20.14 40.8798 19.7C40.6998 19.59 40.5298 19.46 40.3498 19.36" fill="white"/>
<path d="M27.4299 17.89C26.3499 18.24 25.2699 18.73 24.2299 19.35C24.0499 19.46 23.8799 19.57 23.7099 19.68C23.5199 19.99 23.3199 20.31 23.1299 20.66C23.1699 20.66 23.1899 20.67 23.2299 20.68C23.8099 20.79 24.4299 20.9 25.0699 21C25.1399 21 25.2099 21.01 25.2799 21.02C26.2399 19.4 27.1099 18.31 27.4699 17.89C27.4599 17.89 27.4399 17.89 27.4299 17.9" fill="white"/>
<path d="M56.5802 29.28C56.0702 28.69 55.3302 28.36 54.5502 28.36C54.2402 28.36 53.9402 28.41 53.6502 28.52C52.8602 28.8 51.4102 29.24 49.4902 29.49C48.2902 23.73 44.2202 18.78 38.6002 16.62L38.5102 16.59C36.5202 15.83 34.4302 15.45 32.3002 15.45C30.1702 15.45 28.0802 15.83 26.0902 16.59L26.0202 16.62C19.2702 19.21 14.7402 25.8 14.7402 33.02C14.7402 42.17 21.7802 49.7 30.7202 50.51C30.5102 50.79 30.3002 51.05 30.0802 51.34C29.5502 52.05 29.3902 52.97 29.6702 53.81C29.9502 54.65 30.6202 55.3 31.4702 55.55L32.2002 55.77C32.4502 55.84 32.7102 55.88 32.9702 55.88C33.4202 55.88 33.8702 55.77 34.2702 55.55C34.6802 55.33 35.0202 55 35.2602 54.61C35.5602 54.13 36.2302 53.09 36.9402 52.17C37.0202 52.22 37.1002 52.25 37.1502 52.28C37.7902 52.58 38.4802 52.81 39.1902 52.98C40.0102 53.17 40.8702 53.27 41.7502 53.27C42.3302 53.27 42.9202 53.23 43.5102 53.14C44.8002 52.95 46.0702 52.56 47.3002 51.97C48.4802 51.4 49.5802 50.67 50.5602 49.8C50.7302 49.65 50.9102 49.48 51.0702 49.31C51.8802 48.49 52.5802 47.55 53.2002 46.43C53.7002 45.54 54.1302 44.55 54.5702 43.34C55.1902 41.61 55.7102 39.78 56.1602 37.73C56.5302 36.03 56.8602 34.19 57.1502 32.08C57.1902 31.81 57.2202 31.6 57.2402 31.41C57.3402 30.64 57.1102 29.86 56.5902 29.28H56.5802ZM23.7102 19.68C23.8802 19.57 24.0502 19.46 24.2302 19.35C25.2702 18.73 26.3402 18.25 27.4302 17.89C27.4402 17.89 27.4602 17.89 27.4702 17.88C28.6802 17.5 29.9602 17.26 31.3002 17.18C31.3502 17.18 31.4002 17.17 31.4502 17.17C31.5402 17.17 31.6302 17.16 31.7202 17.15C32.1102 17.12 32.5002 17.12 32.8902 17.15C32.9802 17.15 33.0702 17.16 33.1602 17.17C33.2102 17.17 33.2602 17.17 33.3102 17.18C34.6302 17.26 35.8902 17.49 37.0702 17.86C37.0802 17.86 37.0902 17.86 37.1102 17.86C38.2102 18.21 39.3102 18.71 40.3802 19.34C40.5602 19.45 40.7302 19.57 40.9102 19.68C41.4902 20.06 42.0602 20.46 42.5902 20.91C42.2902 20.96 42.0002 21 41.7002 21.03C41.6702 21.03 41.6402 21.03 41.6102 21.04C41.0002 21.12 40.3702 21.2 39.7002 21.26C39.6302 21.26 39.5502 21.26 39.4802 21.28C37.4302 21.48 35.3702 21.59 33.3202 21.58C33.2702 21.58 33.2302 21.58 33.1802 21.58C32.6102 21.58 32.0302 21.57 31.4602 21.55C31.4102 21.55 31.3602 21.55 31.3102 21.55C29.2302 21.47 27.2102 21.29 25.3002 21.01C25.2302 21 25.1602 21 25.0902 20.99C24.4502 20.89 23.8302 20.78 23.2502 20.67C23.2102 20.67 23.1902 20.66 23.1502 20.65C22.9202 20.6 22.7002 20.56 22.5102 20.52C22.8802 20.23 23.2902 19.95 23.7302 19.68H23.7102ZM18.1402 40.18C17.6902 39.3 17.3202 38.38 17.0502 37.43C16.6302 36.01 16.4202 34.52 16.4202 33.01C16.4202 32.95 16.4202 32.9 16.4202 32.84C16.4202 32.84 16.4202 32.83 16.4202 32.82H31.2902V31.13H16.5302C16.8402 28.53 17.8002 26.05 19.2902 23.91C19.7902 23.2 20.3502 22.52 20.9602 21.9C21.0302 21.92 21.1102 21.94 21.2102 21.97C21.4702 22.04 21.8502 22.13 22.3002 22.23C22.3302 22.23 22.3502 22.24 22.3802 22.25C22.4102 22.25 22.4402 22.26 22.4702 22.27C23.0402 22.39 23.6502 22.51 24.2902 22.61C24.3202 22.61 24.3602 22.61 24.3902 22.63C25.4602 22.8 26.5602 22.95 27.6902 23.06C28.8602 23.17 30.0602 23.25 31.2802 23.29C31.2802 23.29 31.3702 23.29 31.4202 23.29C32.0302 23.31 32.6002 23.32 33.1402 23.32H33.2802H33.3302C35.6102 23.32 37.9502 23.19 40.3002 22.93C40.3402 22.93 40.3702 22.93 40.4002 22.93C40.9902 22.86 41.6202 22.79 42.2602 22.69C42.3202 22.69 42.3802 22.67 42.4402 22.66C43.0002 22.58 43.5302 22.5 44.0502 22.41C45.9302 24.5 47.2002 26.98 47.7802 29.67C47.7702 29.67 47.7602 29.67 47.7502 29.67C46.6702 29.73 45.6002 29.82 44.5302 29.94C44.2102 29.98 43.8902 30 43.5702 30.05C43.2202 30.1 42.8802 30.16 42.5502 30.22C41.3502 30.45 40.2802 30.75 39.2902 31.15H33.2802V32.84H36.3402C35.1302 33.77 34.1102 34.94 33.2802 36.3C33.0302 36.72 32.7902 37.15 32.5802 37.6C31.9302 38.98 31.5202 40.49 31.3902 41.97C31.3602 42.27 31.3602 42.56 31.3602 42.86C31.3602 42.87 31.3602 42.88 31.3602 42.9C31.3602 42.99 31.3502 43.09 31.3602 43.18H31.2902V42.91C30.1802 42.91 29.0602 42.95 27.9302 43.02C26.8402 43.09 25.7302 43.19 24.6402 43.31C24.6102 43.31 24.5702 43.31 24.5402 43.31C23.9902 43.37 23.3902 43.45 22.7102 43.55C22.6402 43.55 22.5902 43.57 22.5302 43.58C21.8702 43.68 21.2802 43.77 20.7202 43.87C19.6802 42.76 18.8102 41.52 18.1402 40.2V40.18ZM31.4402 48.85C31.4402 48.85 31.3402 48.85 31.2902 48.84C30.6302 48.8 29.9802 48.72 29.3402 48.6C28.7102 48.48 28.0902 48.33 27.4902 48.14C27.4802 48.14 27.4602 48.14 27.4502 48.13C26.4802 47.82 25.5402 47.42 24.6602 46.93C24.5002 46.84 24.3502 46.74 24.2002 46.64C23.5402 46.24 22.8902 45.81 22.2802 45.31C22.6402 45.25 22.9902 45.2 23.3402 45.15C23.3702 45.15 23.4002 45.15 23.4302 45.14C24.0002 45.06 24.6002 44.99 25.2802 44.92C25.3502 44.92 25.4202 44.92 25.4902 44.9C27.4402 44.7 29.4002 44.59 31.3002 44.58C31.3502 44.58 31.3902 44.58 31.4402 44.58H31.4902C31.5902 45.26 31.7402 45.93 31.9602 46.57L32.4802 48.28C32.3302 48.47 32.1602 48.67 32.0102 48.87C31.9102 48.87 31.8202 48.87 31.7202 48.87C31.6302 48.87 31.5402 48.86 31.4502 48.85H31.4402ZM55.1602 31.82C54.6502 35.49 53.9402 39.18 52.6802 42.67C50.9202 47.53 46.7002 51.56 41.2502 51.26C40.1202 51.2 39.0002 50.95 37.9702 50.47C37.8902 50.43 37.4002 50.15 37.0202 49.92C37.0202 49.92 37.0202 49.92 37.0102 49.92C36.9002 49.85 36.7702 49.82 36.6402 49.82C36.4502 49.82 36.2502 49.9 36.1202 50.05C36.0802 50.1 36.0402 50.15 36.0002 50.19C35.0202 51.29 34.0302 52.81 33.5602 53.57C33.4302 53.78 33.2002 53.9 32.9602 53.9C32.8902 53.9 32.8302 53.9 32.7602 53.87L32.0302 53.65C31.5502 53.51 31.3702 52.94 31.6702 52.54C32.2002 51.84 32.7202 51.18 33.2302 50.54C33.7502 49.89 34.2602 49.27 34.7702 48.68C35.3502 48 35.9402 47.34 36.5302 46.71C36.8602 46.39 37.2102 46.05 37.6002 45.7C37.8602 45.47 38.1202 45.25 38.3902 45.03C38.9102 44.6 39.4302 44.19 39.9602 43.8C40.0702 43.72 40.1802 43.65 40.2902 43.58C40.7702 43.25 41.2402 42.91 41.7302 42.62C42.0802 42.41 42.4302 42.22 42.7802 42.03C43.9502 41.4 45.1502 40.88 46.3502 40.49C46.6202 40.4 46.8902 40.31 47.1702 40.23C47.7002 40.08 48.0102 39.53 47.8602 39C47.7702 38.69 47.5502 38.48 47.2802 38.36C47.0802 38.28 46.8602 38.24 46.6402 38.31C45.6802 38.58 44.7202 38.93 43.7602 39.34C42.8602 39.73 41.9702 40.19 41.0902 40.7C40.9602 40.77 40.8402 40.84 40.7102 40.91C39.6002 41.58 38.5202 42.35 37.4702 43.2C37.0702 43.53 36.6702 43.86 36.2802 44.21C36.0702 44.39 35.9002 44.57 35.7102 44.75C35.1302 45.3 34.6002 45.83 34.1702 46.29C34.1702 46.29 33.8502 45.55 33.8402 45.5C33.7502 45.21 33.6702 44.92 33.6102 44.63C33.4902 44.06 33.4302 43.49 33.4202 42.91C33.3602 38.9 35.9302 34.9 39.5602 33.21C39.8702 33.07 40.1802 32.94 40.4902 32.82C42.8502 31.95 45.4402 31.79 47.9302 31.64C48.6002 31.6 49.2302 31.53 49.8302 31.45C51.8402 31.18 53.4002 30.72 54.3602 30.38C54.4402 30.35 54.5202 30.34 54.6002 30.34C55.0102 30.34 55.3602 30.7 55.3002 31.14C55.2702 31.36 55.2402 31.58 55.2102 31.8L55.1602 31.82Z" fill="white"/>
<path d="M31.4307 23.27C32.0407 23.29 32.6107 23.3 33.1507 23.3C32.6007 23.3 32.0407 23.29 31.4307 23.27Z" fill="white"/>
<path d="M33.15 23.31C32.61 23.31 32.04 23.3 31.43 23.28C31.38 23.28 31.34 23.28 31.29 23.28V31.14V42.89C31.29 42.89 31.34 42.89 31.37 42.89C31.37 42.89 31.37 42.87 31.37 42.85C31.37 42.56 31.37 42.26 31.4 41.96C31.53 40.48 31.94 38.97 32.59 37.59C32.8 37.14 33.04 36.7 33.29 36.29V23.32H33.15V23.31Z" fill="white"/>
</svg>
