<svg width="19" height="19" viewBox="0 0 19 19" fill="none" xmlns="http://www.w3.org/2000/svg">
<mask id="mask0_9108_794" style="mask-type:luminance" maskUnits="userSpaceOnUse" x="0" y="0" width="19" height="19">
<path d="M19 0H0V19H19V0Z" fill="white"/>
</mask>
<g mask="url(#mask0_9108_794)">
<path d="M6.29134 4.75106V4.35522C6.07274 4.35522 5.89551 4.53245 5.89551 4.75106H6.29134ZM17.9025 4.75106H18.2983C18.2983 4.53245 18.1211 4.35522 17.9025 4.35522V4.75106ZM5.89551 10.5566C5.89551 10.7752 6.07274 10.9524 6.29134 10.9524C6.50995 10.9524 6.68717 10.7752 6.68717 10.5566H5.89551ZM7.51608 11.4802C7.29747 11.4802 7.12024 11.6575 7.12024 11.8761C7.12024 12.0947 7.29747 12.2719 7.51608 12.2719V11.4802ZM18.2983 11.3483V4.75106H17.5066V11.3483H18.2983ZM17.9025 4.35522H6.29134V5.14689H17.9025V4.35522ZM17.6259 4.46783L12.1891 9.7755L12.7421 10.342L18.179 5.03429L17.6259 4.46783ZM6.01484 5.03429L11.4517 10.342L12.0047 9.7755L6.56784 4.46783L6.01484 5.03429ZM5.89551 4.75106V10.5566H6.68717V4.75106H5.89551ZM7.51608 12.2719H10.023V11.4802H7.51608V12.2719ZM11.3425 12.2719H17.3747V11.4802H11.3425V12.2719ZM12.1891 9.7755C12.1378 9.82556 12.056 9.82556 12.0047 9.7755L11.4517 10.342C11.8105 10.6923 12.3833 10.6923 12.7421 10.342L12.1891 9.7755ZM17.5066 11.3483C17.5066 11.4211 17.4475 11.4802 17.3747 11.4802V12.2719C17.8848 12.2719 18.2983 11.8584 18.2983 11.3483H17.5066Z" fill="#14477D"/>
<path d="M5.55647 6.14694L3.70925 4.29971C3.36921 3.95967 2.81784 3.95967 2.47779 4.29971L1.55418 5.22332C1.55418 5.22332 -0.908803 7.99416 4.24803 13.151C9.40487 18.3078 12.1757 15.8449 12.1757 15.8449L13.0993 14.9213C13.4394 14.5812 13.4394 14.0299 13.0993 13.6898L11.2521 11.8426C10.912 11.5025 10.3607 11.5025 10.0206 11.8426L9.09699 12.7662C9.09699 12.7662 7.29326 11.886 6.40314 10.9959C5.51299 10.1058 4.63286 8.30204 4.63286 8.30204L5.55647 7.37843C5.89655 7.03835 5.89655 6.48701 5.55647 6.14694Z" stroke="#14477D" stroke-width="0.791667"/>
</g>
</svg>
