<svg width="22" height="22" viewBox="0 0 22 22" fill="none" xmlns="http://www.w3.org/2000/svg">
<mask id="mask0_3387_11304" style="mask-type:luminance" maskUnits="userSpaceOnUse" x="1" y="1" width="20" height="20">
<path d="M21 1H1V21H21V1Z" fill="white"/>
</mask>
<g mask="url(#mask0_3387_11304)">
<path d="M7.62712 5.99967V5.58301C7.397 5.58301 7.21045 5.76956 7.21045 5.99967H7.62712ZM19.8493 5.99967H20.266C20.266 5.76956 20.0794 5.58301 19.8493 5.58301V5.99967ZM7.21045 12.1108C7.21045 12.3409 7.397 12.5275 7.62712 12.5275C7.85723 12.5275 8.04378 12.3409 8.04378 12.1108H7.21045ZM8.91631 13.083C8.6862 13.083 8.49964 13.2696 8.49964 13.4997C8.49964 13.7298 8.6862 13.9163 8.91631 13.9163V13.083ZM20.266 12.9441V5.99967H19.4327V12.9441H20.266ZM19.8493 5.58301H7.62712V6.41634H19.8493V5.58301ZM19.5583 5.70154L13.8353 11.2886L14.4174 11.8849L20.1404 6.29781L19.5583 5.70154ZM7.33606 6.29781L13.0591 11.8849L13.6412 11.2886L7.91817 5.70154L7.33606 6.29781ZM7.21045 5.99967V12.1108H8.04378V5.99967H7.21045ZM8.91631 13.9163H11.5552V13.083H8.91631V13.9163ZM12.9441 13.9163H19.2938V13.083H12.9441V13.9163ZM13.8353 11.2886C13.7813 11.3413 13.6952 11.3413 13.6412 11.2886L13.0591 11.8849C13.4368 12.2536 14.0397 12.2536 14.4174 11.8849L13.8353 11.2886ZM19.4327 12.9441C19.4327 13.0208 19.3705 13.083 19.2938 13.083V13.9163C19.8307 13.9163 20.266 13.4811 20.266 12.9441H19.4327Z" fill="white"/>
<path d="M6.85617 7.48146L4.91172 5.53701C4.55378 5.17907 3.97339 5.17907 3.61545 5.53701L2.64322 6.50924C2.64322 6.50924 0.0506127 9.4259 5.47886 14.8542C10.9071 20.2824 13.8238 17.6898 13.8238 17.6898L14.796 16.7176C15.154 16.3596 15.154 15.7793 14.796 15.4213L12.8516 13.4768C12.4936 13.1189 11.9132 13.1189 11.5553 13.4768L10.583 14.4491C10.583 14.4491 8.68436 13.5226 7.74739 12.5857C6.81039 11.6487 5.88395 9.74998 5.88395 9.74998L6.85617 8.77776C7.21414 8.41979 7.21414 7.83943 6.85617 7.48146Z" stroke="white" stroke-width="0.833333"/>
</g>
</svg>
