<?xml version="1.0" encoding="UTF-8"?><svg xmlns="http://www.w3.org/2000/svg" viewBox="0 0 71.05 71.05"><defs><style>.cls-1{fill:#ededee;}.cls-2{fill:#14477d;}.cls-3{fill:#6dcff6;}</style></defs><g id="CIRCLES"><circle class="cls-1" cx="35.49" cy="35.7" r="34.6"/></g><g id="ICONS"><path class="cls-3" d="m50.38,33.43h-1.28s0,.03,0,.04v14.36h1.29c.21,0,.41-.05.6-.12v-14.19c-.19-.06-.39-.11-.6-.11Z"/><path class="cls-3" d="m21.89,33.43h-1.28c-.21,0-.41.04-.6.11v14.19c.18.07.37.11.58.11h1.31v-14.36s0-.03,0-.04Z"/><path class="cls-2" d="m53.81,35.59v-.27c0-1.76-1.33-3.19-3.03-3.39-.25-8.77-7.12-15.82-15.55-15.82s-15.37,7.11-15.56,15.93c-1.43.41-2.49,1.72-2.49,3.28v.27c-1.76.5-2.94,1.73-2.94,3.13v3.92c0,1.41,1.18,2.63,2.94,3.13v.06c0,1.94,1.52,3.53,3.43,3.55h2.66c1.89,0,3.43-1.54,3.43-3.43v-10.64c0-1.62-1.14-2.98-2.65-3.33.22-6.3,5.14-11.36,11.18-11.36s11.04,5.15,11.18,11.52c-1.25.52-2.12,1.74-2.12,3.17v10.64c0,1.71,1.26,3.12,2.9,3.38v2.75h-5.93c-.03-.93-.78-1.67-1.71-1.67h-7.02c-.95,0-1.72.77-1.72,1.72v1.45c0,.95.77,1.72,1.72,1.72h7.02c.93,0,1.69-.75,1.71-1.67h6.7c.43,0,.77-.35.77-.77v-3.47h1.69c1.87-.02,3.4-1.61,3.4-3.55v-.06c1.76-.5,2.94-1.73,2.94-3.13v-3.92c0-1.41-1.18-2.63-2.94-3.13Zm-36.64,8.56c-.84-.34-1.39-.91-1.39-1.51v-3.92c0-.6.55-1.17,1.39-1.51v6.94Zm22.54,9.43c0,.09-.08.17-.17.17h-7.02c-.09,0-.17-.08-.17-.17v-1.45c0-.09.08-.17.17-.17h7.02c.09,0,.17.08.17.17v1.45Zm-14.56-18.26v10.64c0,1.04-.85,1.89-1.89,1.89h-2.68c-.2,0-.39-.05-.58-.11-.75-.27-1.29-1.01-1.29-1.89v-10.52c0-.83.54-1.53,1.29-1.78.19-.06.39-.11.6-.11h2.66c1.04,0,1.89.85,1.89,1.89Zm10.08-16.24c-6.78,0-12.35,5.57-12.73,12.57h-1.29c.38-7.79,6.52-14,14.02-14s13.63,6.21,14.01,14h-1.29c-.38-7-5.94-12.57-12.72-12.57Zm17.04,17.12v9.64c0,.87-.54,1.61-1.29,1.89-.19.07-.39.11-.6.12h-2.66c-1.04,0-1.89-.85-1.89-1.89v-10.64c0-1.04.85-1.89,1.89-1.89h2.66c.21,0,.41.04.6.11.75.25,1.29.95,1.29,1.78v.88Zm2.94,6.45c0,.6-.55,1.17-1.39,1.51v-6.94c.84.34,1.39.91,1.39,1.51v3.92Z"/></g></svg>