<svg width="30" height="30" viewBox="0 0 30 30" fill="none" xmlns="http://www.w3.org/2000/svg">
<g id="2023_IRM_Icons_desk-white">
<path id="Vector" d="M19.15 16.25H18.3875C18.2709 16.25 18.1792 16.3417 18.1792 16.4583V17.2167C18.1792 17.3333 18.2709 17.425 18.3875 17.425H19.15C19.2667 17.425 19.3584 17.3333 19.3584 17.2167V16.4583C19.3584 16.3458 19.2667 16.25 19.15 16.25Z" fill="white"/>
<path id="Vector_2" d="M19.15 19.625H18.3875C18.2709 19.625 18.1792 19.7167 18.1792 19.8333V20.5917C18.1792 20.7083 18.2709 20.8 18.3875 20.8H19.15C19.2667 20.8 19.3584 20.7083 19.3584 20.5917V19.8333C19.3584 19.7167 19.2667 19.625 19.15 19.625Z" fill="white"/>
<path id="Vector_3" d="M15.7169 6.2041H8.69606C8.24606 6.2041 7.87939 6.57077 7.87939 7.02077V11.8083C7.87939 12.2583 8.24606 12.6291 8.69606 12.6291H10.7044V13.2666H11.7002V12.6291H12.7127V13.2666H13.7044V12.6291H15.7127C16.1627 12.6291 16.5377 12.2624 16.5377 11.8083V7.02077C16.5377 6.57077 16.1669 6.2041 15.7127 6.2041M15.5377 11.6333H8.87106V11.1124H15.5377V11.6333ZM15.5377 10.1166H8.87106V7.19994H15.5377V10.1166Z" fill="white"/>
<path id="Vector_4" d="M19.4375 9.66673C19.4375 9.6334 19.4084 9.6084 19.375 9.6084H18.6125C18.5834 9.6084 18.5542 9.6334 18.5542 9.66673V10.8126H19.4334V9.66673H19.4375Z" fill="white"/>
<path id="Vector_5" d="M20.8792 9.9C20.8792 9.9 20.8834 9.87083 20.8792 9.85417C20.8751 9.84167 20.8626 9.82917 20.8501 9.82083L20.1501 9.52917C20.1209 9.51667 20.0834 9.52917 20.0709 9.5625L19.5459 10.8125H20.5001L20.8834 9.9H20.8792Z" fill="white"/>
<path id="Vector_6" d="M21.017 13.25V13.925C21.017 13.9583 21.0045 13.9875 20.9836 14.0083H22.8253V14.7667H6.62529V14.0083H18.042C18.0211 13.9875 18.0045 13.9583 18.0045 13.925V13.25H5.86279V15.5292H6.61279V23.8H8.89196V15.5292H14.7211V22.2792H20.542V23.8H22.817V15.5292H23.5795V13.25H21.0128H21.017ZM8.13363 23.0375H7.37529V15.5292H8.13363V23.0375ZM22.0586 23.0375H21.3003V22.2792H22.0586V23.0375ZM22.0586 21.5167H15.4795V18.9H22.0586V21.5167ZM22.0586 18.1417H15.4795V15.525H22.0586V18.1417Z" fill="white"/>
<path id="Vector_7" d="M18.1209 14.0416H20.8959C20.9293 14.0416 20.9543 14.0291 20.9751 14.0083H18.0376C18.0584 14.0291 18.0876 14.0416 18.1168 14.0416H18.1209Z" fill="white"/>
<path id="Vector_8" d="M20.9005 10.8125H18.1255C18.063 10.8125 18.0088 10.8667 18.0088 10.9292V13.925C18.0088 13.9583 18.0213 13.9875 18.0463 14.0083H20.9838C21.0046 13.9875 21.0171 13.9583 21.0171 13.925V10.9292C21.0171 10.8625 20.9671 10.8125 20.9005 10.8125ZM19.0005 11.8083H20.0213V13.05H19.0005V11.8083Z" fill="white"/>
</g>
</svg>
