<svg width="72" height="72" viewBox="0 0 72 72" fill="none" xmlns="http://www.w3.org/2000/svg">
<path d="M45.9599 39H44.1299C43.8499 39 43.6299 39.22 43.6299 39.5V41.32C43.6299 41.6 43.8499 41.82 44.1299 41.82H45.9599C46.2399 41.82 46.4599 41.6 46.4599 41.32V39.5C46.4599 39.23 46.2399 39 45.9599 39Z" fill="white"/>
<path d="M45.9599 47.1H44.1299C43.8499 47.1 43.6299 47.32 43.6299 47.6V49.42C43.6299 49.7 43.8499 49.92 44.1299 49.92H45.9599C46.2399 49.92 46.4599 49.7 46.4599 49.42V47.6C46.4599 47.32 46.2399 47.1 45.9599 47.1Z" fill="white"/>
<path d="M37.7202 14.89H20.8702C19.7902 14.89 18.9102 15.77 18.9102 16.85V28.34C18.9102 29.42 19.7902 30.31 20.8702 30.31H25.6902V31.84H28.0802V30.31H30.5102V31.84H32.8902V30.31H37.7102C38.7902 30.31 39.6902 29.43 39.6902 28.34V16.85C39.6902 15.77 38.8002 14.89 37.7102 14.89M37.2902 27.92H21.2902V26.67H37.2902V27.92ZM37.2902 24.28H21.2902V17.28H37.2902V24.28Z" fill="white"/>
<path d="M46.6503 23.2C46.6503 23.12 46.5803 23.06 46.5003 23.06H44.6703C44.6003 23.06 44.5303 23.12 44.5303 23.2V25.95H46.6403V23.2H46.6503Z" fill="white"/>
<path d="M50.1102 23.76C50.1102 23.76 50.1202 23.69 50.1102 23.65C50.1002 23.62 50.0702 23.59 50.0402 23.57L48.3602 22.87C48.2902 22.84 48.2002 22.87 48.1702 22.95L46.9102 25.95H49.2002L50.1202 23.76H50.1102Z" fill="white"/>
<path d="M50.4403 31.8V33.42C50.4403 33.5 50.4103 33.57 50.3603 33.62H54.7803V35.44H15.9003V33.62H43.3003C43.2503 33.57 43.2103 33.5 43.2103 33.42V31.8H14.0703V37.27H15.8703V57.12H21.3403V37.27H35.3303V53.47H49.3003V57.12H54.7603V37.27H56.5903V31.8H50.4303H50.4403ZM19.5203 55.29H17.7003V37.27H19.5203V55.29ZM52.9403 55.29H51.1203V53.47H52.9403V55.29ZM52.9403 51.64H37.1503V45.36H52.9403V51.64ZM52.9403 43.54H37.1503V37.26H52.9403V43.54Z" fill="white"/>
<path d="M43.49 33.7H50.15C50.23 33.7 50.29 33.67 50.34 33.62H43.29C43.34 33.67 43.41 33.7 43.48 33.7H43.49Z" fill="white"/>
<path d="M50.1607 25.95H43.5007C43.3507 25.95 43.2207 26.08 43.2207 26.23V33.42C43.2207 33.5 43.2507 33.57 43.3107 33.62H50.3607C50.4107 33.57 50.4407 33.5 50.4407 33.42V26.23C50.4407 26.07 50.3207 25.95 50.1607 25.95ZM45.6007 28.34H48.0507V31.32H45.6007V28.34Z" fill="white"/>
</svg>
