<svg width="14" height="15" viewBox="0 0 14 15" fill="none" xmlns="http://www.w3.org/2000/svg">
<path d="M1.61537 15.0004C1.15512 15.0004 0.770833 14.8463 0.4625 14.5379C0.154167 14.2296 0 13.8453 0 13.3851V11.0004H1V13.3851C1 13.5389 1.0641 13.6799 1.1923 13.8081C1.32052 13.9363 1.46154 14.0004 1.61537 14.0004H12.3846C12.5385 14.0004 12.6795 13.9363 12.8077 13.8081C12.9359 13.6799 13 13.5389 13 13.3851V11.0004H14V13.3851C14 13.8453 13.8458 14.2296 13.5375 14.5379C13.2292 14.8463 12.8449 15.0004 12.3846 15.0004H1.61537ZM7 11.2312L3.46152 7.69275L4.16923 6.97352L6.5 9.3043V0.654297H7.5V9.3043L9.83078 6.97352L10.5385 7.69275L7 11.2312Z" fill="#fff"/>
</svg>
