<svg width="72" height="72" viewBox="0 0 72 72" fill="none" xmlns="http://www.w3.org/2000/svg">
<path d="M27.8798 45.41C25.8798 45.41 24.2598 47.04 24.2598 49.03C24.2598 51.02 25.8798 52.65 27.8798 52.65C29.8798 52.65 31.4998 51.03 31.4998 49.03C31.4998 47.03 29.8798 45.41 27.8798 45.41ZM27.8798 47.85C28.5298 47.85 29.0598 48.38 29.0598 49.03C29.0598 49.68 28.5298 50.21 27.8798 50.21C27.2298 50.21 26.6998 49.68 26.6998 49.03C26.6998 48.38 27.2298 47.85 27.8798 47.85Z" fill="#14477D"/>
<path d="M37.9999 45.41C36.0399 45.41 34.3799 47.07 34.3799 49.03C34.3799 50.99 36.0399 52.65 37.9999 52.65C39.9599 52.65 41.6199 50.99 41.6199 49.03C41.6199 47.07 39.9599 45.41 37.9999 45.41ZM37.9999 47.85C38.6299 47.85 39.1799 48.4 39.1799 49.03C39.1799 49.66 38.6299 50.21 37.9999 50.21C37.3699 50.21 36.8199 49.66 36.8199 49.03C36.8199 48.4 37.3699 47.85 37.9999 47.85Z" fill="#14477D"/>
<path d="M56.8502 17.84H46.6802C46.5202 17.84 46.3902 17.94 46.3402 18.09L44.3902 25.07H15.0302C14.9202 25.07 14.8102 25.12 14.7402 25.22C14.6702 25.32 14.6602 25.43 14.7002 25.54L21.1802 44.05C21.2302 44.19 21.3602 44.28 21.5102 44.28H44.7702C44.9202 44.28 45.0602 44.18 45.1002 44.03L51.1702 23.97H56.8502C57.0402 23.97 57.2002 23.81 57.2002 23.62V18.18C57.2002 17.99 57.0402 17.83 56.8502 17.83M22.7402 42.18L17.4802 27.15H45.7102C45.8702 27.15 46.0002 27.05 46.0502 26.9L48.0002 19.92H55.1102V21.88H49.8802C49.7302 21.88 49.5902 21.98 49.5502 22.13L43.4802 42.19H22.7502L22.7402 42.18Z" fill="#14477D"/>
<path d="M27.99 35.27H22.76C22.65 35.27 22.54 35.32 22.47 35.42C22.41 35.51 22.39 35.63 22.43 35.74L24.07 40.4C24.12 40.54 24.25 40.63 24.4 40.63H27.99C28.18 40.63 28.34 40.47 28.34 40.28V35.61C28.34 35.42 28.18 35.26 27.99 35.26M24.98 39.46L23.91 36.42H27.18V39.46H24.98Z" fill="#14477D"/>
<path d="M27.99 28.65H20.51C20.4 28.65 20.29 28.7 20.23 28.8C20.16 28.89 20.15 29.01 20.18 29.12L21.82 33.94C21.87 34.08 22 34.18 22.15 34.18H27.99C28.18 34.18 28.34 34.02 28.34 33.83V29.01C28.34 28.82 28.18 28.66 27.99 28.66M22.73 33.02L21.65 29.82H27.18V33.02H22.73Z" fill="#14477D"/>
<path d="M36.0797 35.26H29.7797C29.5897 35.26 29.4297 35.42 29.4297 35.61V40.27C29.4297 40.46 29.5897 40.62 29.7797 40.62H36.0797C36.2697 40.62 36.4297 40.46 36.4297 40.27V35.61C36.4297 35.42 36.2697 35.26 36.0797 35.26ZM30.5897 36.42H35.2597V39.46H30.5897V36.42Z" fill="#14477D"/>
<path d="M36.0797 28.65H29.7797C29.5897 28.65 29.4297 28.81 29.4297 29V33.74C29.4297 33.93 29.5897 34.09 29.7797 34.09H36.0797C36.2697 34.09 36.4297 33.93 36.4297 33.74V29C36.4297 28.81 36.2697 28.65 36.0797 28.65ZM30.5897 29.81H35.2597V32.93H30.5897V29.81Z" fill="#14477D"/>
<path d="M42.7706 35.27H37.9506C37.7606 35.27 37.6006 35.43 37.6006 35.62V40.29C37.6006 40.48 37.7606 40.64 37.9506 40.64H41.4706C41.6306 40.64 41.7606 40.54 41.8106 40.38L43.1106 35.72C43.1406 35.62 43.1106 35.5 43.0506 35.42C42.9806 35.33 42.8806 35.28 42.7706 35.28M38.7706 39.48V36.44H41.7006L40.8606 39.48H38.7706Z" fill="#14477D"/>
<path d="M44.9098 28.79C44.8498 28.7 44.7398 28.65 44.6298 28.65H37.9398C37.7498 28.65 37.5898 28.81 37.5898 29V33.82C37.5898 34.01 37.7498 34.17 37.9398 34.17H43.2498C43.3998 34.17 43.5398 34.07 43.5798 33.92L44.9598 29.1C44.9898 28.99 44.9598 28.88 44.8998 28.79M38.7498 33.01V29.81H43.5498L42.6398 33.01H38.7598H38.7498Z" fill="#14477D"/>
</svg>
