<svg width="30" height="30" viewBox="0 0 30 30" fill="none" xmlns="http://www.w3.org/2000/svg">
<g id="2023_IRM_Icons_clean global-white">
<path id="Vector" d="M10.1251 9.41663C9.8626 9.37497 9.60843 9.32497 9.36676 9.27497C9.35426 9.27497 9.34176 9.2708 9.32926 9.26663C9.31676 9.26663 9.30843 9.26247 9.29593 9.2583C8.7251 10.4416 8.3876 11.6916 8.2876 12.9708H9.1251C9.22926 11.7708 9.57926 10.5791 10.1668 9.4208C10.1501 9.4208 10.1376 9.4208 10.1251 9.41663Z" fill="white"/>
<path id="Vector_2" d="M10.225 18.0375C10.225 18.0375 10.2541 18.0375 10.2666 18.0375C9.72913 16.9417 9.09997 15.3167 9.09163 13.6792H8.2583C8.2583 15.0834 8.64163 16.5875 9.38747 18.1542C9.41247 18.1542 9.43747 18.1459 9.46247 18.1417C9.7458 18.1 9.9958 18.0667 10.225 18.0417" fill="white"/>
<path id="Vector_3" d="M10.529 18.7124C10.2457 18.7416 9.9957 18.7708 9.7582 18.8041C9.7457 18.8041 9.7332 18.8041 9.7207 18.8083C9.8332 19.0166 9.9582 19.2208 10.079 19.4291C10.1457 19.4666 10.2082 19.5124 10.2707 19.5499C10.6374 19.7541 11.029 19.9208 11.4332 20.0499C11.4415 20.0499 11.4457 20.0499 11.4499 20.0541C11.2832 19.8124 10.9624 19.3333 10.6165 18.7041C10.5874 18.7041 10.5582 18.7041 10.529 18.7124Z" fill="white"/>
<path id="Vector_4" d="M13.8087 7.15394C13.7712 7.15394 13.7337 7.14977 13.6962 7.14561C13.5337 7.13311 13.3712 7.13311 13.2087 7.14561C13.1712 7.14561 13.1337 7.14977 13.0962 7.15394C13.0754 7.15394 13.0545 7.15394 13.0337 7.15811V8.98311C13.0337 8.98311 13.0754 8.98311 13.0962 8.98311C13.3337 8.99144 13.5754 8.99561 13.8087 8.99561C13.8295 8.99561 13.8462 8.99561 13.867 8.99561V7.15394C13.8462 7.15394 13.8254 7.15394 13.8045 7.14977" fill="white"/>
<path id="Vector_5" d="M18.1586 12.5123C18.292 12.4914 18.4253 12.4831 18.5586 12.4664C18.4253 11.4289 18.1378 10.4081 17.692 9.43311C17.667 9.43311 17.642 9.44144 17.617 9.44561C17.3503 9.48311 17.0878 9.51644 16.842 9.54561C16.8253 9.54561 16.8128 9.54561 16.8003 9.54561C17.292 10.5373 17.5961 11.5581 17.7336 12.5831C17.8711 12.5581 18.0128 12.5331 18.1586 12.5123Z" fill="white"/>
<path id="Vector_6" d="M13.0376 20.3458C13.0376 20.3458 13.0793 20.3458 13.1001 20.35C13.1376 20.35 13.1751 20.3541 13.2126 20.3583C13.2543 20.3583 13.2918 20.3583 13.3334 20.3583C13.4001 20.275 13.4668 20.1916 13.5293 20.1125L13.3126 19.4C13.2209 19.1333 13.1584 18.8541 13.1168 18.5708H13.0959C13.0959 18.5708 13.0584 18.5708 13.0376 18.5708V20.3416V20.3458Z" fill="white"/>
<path id="Vector_7" d="M13.0379 17.8667V17.9834H13.067C13.067 17.9459 13.067 17.9042 13.067 17.8667C13.0545 17.8667 13.0462 17.8667 13.0337 17.8667H13.0379Z" fill="white"/>
<path id="Vector_8" d="M16.8167 8.06247C16.3708 7.79997 15.9125 7.59163 15.4542 7.4458C15.45 7.4458 15.4458 7.4458 15.4375 7.4458C15.6042 7.63747 16.0042 8.13747 16.4375 8.87913C16.4667 8.87913 16.5 8.87913 16.5292 8.8708C16.8083 8.84163 17.0708 8.81247 17.325 8.77913C17.3375 8.77913 17.35 8.77913 17.3625 8.77497C17.2542 8.57913 17.1458 8.39163 17.0333 8.2083C16.9583 8.16247 16.8875 8.1083 16.8125 8.06663" fill="white"/>
<path id="Vector_9" d="M11.4294 7.4541C10.9794 7.59993 10.5294 7.8041 10.096 8.06244C10.021 8.10827 9.9502 8.1541 9.87936 8.19994C9.8002 8.3291 9.71686 8.46244 9.6377 8.60827C9.65436 8.60827 9.6627 8.61244 9.67936 8.6166C9.92103 8.66244 10.1794 8.70827 10.446 8.74994C10.4752 8.74994 10.5044 8.7541 10.5335 8.75827C10.9335 8.08327 11.296 7.6291 11.446 7.4541C11.4419 7.4541 11.4335 7.4541 11.4294 7.45827" fill="white"/>
<path id="Vector_10" d="M23.5749 12.2C23.3624 11.9542 23.0541 11.8167 22.7291 11.8167C22.5999 11.8167 22.4749 11.8375 22.3541 11.8833C22.0249 12 21.4208 12.1833 20.6208 12.2875C20.1208 9.8875 18.4249 7.825 16.0833 6.925L16.0458 6.9125C15.2166 6.59583 14.3458 6.4375 13.4583 6.4375C12.5708 6.4375 11.6999 6.59583 10.8708 6.9125L10.8416 6.925C8.0291 8.00417 6.1416 10.75 6.1416 13.7583C6.1416 17.5708 9.07493 20.7083 12.7999 21.0458C12.7124 21.1625 12.6249 21.2708 12.5333 21.3917C12.3124 21.6875 12.2458 22.0708 12.3624 22.4208C12.4791 22.7708 12.7583 23.0417 13.1124 23.1458L13.4166 23.2375C13.5208 23.2667 13.6291 23.2833 13.7374 23.2833C13.9249 23.2833 14.1124 23.2375 14.2791 23.1458C14.4499 23.0542 14.5916 22.9167 14.6916 22.7542C14.8166 22.5542 15.0958 22.1208 15.3916 21.7375C15.4249 21.7583 15.4583 21.7708 15.4791 21.7833C15.7458 21.9083 16.0333 22.0042 16.3291 22.075C16.6708 22.1542 17.0291 22.1958 17.3958 22.1958C17.6374 22.1958 17.8833 22.1792 18.1291 22.1417C18.6666 22.0625 19.1958 21.9 19.7083 21.6542C20.1999 21.4167 20.6583 21.1125 21.0666 20.75C21.1374 20.6875 21.2124 20.6167 21.2791 20.5458C21.6166 20.2042 21.9083 19.8125 22.1666 19.3458C22.3749 18.975 22.5541 18.5625 22.7374 18.0583C22.9958 17.3375 23.2124 16.575 23.3999 15.7208C23.5541 15.0125 23.6916 14.2458 23.8124 13.3667C23.8291 13.2542 23.8416 13.1667 23.8499 13.0875C23.8916 12.7667 23.7958 12.4417 23.5791 12.2H23.5749ZM9.8791 8.2C9.94993 8.15417 10.0208 8.10833 10.0958 8.0625C10.5291 7.80417 10.9749 7.60417 11.4291 7.45417C11.4333 7.45417 11.4416 7.45417 11.4458 7.45C11.9499 7.29167 12.4833 7.19167 13.0416 7.15833C13.0624 7.15833 13.0833 7.15417 13.1041 7.15417C13.1416 7.15417 13.1791 7.15 13.2166 7.14583C13.3791 7.13333 13.5416 7.13333 13.7041 7.14583C13.7416 7.14583 13.7791 7.15 13.8166 7.15417C13.8374 7.15417 13.8583 7.15417 13.8791 7.15833C14.4291 7.19167 14.9541 7.2875 15.4458 7.44167C15.4499 7.44167 15.4541 7.44167 15.4624 7.44167C15.9208 7.5875 16.3791 7.79583 16.8249 8.05833C16.8999 8.10417 16.9708 8.15417 17.0458 8.2C17.2874 8.35833 17.5249 8.525 17.7458 8.7125C17.6208 8.73333 17.4999 8.75 17.3749 8.7625C17.3624 8.7625 17.3499 8.7625 17.3374 8.76667C17.0833 8.8 16.8208 8.83333 16.5416 8.85833C16.5124 8.85833 16.4791 8.85833 16.4499 8.86667C15.5958 8.95 14.7374 8.99583 13.8833 8.99167C13.8624 8.99167 13.8458 8.99167 13.8249 8.99167C13.5874 8.99167 13.3458 8.9875 13.1083 8.97917C13.0874 8.97917 13.0666 8.97917 13.0458 8.97917C12.1791 8.94583 11.3374 8.87083 10.5416 8.75417C10.5124 8.75 10.4833 8.75 10.4541 8.74583C10.1874 8.70417 9.9291 8.65833 9.68743 8.6125C9.67077 8.6125 9.66243 8.60833 9.64577 8.60417C9.54993 8.58333 9.45827 8.56667 9.3791 8.55C9.53327 8.42917 9.7041 8.3125 9.88743 8.2H9.8791ZM7.55827 16.7417C7.37077 16.375 7.2166 15.9917 7.1041 15.5958C6.9291 15.0042 6.8416 14.3833 6.8416 13.7542C6.8416 13.7292 6.8416 13.7083 6.8416 13.6833C6.8416 13.6833 6.8416 13.6792 6.8416 13.675H13.0374V12.9708H6.88743C7.0166 11.8875 7.4166 10.8542 8.03743 9.9625C8.24577 9.66667 8.4791 9.38333 8.73327 9.125C8.76243 9.13333 8.79577 9.14167 8.83743 9.15417C8.94577 9.18333 9.1041 9.22083 9.2916 9.2625C9.3041 9.2625 9.31243 9.26667 9.32493 9.27083C9.33743 9.27083 9.34993 9.275 9.36243 9.27917C9.59993 9.32917 9.8541 9.37917 10.1208 9.42083C10.1333 9.42083 10.1499 9.42083 10.1624 9.42917C10.6083 9.5 11.0666 9.5625 11.5374 9.60833C12.0249 9.65417 12.5249 9.6875 13.0333 9.70417C13.0333 9.70417 13.0708 9.70417 13.0916 9.70417C13.3458 9.7125 13.5833 9.71667 13.8083 9.71667H13.8666H13.8874C14.8374 9.71667 15.8124 9.6625 16.7916 9.55417C16.8083 9.55417 16.8208 9.55417 16.8333 9.55417C17.0791 9.525 17.3416 9.49583 17.6083 9.45417C17.6333 9.45417 17.6583 9.44583 17.6833 9.44167C17.9166 9.40833 18.1374 9.375 18.3541 9.3375C19.1374 10.2083 19.6666 11.2417 19.9083 12.3625C19.9041 12.3625 19.8999 12.3625 19.8958 12.3625C19.4458 12.3875 18.9999 12.425 18.5541 12.475C18.4208 12.4917 18.2874 12.5 18.1541 12.5208C18.0083 12.5417 17.8666 12.5667 17.7291 12.5917C17.2291 12.6875 16.7833 12.8125 16.3708 12.9792H13.8666V13.6833H15.1416C14.6374 14.0708 14.2124 14.5583 13.8666 15.125C13.7624 15.3 13.6624 15.4792 13.5749 15.6667C13.3041 16.2417 13.1333 16.8708 13.0791 17.4875C13.0666 17.6125 13.0666 17.7333 13.0666 17.8583C13.0666 17.8625 13.0666 17.8667 13.0666 17.875C13.0666 17.9125 13.0624 17.9542 13.0666 17.9917H13.0374V17.8792C12.5749 17.8792 12.1083 17.8958 11.6374 17.925C11.1833 17.9542 10.7208 17.9958 10.2666 18.0458C10.2541 18.0458 10.2374 18.0458 10.2249 18.0458C9.99577 18.0708 9.74577 18.1042 9.46243 18.1458C9.43327 18.1458 9.41243 18.1542 9.38743 18.1583C9.11243 18.2 8.8666 18.2375 8.63327 18.2792C8.19993 17.8167 7.83743 17.3 7.55827 16.75V16.7417ZM13.0999 20.3542C13.0999 20.3542 13.0583 20.3542 13.0374 20.35C12.7624 20.3333 12.4916 20.3 12.2249 20.25C11.9624 20.2 11.7041 20.1375 11.4541 20.0583C11.4499 20.0583 11.4416 20.0583 11.4374 20.0542C11.0333 19.925 10.6416 19.7583 10.2749 19.5542C10.2083 19.5167 10.1458 19.475 10.0833 19.4333C9.80827 19.2667 9.53743 19.0875 9.28327 18.8792C9.43327 18.8542 9.5791 18.8333 9.72494 18.8125C9.73743 18.8125 9.74994 18.8125 9.76243 18.8083C9.99993 18.775 10.2499 18.7458 10.5333 18.7167C10.5624 18.7167 10.5916 18.7167 10.6208 18.7083C11.4333 18.625 12.2499 18.5792 13.0416 18.575C13.0624 18.575 13.0791 18.575 13.0999 18.575H13.1208C13.1624 18.8583 13.2249 19.1375 13.3166 19.4042L13.5333 20.1167C13.4708 20.1958 13.3999 20.2792 13.3374 20.3625C13.2958 20.3625 13.2583 20.3625 13.2166 20.3625C13.1791 20.3625 13.1416 20.3583 13.1041 20.3542H13.0999ZM22.9833 13.2583C22.7708 14.7875 22.4749 16.325 21.9499 17.7792C21.2166 19.8042 19.4583 21.4833 17.1874 21.3583C16.7166 21.3333 16.2499 21.2292 15.8208 21.0292C15.7874 21.0125 15.5833 20.8958 15.4249 20.8C15.4249 20.8 15.4249 20.8 15.4208 20.8C15.3749 20.7708 15.3208 20.7583 15.2666 20.7583C15.1874 20.7583 15.1041 20.7917 15.0499 20.8542C15.0333 20.875 15.0166 20.8958 14.9999 20.9125C14.5916 21.3708 14.1791 22.0042 13.9833 22.3208C13.9291 22.4083 13.8333 22.4583 13.7333 22.4583C13.7041 22.4583 13.6791 22.4583 13.6499 22.4458L13.3458 22.3542C13.1458 22.2958 13.0708 22.0583 13.1958 21.8917C13.4166 21.6 13.6333 21.325 13.8458 21.0583C14.0624 20.7875 14.2749 20.5292 14.4874 20.2833C14.7291 20 14.9749 19.725 15.2208 19.4625C15.3583 19.3292 15.5041 19.1875 15.6666 19.0417C15.7749 18.9458 15.8833 18.8542 15.9958 18.7625C16.2124 18.5833 16.4291 18.4125 16.6499 18.25C16.6958 18.2167 16.7416 18.1875 16.7874 18.1583C16.9874 18.0208 17.1833 17.8792 17.3874 17.7583C17.5333 17.6708 17.6791 17.5917 17.8249 17.5125C18.3124 17.25 18.8124 17.0333 19.3124 16.8708C19.4249 16.8333 19.5374 16.7958 19.6541 16.7625C19.8749 16.7 20.0041 16.4708 19.9416 16.25C19.9041 16.1208 19.8124 16.0333 19.6999 15.9833C19.6166 15.95 19.5249 15.9333 19.4333 15.9625C19.0333 16.075 18.6333 16.2208 18.2333 16.3917C17.8583 16.5542 17.4874 16.7458 17.1208 16.9583C17.0666 16.9875 17.0166 17.0167 16.9624 17.0458C16.4999 17.325 16.0499 17.6458 15.6124 18C15.4458 18.1375 15.2791 18.275 15.1166 18.4208C15.0291 18.4958 14.9583 18.5708 14.8791 18.6458C14.6374 18.875 14.4166 19.0958 14.2374 19.2875C14.2374 19.2875 14.1041 18.9792 14.0999 18.9583C14.0624 18.8375 14.0291 18.7167 14.0041 18.5958C13.9541 18.3583 13.9291 18.1208 13.9249 17.8792C13.8999 16.2083 14.9708 14.5417 16.4833 13.8375C16.6124 13.7792 16.7416 13.725 16.8708 13.675C17.8541 13.3125 18.9333 13.2458 19.9708 13.1833C20.2499 13.1667 20.5124 13.1375 20.7624 13.1042C21.5999 12.9917 22.2499 12.8 22.6499 12.6583C22.6833 12.6458 22.7166 12.6417 22.7499 12.6417C22.9208 12.6417 23.0666 12.7917 23.0416 12.975C23.0291 13.0667 23.0166 13.1583 23.0041 13.25L22.9833 13.2583Z" fill="white"/>
<path id="Vector_11" d="M13.0962 9.6958C13.3504 9.70413 13.5879 9.7083 13.8129 9.7083C13.5837 9.7083 13.3504 9.70413 13.0962 9.6958Z" fill="white"/>
<path id="Vector_12" d="M13.8126 9.71269C13.5876 9.71269 13.3501 9.70853 13.0959 9.7002C13.0751 9.7002 13.0584 9.7002 13.0376 9.7002V12.9752V17.871C13.0376 17.871 13.0584 17.871 13.0709 17.871C13.0709 17.871 13.0709 17.8627 13.0709 17.8544C13.0709 17.7335 13.0709 17.6085 13.0834 17.4835C13.1376 16.8669 13.3084 16.2377 13.5793 15.6627C13.6668 15.4752 13.7668 15.2919 13.8709 15.121V9.71686H13.8126V9.71269Z" fill="white"/>
</g>
</svg>
