<svg width="72" height="72" viewBox="0 0 72 72" fill="none" xmlns="http://www.w3.org/2000/svg">
<path d="M48.4204 34.88C48.4304 39.76 46.5704 44.61 44.6904 48.24C45.5504 48.38 46.3004 48.52 46.9404 48.65C48.7704 44.96 50.5304 40.04 50.5104 34.87H48.4104L48.4204 34.88Z" fill="#14477D"/>
<path d="M46.8201 20.88C46.3301 19.98 45.8501 19.17 45.3901 18.47C44.1301 17.72 42.7901 17.1 41.3701 16.65C41.8701 17.23 43.1501 18.8 44.4901 21.15C45.2501 21.07 46.0301 20.98 46.8201 20.88Z" fill="#14477D"/>
<path d="M48.3301 33.16H50.4401C50.1401 28.96 48.9701 25.35 47.6301 22.5C46.8601 22.61 46.1101 22.7 45.3701 22.79C46.7601 25.57 48.0101 29.12 48.3401 33.17L48.3301 33.16Z" fill="#14477D"/>
<path d="M41.1904 53.96C42.4804 53.57 43.7004 53.04 44.8604 52.4C45.2504 51.77 45.6704 51.06 46.1104 50.25C45.4504 50.12 44.6804 49.99 43.8104 49.86C42.6604 51.88 41.6304 53.34 41.1904 53.95V53.96Z" fill="#14477D"/>
<path d="M24.6201 49.9C25.1301 50.85 25.6201 51.68 26.0701 52.4C27.1601 53 28.3001 53.49 29.5001 53.88C28.9601 53.11 27.9601 51.61 26.8801 49.63C26.1401 49.71 25.3901 49.8 24.6201 49.9Z" fill="#14477D"/>
<path d="M22.5006 34.88H20.4006C20.3806 39.88 22.0306 44.64 23.7906 48.29C24.5406 48.18 25.2906 48.08 26.0206 48C24.2206 44.37 22.4906 39.62 22.5006 34.88Z" fill="#14477D"/>
<path d="M25.7305 22.41C24.8805 22.27 24.1405 22.13 23.5205 22C22.0905 24.92 20.8005 28.72 20.4805 33.17H22.5905C22.9305 28.94 24.2805 25.25 25.7305 22.42V22.41Z" fill="#14477D"/>
<path d="M29.4704 16.68C28.0804 17.13 26.7704 17.74 25.5304 18.47C25.1604 19.04 24.7604 19.69 24.3604 20.4C25.0004 20.53 25.7604 20.66 26.6104 20.79C27.8404 18.69 28.9804 17.25 29.4604 16.68H29.4704Z" fill="#14477D"/>
<path d="M34.4102 15.79V21.5C35.0902 21.52 35.7902 21.54 36.5102 21.54V15.79C36.1602 15.77 35.8102 15.74 35.4602 15.74C35.1102 15.74 34.7602 15.77 34.4102 15.79Z" fill="#14477D"/>
<path d="M34.4102 54.77C34.7602 54.79 35.1102 54.82 35.4602 54.82C35.8102 54.82 36.1602 54.79 36.5102 54.77V49.25C35.8302 49.23 35.1302 49.22 34.4102 49.22V54.77Z" fill="#14477D"/>
<path d="M34.4102 33.16V47.48C35.1302 47.48 35.8302 47.48 36.5102 47.5V23.27C35.7902 23.27 35.0902 23.25 34.4102 23.23V33.16Z" fill="#14477D"/>
<path d="M43.0702 15.43C43.0702 15.43 43.0102 15.41 42.9802 15.39C40.6402 14.5 38.1102 14.01 35.4602 14.01C32.8102 14.01 30.2802 14.5 27.9402 15.39C27.9102 15.4 27.8802 15.41 27.8502 15.43C19.8802 18.5 14.2002 26.23 14.2002 35.28C14.2002 47 23.7402 56.54 35.4602 56.54C47.1802 56.54 56.7202 47 56.7202 35.28C56.7202 26.24 51.0402 18.5 43.0702 15.43ZM25.5402 18.47C26.7702 17.74 28.0902 17.13 29.4802 16.68C31.0502 16.17 32.7102 15.88 34.4202 15.79C34.7702 15.77 35.1202 15.74 35.4702 15.74C35.8202 15.74 36.1702 15.77 36.5202 15.79C38.2002 15.88 39.8302 16.16 41.3702 16.65C42.7902 17.1 44.1302 17.72 45.3902 18.47C46.4602 19.1 47.4602 19.83 48.3902 20.65C47.8602 20.73 47.3402 20.81 46.8302 20.87C46.0402 20.98 45.2602 21.06 44.5002 21.14C41.6302 21.43 38.9602 21.54 36.5302 21.53C35.8102 21.53 35.1102 21.51 34.4302 21.49C31.3202 21.38 28.6902 21.1 26.6402 20.78C25.7902 20.65 25.0302 20.52 24.3902 20.39C23.9102 20.3 23.5002 20.21 23.1402 20.13C23.9002 19.51 24.7102 18.96 25.5602 18.46L25.5402 18.47ZM44.8602 52.4C43.7002 53.04 42.4702 53.56 41.1902 53.96C39.7002 54.42 38.1302 54.68 36.5102 54.77C36.1602 54.79 35.8102 54.82 35.4602 54.82C35.1102 54.82 34.7602 54.79 34.4102 54.77C32.7102 54.68 31.0502 54.39 29.4902 53.88C28.2902 53.49 27.1402 53 26.0602 52.4C24.9102 51.76 23.8302 51.01 22.8302 50.16C23.4302 50.06 24.0302 49.97 24.6102 49.89C25.3802 49.79 26.1302 49.7 26.8702 49.62C29.5902 49.33 32.1102 49.21 34.4102 49.21C35.1302 49.21 35.8302 49.21 36.5102 49.24C39.4002 49.32 41.8502 49.57 43.8102 49.86C44.6802 49.99 45.4502 50.12 46.1102 50.25C46.6802 50.36 47.1802 50.47 47.5902 50.56C46.7302 51.24 45.8202 51.86 44.8602 52.39V52.4ZM49.1602 49.19C48.7202 49.06 47.9702 48.87 46.9502 48.65C46.3102 48.51 45.5502 48.37 44.7002 48.24C42.5802 47.9 39.8202 47.59 36.5202 47.51C35.8402 47.49 35.1402 47.49 34.4202 47.49C31.8802 47.49 29.0802 47.64 26.0302 48C25.3002 48.08 24.5602 48.18 23.8002 48.29C22.9902 48.41 22.1702 48.53 21.3302 48.68C21.3202 48.68 21.3102 48.69 21.3002 48.69C17.9802 45.19 15.9302 40.47 15.9302 35.28C15.9302 35.15 15.9502 35.01 15.9502 34.88H34.4202V33.16H16.0502C16.5402 28.65 18.5702 24.59 21.6002 21.53C21.9802 21.63 22.6402 21.8 23.5402 21.99C24.1602 22.12 24.8902 22.26 25.7502 22.4C27.9502 22.76 30.8902 23.11 34.4302 23.23C35.1102 23.25 35.8102 23.27 36.5302 23.27C36.6102 23.27 36.6902 23.27 36.7702 23.27C39.3802 23.27 42.2702 23.13 45.3902 22.78C46.1302 22.7 46.8902 22.6 47.6502 22.49C48.3902 22.38 49.1502 22.27 49.9202 22.14C52.6402 25.12 54.4502 28.93 54.9102 33.16H36.5402V34.88H55.0102C55.0102 35.01 55.0302 35.14 55.0302 35.28C55.0302 40.72 52.7902 45.65 49.1902 49.2L49.1602 49.19Z" fill="#14477D"/>
</svg>
