<svg width="72" height="72" viewBox="0 0 72 72" fill="none" xmlns="http://www.w3.org/2000/svg">
<path d="M48.5497 48.6H48.1497C47.9097 48.6 47.7197 48.79 47.7197 49.03C47.7197 49.27 47.9097 49.46 48.1497 49.46H48.5497C48.7897 49.46 48.9797 49.27 48.9797 49.03C48.9797 48.79 48.7897 48.6 48.5497 48.6Z" fill="white"/>
<path d="M50.3798 48.6H49.9798C49.7398 48.6 49.5498 48.79 49.5498 49.03C49.5498 49.27 49.7398 49.46 49.9798 49.46H50.3798C50.6198 49.46 50.8098 49.27 50.8098 49.03C50.8098 48.79 50.6198 48.6 50.3798 48.6Z" fill="white"/>
<path d="M52.2099 48.6H51.8099C51.5699 48.6 51.3799 48.79 51.3799 49.03C51.3799 49.27 51.5699 49.46 51.8099 49.46H52.2099C52.4499 49.46 52.6399 49.27 52.6399 49.03C52.6399 48.79 52.4499 48.6 52.2099 48.6Z" fill="white"/>
<path d="M16.7497 45.16L54.3797 45.07C54.8097 45.07 55.1497 44.72 55.1497 44.3V21.9C55.1497 20.3 53.8497 18.99 52.2397 18.99H18.8797C17.2797 18.99 15.9697 20.29 15.9697 21.9V44.39C15.9697 44.6 16.0497 44.79 16.1997 44.94C16.3497 45.09 16.5397 45.17 16.7497 45.17V45.16ZM17.5197 21.89C17.5197 21.14 18.1297 20.53 18.8797 20.53H52.2397C52.9897 20.53 53.5997 21.14 53.5997 21.89V43.52L17.5197 43.61V21.89Z" fill="white"/>
<path d="M54.9898 45.88H16.1398C15.1298 45.88 14.2998 46.71 14.2998 47.72V48.09C14.2998 49.53 16.3898 52.18 19.3698 52.18H51.7398C54.8398 52.18 56.8098 49.5 56.8098 48.09V47.71C56.8098 46.7 55.9798 45.87 54.9698 45.87L54.9898 45.88ZM39.5198 47.44L39.2998 47.99C39.2098 48.23 38.9698 48.39 38.7098 48.39H32.4398C32.1798 48.39 31.9398 48.23 31.8498 47.99L31.6298 47.44H39.5298H39.5198ZM55.2798 48.09C55.2798 48.63 53.9998 50.63 51.7598 50.63H19.3798C17.2798 50.63 15.8598 48.73 15.8598 48.09V47.72C15.8598 47.56 15.9898 47.43 16.1498 47.43H30.0898C30.0898 47.63 30.1098 47.83 30.1898 48.02L30.4098 48.57C30.7298 49.39 31.5498 49.94 32.4398 49.94H38.7098C39.5998 49.94 40.4198 49.39 40.7398 48.56L40.9598 48.02C41.0398 47.83 41.0598 47.63 41.0598 47.43H54.9998C55.1598 47.43 55.2898 47.56 55.2898 47.72V48.09H55.2798Z" fill="white"/>
<path d="M50.4103 21.5H20.7103C19.5103 21.5 18.5303 22.43 18.5303 23.58V40.87C18.5303 42.02 19.5103 42.95 20.7103 42.95H50.4103C51.6103 42.95 52.5903 42.02 52.5903 40.87V23.58C52.5903 22.43 51.6103 21.5 50.4103 21.5ZM50.7003 40.88C50.7003 40.97 50.5703 41.07 50.4103 41.07H20.7103C20.5503 41.07 20.4203 40.97 20.4203 40.88V23.59C20.4203 23.5 20.5403 23.4 20.7103 23.4H50.4103C50.5803 23.4 50.7003 23.5 50.7003 23.59V40.88Z" fill="white"/>
<path d="M39.0894 38.42H32.0294C31.7994 38.42 31.6094 38.23 31.6094 38C31.6094 37.77 31.7994 37.58 32.0294 37.58H39.0894C39.3194 37.58 39.5094 37.77 39.5094 38C39.5094 38.23 39.3194 38.42 39.0894 38.42Z" fill="white"/>
<path d="M39.0894 36.14H32.0294C31.7994 36.14 31.6094 35.95 31.6094 35.72C31.6094 35.49 31.7994 35.3 32.0294 35.3H39.0894C39.3194 35.3 39.5094 35.49 39.5094 35.72C39.5094 35.95 39.3194 36.14 39.0894 36.14Z" fill="white"/>
<path d="M39.0894 33.86H32.0294C31.7994 33.86 31.6094 33.67 31.6094 33.44C31.6094 33.21 31.7994 33.02 32.0294 33.02H39.0894C39.3194 33.02 39.5094 33.21 39.5094 33.44C39.5094 33.67 39.3194 33.86 39.0894 33.86Z" fill="white"/>
<path d="M39.0894 31.57H32.0294C31.7994 31.57 31.6094 31.38 31.6094 31.15C31.6094 30.92 31.7994 30.73 32.0294 30.73H39.0894C39.3194 30.73 39.5094 30.92 39.5094 31.15C39.5094 31.38 39.3194 31.57 39.0894 31.57Z" fill="white"/>
<path d="M39.0894 27.01H35.8194C35.5894 27.01 35.3994 26.82 35.3994 26.59C35.3994 26.36 35.5894 26.17 35.8194 26.17H39.0894C39.3194 26.17 39.5094 26.36 39.5094 26.59C39.5094 26.82 39.3194 27.01 39.0894 27.01Z" fill="white"/>
<path d="M39.0894 29.29H35.8194C35.5894 29.29 35.3994 29.1 35.3994 28.87C35.3994 28.64 35.5894 28.45 35.8194 28.45H39.0894C39.3194 28.45 39.5094 28.64 39.5094 28.87C39.5094 29.1 39.3194 29.29 39.0894 29.29Z" fill="white"/>
<path d="M34.3601 29.27H31.9001C31.7401 29.27 31.6201 29.14 31.6201 28.99V26.47C31.6201 26.31 31.7501 26.19 31.9001 26.19H34.3601C34.5201 26.19 34.6401 26.32 34.6401 26.47V28.99C34.6401 29.15 34.5101 29.27 34.3601 29.27ZM32.1901 28.7H34.0801V26.74H32.1901V28.7Z" fill="white"/>
<path d="M41.48 24.25C41.41 24.18 41.31 24.14 41.21 24.14L38.39 24.16H29.92C29.71 24.16 29.54 24.33 29.54 24.54V40.07C29.54 40.28 29.71 40.45 29.92 40.45H41.22C41.43 40.45 41.6 40.28 41.6 40.07V24.52C41.6 24.42 41.56 24.32 41.49 24.25H41.48ZM40.83 31.04V39.69H30.29V24.91H38.39L40.83 24.89V31.03V31.04Z" fill="white"/>
</svg>
