<svg width="40" height="40" viewBox="0 0 40 40" fill="none" xmlns="http://www.w3.org/2000/svg">
<g id="2023_IRM_Icons_laptop, document-white">
<path id="Vector" d="M26.9719 27H26.7496C26.6163 27 26.5107 27.1056 26.5107 27.2389C26.5107 27.3722 26.6163 27.4778 26.7496 27.4778H26.9719C27.1052 27.4778 27.2107 27.3722 27.2107 27.2389C27.2107 27.1056 27.1052 27 26.9719 27Z" fill="white"/>
<path id="Vector_2" d="M27.9889 27H27.7667C27.6334 27 27.5278 27.1056 27.5278 27.2389C27.5278 27.3722 27.6334 27.4778 27.7667 27.4778H27.9889C28.1223 27.4778 28.2278 27.3722 28.2278 27.2389C28.2278 27.1056 28.1223 27 27.9889 27Z" fill="white"/>
<path id="Vector_3" d="M29.0055 27H28.7833C28.65 27 28.5444 27.1056 28.5444 27.2389C28.5444 27.3722 28.65 27.4778 28.7833 27.4778H29.0055C29.1389 27.4778 29.2444 27.3722 29.2444 27.2389C29.2444 27.1056 29.1389 27 29.0055 27Z" fill="white"/>
<path id="Vector_4" d="M9.3054 25.0887L30.211 25.0387C30.4498 25.0387 30.6387 24.8442 30.6387 24.6109V12.1665C30.6387 11.2776 29.9165 10.5498 29.0221 10.5498H10.4887C9.59985 10.5498 8.87207 11.272 8.87207 12.1665V24.6609C8.87207 24.7776 8.91651 24.8831 8.99985 24.9665C9.08318 25.0498 9.18874 25.0942 9.3054 25.0942V25.0887ZM9.73318 12.1609C9.73318 11.7442 10.0721 11.4054 10.4887 11.4054H29.0221C29.4387 11.4054 29.7776 11.7442 29.7776 12.1609V24.1776L9.73318 24.2276V12.1609Z" fill="white"/>
<path id="Vector_5" d="M30.5499 25.489H8.96656C8.40545 25.489 7.94434 25.9501 7.94434 26.5112V26.7167C7.94434 27.5167 9.10545 28.989 10.761 28.989H28.7443C30.4666 28.989 31.561 27.5001 31.561 26.7167V26.5056C31.561 25.9445 31.0999 25.4834 30.5388 25.4834L30.5499 25.489ZM21.9554 26.3556L21.8332 26.6612C21.7832 26.7945 21.6499 26.8834 21.5054 26.8834H18.0221C17.8777 26.8834 17.7443 26.7945 17.6943 26.6612L17.5721 26.3556H21.961H21.9554ZM30.711 26.7167C30.711 27.0167 29.9999 28.1278 28.7554 28.1278H10.7666C9.59989 28.1278 8.811 27.0723 8.811 26.7167V26.5112C8.811 26.4223 8.88322 26.3501 8.97211 26.3501H16.7166C16.7166 26.4612 16.7277 26.5723 16.7721 26.6778L16.8943 26.9834C17.0721 27.439 17.5277 27.7445 18.0221 27.7445H21.5054C21.9999 27.7445 22.4554 27.439 22.6332 26.9778L22.7554 26.6778C22.7999 26.5723 22.811 26.4612 22.811 26.3501H30.5554C30.6443 26.3501 30.7166 26.4223 30.7166 26.5112V26.7167H30.711Z" fill="white"/>
<path id="Vector_6" d="M28.0055 11.9443H11.5055C10.8389 11.9443 10.2944 12.461 10.2944 13.0999V22.7054C10.2944 23.3443 10.8389 23.861 11.5055 23.861H28.0055C28.6722 23.861 29.2167 23.3443 29.2167 22.7054V13.0999C29.2167 12.461 28.6722 11.9443 28.0055 11.9443ZM28.1667 22.711C28.1667 22.761 28.0944 22.8166 28.0055 22.8166H11.5055C11.4167 22.8166 11.3444 22.761 11.3444 22.711V13.1054C11.3444 13.0554 11.4111 12.9999 11.5055 12.9999H28.0055C28.1 12.9999 28.1667 13.0554 28.1667 13.1054V22.711Z" fill="white"/>
<path id="Vector_7" d="M21.7161 21.3446H17.7939C17.6661 21.3446 17.5605 21.239 17.5605 21.1113C17.5605 20.9835 17.6661 20.8779 17.7939 20.8779H21.7161C21.8439 20.8779 21.9494 20.9835 21.9494 21.1113C21.9494 21.239 21.8439 21.3446 21.7161 21.3446Z" fill="white"/>
<path id="Vector_8" d="M21.7161 20.078H17.7939C17.6661 20.078 17.5605 19.9724 17.5605 19.8447C17.5605 19.7169 17.6661 19.6113 17.7939 19.6113H21.7161C21.8439 19.6113 21.9494 19.7169 21.9494 19.8447C21.9494 19.9724 21.8439 20.078 21.7161 20.078Z" fill="white"/>
<path id="Vector_9" d="M21.7161 18.8109H17.7939C17.6661 18.8109 17.5605 18.7053 17.5605 18.5776C17.5605 18.4498 17.6661 18.3442 17.7939 18.3442H21.7161C21.8439 18.3442 21.9494 18.4498 21.9494 18.5776C21.9494 18.7053 21.8439 18.8109 21.7161 18.8109Z" fill="white"/>
<path id="Vector_10" d="M21.7161 17.5389H17.7939C17.6661 17.5389 17.5605 17.4334 17.5605 17.3056C17.5605 17.1778 17.6661 17.0723 17.7939 17.0723H21.7161C21.8439 17.0723 21.9494 17.1778 21.9494 17.3056C21.9494 17.4334 21.8439 17.5389 21.7161 17.5389Z" fill="white"/>
<path id="Vector_11" d="M21.7165 15.0057H19.8998C19.7721 15.0057 19.6665 14.9002 19.6665 14.7724C19.6665 14.6446 19.7721 14.5391 19.8998 14.5391H21.7165C21.8443 14.5391 21.9498 14.6446 21.9498 14.7724C21.9498 14.9002 21.8443 15.0057 21.7165 15.0057Z" fill="white"/>
<path id="Vector_12" d="M21.7165 16.2723H19.8998C19.7721 16.2723 19.6665 16.1668 19.6665 16.039C19.6665 15.9112 19.7721 15.8057 19.8998 15.8057H21.7165C21.8443 15.8057 21.9498 15.9112 21.9498 16.039C21.9498 16.1668 21.8443 16.2723 21.7165 16.2723Z" fill="white"/>
<path id="Vector_13" d="M19.0891 16.2609H17.7225C17.6336 16.2609 17.5669 16.1887 17.5669 16.1054V14.7054C17.5669 14.6165 17.6391 14.5498 17.7225 14.5498H19.0891C19.178 14.5498 19.2447 14.622 19.2447 14.7054V16.1054C19.2447 16.1942 19.1724 16.2609 19.0891 16.2609ZM17.8836 15.9442H18.9336V14.8554H17.8836V15.9442Z" fill="white"/>
<path id="Vector_14" d="M23.0445 13.4722C23.0056 13.4334 22.95 13.4111 22.8945 13.4111L21.3278 13.4222H16.6222C16.5056 13.4222 16.4111 13.5167 16.4111 13.6334V22.2611C16.4111 22.3778 16.5056 22.4722 16.6222 22.4722H22.9C23.0167 22.4722 23.1111 22.3778 23.1111 22.2611V13.6222C23.1111 13.5667 23.0889 13.5111 23.05 13.4722H23.0445ZM22.6834 17.2445V22.05H16.8278V13.8389H21.3278L22.6834 13.8278V17.2389V17.2445Z" fill="white"/>
</g>
</svg>
