<svg width="18" height="18" viewBox="0 0 18 18" fill="none" xmlns="http://www.w3.org/2000/svg">
<path d="M6.10078 10.9302C6.79054 11.6509 7.17023 12.572 7.17023 13.5247V13.7209C7.16953 13.742 7.17093 13.7631 7.17585 13.7849C7.17656 13.7877 7.17867 13.7905 7.17937 13.7933C7.1857 13.8179 7.19484 13.8404 7.20749 13.8622C7.21031 13.8664 7.21171 13.8713 7.21453 13.8749C7.22859 13.8967 7.24617 13.9156 7.26586 13.9325C7.26937 13.936 7.27289 13.9388 7.27711 13.9417C7.2982 13.9578 7.3214 13.9705 7.34671 13.9803C7.34953 13.9817 7.35234 13.9824 7.35515 13.9831C7.38187 13.9923 7.4107 13.9986 7.44023 13.9986C7.46203 13.9986 7.48312 13.9951 7.50351 13.9902L10.6479 13.3074C10.6507 13.3067 10.6522 13.306 10.655 13.3053C10.6655 13.3025 10.6761 13.299 10.6866 13.2948C10.6929 13.292 10.6993 13.2899 10.7056 13.287C10.7154 13.2828 10.7239 13.2772 10.733 13.2716C10.7386 13.2681 10.745 13.2645 10.7506 13.2603C10.759 13.254 10.7668 13.247 10.7745 13.2399C10.7794 13.2357 10.7843 13.2308 10.7886 13.2266C10.7963 13.2181 10.8026 13.2097 10.8089 13.2006C10.8125 13.1956 10.816 13.1907 10.8195 13.1858C10.8251 13.1767 10.83 13.1668 10.8343 13.157C10.8371 13.1506 10.8399 13.145 10.8427 13.1387C10.8462 13.1295 10.8483 13.1197 10.8511 13.1099C10.8532 13.1021 10.8554 13.0944 10.8561 13.0866C10.8568 13.0831 10.8582 13.0803 10.8582 13.0768C10.9552 12.2879 11.3194 11.5299 11.884 10.9442C12.6089 10.1953 13.0083 9.20815 13.0083 8.16532C13.0083 7.05298 12.5632 6.01864 11.7554 5.25364C10.9482 4.48935 9.892 4.10193 8.77618 4.16239C6.67522 4.2756 5.01166 6.01513 4.98844 8.12167C4.9793 9.17356 5.37374 10.1715 6.10078 10.9302ZM8.80708 4.70183C9.77107 4.6498 10.6872 4.98448 11.3854 5.64613C12.085 6.30847 12.4696 7.20284 12.4696 8.16541C12.4696 9.06751 12.1244 9.92041 11.4965 10.5688C10.8967 11.1917 10.4981 11.9842 10.3546 12.8188L7.70375 13.3939C7.6707 12.3484 7.24531 11.345 6.49086 10.5568C5.86156 9.90005 5.52055 9.03731 5.52969 8.12748C5.55008 6.30426 6.98951 4.79957 8.80708 4.70183Z" fill="#58595B"/>
<path d="M8.72887 9.03938V12.382C8.72887 12.531 8.84981 12.652 8.99887 12.652C9.14793 12.652 9.26887 12.531 9.26887 12.382V9.03938L10.2448 8.06344C10.3503 7.95797 10.3503 7.7871 10.2448 7.68164C10.1393 7.57617 9.96848 7.57617 9.86302 7.68164L8.99887 8.54579L8.13473 7.68164C8.02926 7.57617 7.85839 7.57617 7.75293 7.68164C7.64746 7.78711 7.64746 7.95798 7.75293 8.06344L8.72887 9.03938Z" fill="#58595B"/>
<path d="M10.5186 13.8101L7.3672 14.4943C7.22165 14.5259 7.12884 14.6701 7.16049 14.8156C7.18791 14.9422 7.29971 15.0287 7.42415 15.0287C7.44314 15.0287 7.46212 15.0266 7.48181 15.0223L10.6332 14.3382C10.7788 14.3066 10.8716 14.1624 10.84 14.0169C10.8076 13.8706 10.6642 13.7778 10.5186 13.8101Z" fill="#58595B"/>
<path d="M10.8536 15.0469C10.822 14.9013 10.6779 14.8085 10.5323 14.8402L7.38087 15.5243C7.23532 15.556 7.14252 15.7001 7.17416 15.8457C7.20158 15.9722 7.31338 16.0587 7.43782 16.0587C7.45681 16.0587 7.47579 16.0566 7.49548 16.0524L10.6469 15.3682C10.7932 15.3366 10.8853 15.1924 10.8536 15.0469Z" fill="#58595B"/>
<path d="M10.2276 16.026C10.2473 15.8783 10.1432 15.7426 9.99487 15.723C9.84721 15.704 9.71151 15.8073 9.69182 15.9557C9.64682 16.3002 9.3487 16.5604 8.99923 16.5604C8.8129 16.5604 8.63642 16.4873 8.50353 16.3544C8.46556 16.3164 8.43463 16.277 8.41002 16.237C8.33338 16.109 8.16743 16.0675 8.03947 16.1441C7.9115 16.2208 7.87001 16.3867 7.94666 16.5147C7.99377 16.5927 8.05212 16.6673 8.12103 16.7362C8.35658 16.971 8.66807 17.1004 8.99923 17.1004C9.61869 17.1004 10.1475 16.6384 10.2276 16.026Z" fill="#58595B"/>
<path d="M2.145 8.29488H3.82476C3.97382 8.29488 4.09476 8.17394 4.09476 8.02488C4.09476 7.87582 3.97382 7.75488 3.82476 7.75488H2.145C1.99594 7.75488 1.875 7.87582 1.875 8.02488C1.875 8.17394 1.99594 8.29488 2.145 8.29488Z" fill="#58595B"/>
<path d="M13.9043 8.02488C13.9043 8.17394 14.0252 8.29488 14.1743 8.29488H15.8541C16.0031 8.29488 16.1241 8.17394 16.1241 8.02488C16.1241 7.87582 16.0031 7.75488 15.8541 7.75488H14.1743C14.0252 7.75488 13.9043 7.87582 13.9043 8.02488Z" fill="#58595B"/>
<path d="M9.00047 3.12015C9.14953 3.12015 9.27047 2.99921 9.27047 2.85015V1.17039C9.27047 1.02133 9.14953 0.900391 9.00047 0.900391C8.85141 0.900391 8.73047 1.02133 8.73047 1.17039V2.85015C8.73047 2.99921 8.85141 3.12015 9.00047 3.12015Z" fill="#58595B"/>
<path d="M12.6583 4.63642C12.7272 4.63642 12.7968 4.6104 12.8496 4.55767L14.0372 3.37008C14.1426 3.26461 14.1426 3.09374 14.0372 2.98828C13.9317 2.88281 13.7608 2.88281 13.6554 2.98828L12.4678 4.17587C12.3623 4.28134 12.3623 4.4522 12.4678 4.55767C12.5205 4.6097 12.5894 4.63642 12.6583 4.63642Z" fill="#58595B"/>
<path d="M5.1495 11.4929L3.96191 12.6805C3.85645 12.786 3.85645 12.9568 3.96191 13.0623C4.01465 13.115 4.08355 13.1411 4.15316 13.1411C4.22207 13.1411 4.29168 13.115 4.34441 13.0623L5.532 11.8747C5.63747 11.7692 5.63747 11.5984 5.532 11.4929C5.42583 11.3875 5.25496 11.3875 5.1495 11.4929Z" fill="#58595B"/>
<path d="M5.1488 4.55645C5.20153 4.60918 5.27044 4.6352 5.34005 4.6352C5.40895 4.6352 5.47856 4.60918 5.5313 4.55645C5.63676 4.45098 5.63676 4.28011 5.5313 4.17465L4.34371 2.98706C4.23824 2.88159 4.06737 2.88159 3.96191 2.98706C3.85645 3.09253 3.85644 3.2634 3.96191 3.36886L5.1488 4.55645Z" fill="#58595B"/>
<path d="M13.8459 13.1423C13.9148 13.1423 13.9844 13.1163 14.0372 13.0635C14.1426 12.9581 14.1426 12.7872 14.0372 12.6817L12.8496 11.4941C12.7441 11.3887 12.5732 11.3887 12.4678 11.4941C12.3623 11.5996 12.3623 11.7705 12.4678 11.8759L13.6554 13.0635C13.7081 13.1156 13.777 13.1423 13.8459 13.1423Z" fill="#58595B"/>
</svg>
