<svg width="22" height="22" viewBox="0 0 22 22" fill="none" xmlns="http://www.w3.org/2000/svg">
<path d="M15.2683 10.8729C15.2716 12.4799 14.6591 14.0769 14.04 15.2722C14.3232 15.3183 14.5702 15.3644 14.7809 15.4072C15.3835 14.1922 15.9631 12.5721 15.9565 10.8696H15.265L15.2683 10.8729Z" fill="#14477D"/>
<path d="M14.7414 6.26253C14.5801 5.96616 14.422 5.69944 14.2705 5.46894C13.8556 5.22197 13.4144 5.01781 12.9468 4.86963C13.1114 5.06062 13.5329 5.5776 13.9742 6.35143C14.2244 6.32509 14.4813 6.29545 14.7414 6.26253Z" fill="#14477D"/>
<path d="M15.2389 10.3056H15.9337C15.8349 8.92262 15.4496 7.73389 15.0084 6.79541C14.7548 6.83163 14.5078 6.86127 14.2642 6.8909C14.7219 7.80633 15.1335 8.97531 15.2422 10.3089L15.2389 10.3056Z" fill="#14477D"/>
<path d="M12.8877 17.1558C13.3125 17.0273 13.7142 16.8528 14.0962 16.6421C14.2246 16.4346 14.3629 16.2008 14.5078 15.9341C14.2905 15.8913 14.0369 15.8485 13.7504 15.8057C13.3718 16.4708 13.0326 16.9516 12.8877 17.1525V17.1558Z" fill="#14477D"/>
<path d="M7.43115 15.8184C7.59909 16.1312 7.76044 16.4045 7.90862 16.6416C8.26755 16.8392 8.64294 17.0006 9.03809 17.129C8.86027 16.8754 8.53098 16.3815 8.17535 15.7295C7.93167 15.7558 7.68471 15.7855 7.43115 15.8184Z" fill="#14477D"/>
<path d="M6.73307 10.8721H6.04156C6.03498 12.5185 6.57831 14.0859 7.15786 15.2878C7.40482 15.2516 7.65179 15.2187 7.89217 15.1924C7.29945 13.997 6.72978 12.4329 6.73307 10.8721Z" fill="#14477D"/>
<path d="M7.79664 6.76636C7.51675 6.72026 7.27307 6.67416 7.06891 6.63135C6.59803 7.59287 6.17324 8.84418 6.06787 10.3095H6.76267C6.87463 8.91662 7.31917 7.70154 7.79664 6.76965V6.76636Z" fill="#14477D"/>
<path d="M9.02838 4.87939C8.57066 5.02758 8.13929 5.22844 7.73097 5.46882C7.60914 5.65652 7.47742 5.87056 7.3457 6.10435C7.55645 6.14716 7.80671 6.18997 8.08661 6.23278C8.49163 5.54127 8.86702 5.06709 9.02508 4.87939H9.02838Z" fill="#14477D"/>
<path d="M10.6548 4.5858V6.46605C10.8787 6.47263 11.1092 6.47922 11.3463 6.47922V4.5858C11.231 4.57921 11.1158 4.56934 11.0005 4.56934C10.8853 4.56934 10.77 4.57921 10.6548 4.5858Z" fill="#14477D"/>
<path d="M10.6548 17.4218C10.77 17.4284 10.8853 17.4383 11.0005 17.4383C11.1158 17.4383 11.231 17.4284 11.3463 17.4218V15.6041C11.1224 15.5975 10.8919 15.5942 10.6548 15.5942V17.4218Z" fill="#14477D"/>
<path d="M10.6548 10.306V15.0214C10.8919 15.0214 11.1224 15.0214 11.3463 15.028V7.0493C11.1092 7.0493 10.8787 7.04272 10.6548 7.03613V10.306Z" fill="#14477D"/>
<path d="M13.5066 4.46759C13.5066 4.46759 13.4868 4.46101 13.477 4.45442C12.7064 4.16135 11.8733 4 11.0007 4C10.1281 4 9.29498 4.16135 8.52445 4.45442C8.51457 4.45771 8.50469 4.46101 8.49481 4.46759C5.87037 5.47851 4 8.02392 4 11.004C4 14.8633 7.14143 18.0047 11.0007 18.0047C14.86 18.0047 18.0014 14.8633 18.0014 11.004C18.0014 8.02722 16.131 5.47851 13.5066 4.46759ZM7.73415 5.46863C8.13917 5.22825 8.57384 5.02738 9.03155 4.8792C9.54854 4.71127 10.0952 4.61577 10.6582 4.58614C10.7735 4.57955 10.8887 4.56967 11.004 4.56967C11.1192 4.56967 11.2345 4.57955 11.3498 4.58614C11.903 4.61577 12.4397 4.70797 12.9468 4.86933C13.4144 5.01751 13.8557 5.22167 14.2706 5.46863C14.6229 5.67609 14.9522 5.91647 15.2584 6.18649C15.0839 6.21283 14.9127 6.23917 14.7447 6.25893C14.4846 6.29515 14.2277 6.32149 13.9775 6.34784C13.0324 6.44333 12.1532 6.47955 11.353 6.47626C11.116 6.47626 10.8855 6.46967 10.6615 6.46309C9.63744 6.42687 8.77141 6.33467 8.09637 6.22929C7.81647 6.18649 7.56621 6.14368 7.35546 6.10087C7.19741 6.07123 7.0624 6.0416 6.94385 6.01525C7.19411 5.81109 7.46084 5.62999 7.74073 5.46534L7.73415 5.46863ZM14.096 16.6414C13.7141 16.8522 13.309 17.0234 12.8875 17.1551C12.3969 17.3066 11.8799 17.3922 11.3465 17.4219C11.2312 17.4284 11.116 17.4383 11.0007 17.4383C10.8855 17.4383 10.7702 17.4284 10.655 17.4219C10.0952 17.3922 9.54854 17.2967 9.03484 17.1288C8.6397 17.0004 8.26101 16.839 7.90538 16.6414C7.5267 16.4307 7.17106 16.1837 6.84177 15.9038C7.03935 15.8709 7.23692 15.8413 7.42791 15.8149C7.68146 15.782 7.92843 15.7524 8.1721 15.726C9.06777 15.6305 9.89758 15.591 10.655 15.591C10.892 15.591 11.1225 15.591 11.3465 15.6009C12.2981 15.6272 13.1049 15.7096 13.7503 15.805C14.0368 15.8479 14.2903 15.8907 14.5076 15.9335C14.6953 15.9697 14.86 16.0059 14.995 16.0356C14.7118 16.2595 14.4121 16.4636 14.096 16.6381V16.6414ZM15.512 15.5844C15.3671 15.5416 15.1201 15.479 14.7842 15.4066C14.5735 15.3605 14.3232 15.3144 14.0433 15.2716C13.3453 15.1596 12.4364 15.0576 11.3498 15.0312C11.1258 15.0246 10.8953 15.0246 10.6582 15.0246C9.82185 15.0246 8.89984 15.074 7.8955 15.1926C7.65512 15.2189 7.41144 15.2518 7.16118 15.2881C6.89446 15.3276 6.62444 15.3671 6.34784 15.4165C6.34454 15.4165 6.34125 15.4198 6.33796 15.4198C5.24472 14.2673 4.56967 12.713 4.56967 11.004C4.56967 10.9612 4.57626 10.9151 4.57626 10.8723H10.6582V10.3059H4.60919C4.77054 8.82081 5.439 7.48389 6.43675 6.47626C6.56188 6.50919 6.77921 6.56517 7.07557 6.62773C7.27973 6.67054 7.52011 6.71664 7.8033 6.76274C8.52774 6.88129 9.49585 6.99654 10.6615 7.03605C10.8855 7.04264 11.116 7.04923 11.353 7.04923C11.3794 7.04923 11.4057 7.04923 11.4321 7.04923C12.2915 7.04923 13.2432 7.00312 14.2706 6.88787C14.5142 6.86153 14.7645 6.8286 15.0148 6.79238C15.2584 6.75616 15.5087 6.71994 15.7622 6.67713C16.6579 7.65841 17.2539 8.91301 17.4054 10.3059H11.3563V10.8723H17.4383C17.4383 10.9151 17.4449 10.9579 17.4449 11.004C17.4449 12.7953 16.7073 14.4187 15.5219 15.5877L15.512 15.5844Z" fill="#14477D"/>
<path d="M13.5066 4.46759C13.5066 4.46759 13.4868 4.46101 13.477 4.45442C12.7064 4.16135 11.8733 4 11.0007 4C10.1281 4 9.29498 4.16135 8.52445 4.45442C8.51457 4.45771 8.50469 4.46101 8.49481 4.46759C5.87037 5.47851 4 8.02392 4 11.004C4 14.8633 7.14143 18.0047 11.0007 18.0047C14.86 18.0047 18.0014 14.8633 18.0014 11.004C18.0014 8.02722 16.131 5.47851 13.5066 4.46759ZM7.73415 5.46863C8.13917 5.22825 8.57384 5.02738 9.03155 4.8792C9.54854 4.71127 10.0952 4.61577 10.6582 4.58614C10.7735 4.57955 10.8887 4.56967 11.004 4.56967C11.1192 4.56967 11.2345 4.57955 11.3498 4.58614C11.903 4.61577 12.4397 4.70797 12.9468 4.86933C13.4144 5.01751 13.8557 5.22167 14.2706 5.46863C14.6229 5.67609 14.9522 5.91647 15.2584 6.18649C15.0839 6.21283 14.9127 6.23917 14.7447 6.25893C14.4846 6.29515 14.2277 6.32149 13.9775 6.34784C13.0324 6.44333 12.1532 6.47955 11.353 6.47626C11.116 6.47626 10.8855 6.46967 10.6615 6.46309C9.63744 6.42687 8.77141 6.33467 8.09637 6.22929C7.81647 6.18649 7.56621 6.14368 7.35546 6.10087C7.19741 6.07123 7.0624 6.0416 6.94385 6.01525C7.19411 5.81109 7.46084 5.62999 7.74073 5.46534L7.73415 5.46863ZM14.096 16.6414C13.7141 16.8522 13.309 17.0234 12.8875 17.1551C12.3969 17.3066 11.8799 17.3922 11.3465 17.4219C11.2312 17.4284 11.116 17.4383 11.0007 17.4383C10.8855 17.4383 10.7702 17.4284 10.655 17.4219C10.0952 17.3922 9.54854 17.2967 9.03484 17.1288C8.6397 17.0004 8.26101 16.839 7.90538 16.6414C7.5267 16.4307 7.17106 16.1837 6.84177 15.9038C7.03935 15.8709 7.23692 15.8413 7.42791 15.8149C7.68146 15.782 7.92843 15.7524 8.1721 15.726C9.06777 15.6305 9.89758 15.591 10.655 15.591C10.892 15.591 11.1225 15.591 11.3465 15.6009C12.2981 15.6272 13.1049 15.7096 13.7503 15.805C14.0368 15.8479 14.2903 15.8907 14.5076 15.9335C14.6953 15.9697 14.86 16.0059 14.995 16.0356C14.7118 16.2595 14.4121 16.4636 14.096 16.6381V16.6414ZM15.512 15.5844C15.3671 15.5416 15.1201 15.479 14.7842 15.4066C14.5735 15.3605 14.3232 15.3144 14.0433 15.2716C13.3453 15.1596 12.4364 15.0576 11.3498 15.0312C11.1258 15.0246 10.8953 15.0246 10.6582 15.0246C9.82185 15.0246 8.89984 15.074 7.8955 15.1926C7.65512 15.2189 7.41144 15.2518 7.16118 15.2881C6.89446 15.3276 6.62444 15.3671 6.34784 15.4165C6.34454 15.4165 6.34125 15.4198 6.33796 15.4198C5.24472 14.2673 4.56967 12.713 4.56967 11.004C4.56967 10.9612 4.57626 10.9151 4.57626 10.8723H10.6582V10.3059H4.60919C4.77054 8.82081 5.439 7.48389 6.43675 6.47626C6.56188 6.50919 6.77921 6.56517 7.07557 6.62773C7.27973 6.67054 7.52011 6.71664 7.8033 6.76274C8.52774 6.88129 9.49585 6.99654 10.6615 7.03605C10.8855 7.04264 11.116 7.04923 11.353 7.04923C11.3794 7.04923 11.4057 7.04923 11.4321 7.04923C12.2915 7.04923 13.2432 7.00312 14.2706 6.88787C14.5142 6.86153 14.7645 6.8286 15.0148 6.79238C15.2584 6.75616 15.5087 6.71994 15.7622 6.67713C16.6579 7.65841 17.2539 8.91301 17.4054 10.3059H11.3563V10.8723H17.4383C17.4383 10.9151 17.4449 10.9579 17.4449 11.004C17.4449 12.7953 16.7073 14.4187 15.5219 15.5877L15.512 15.5844Z" fill="#14477D"/>
</svg>
