<svg width="17" height="17" viewBox="0 0 17 17" fill="none" xmlns="http://www.w3.org/2000/svg">
<g id="lock">
<mask id="mask0_1333_1083" style="mask-type:alpha" maskUnits="userSpaceOnUse" x="0" y="0" width="17" height="17">
<rect id="Bounding box" width="17" height="17" fill="#D9D9D9"/>
</mask>
<g mask="url(#mask0_1333_1083)">
<path id="lock_2" d="M4.46795 15.2289C4.1147 15.2289 3.81298 15.1038 3.56279 14.8536C3.3126 14.6035 3.1875 14.3017 3.1875 13.9485V7.30109C3.1875 6.94783 3.3126 6.64611 3.56279 6.39593C3.81298 6.14573 4.1147 6.02063 4.46795 6.02063H5.3125V4.60397C5.3125 3.71947 5.62262 2.96711 6.24286 2.34686C6.86311 1.72662 7.61549 1.4165 8.49998 1.4165C9.38448 1.4165 10.1369 1.72662 10.7571 2.34686C11.3773 2.96711 11.6875 3.71947 11.6875 4.60397V6.02063H12.532C12.8853 6.02063 13.187 6.14573 13.4372 6.39593C13.6874 6.64611 13.8125 6.94783 13.8125 7.30109V13.9485C13.8125 14.3017 13.6874 14.6035 13.4372 14.8536C13.187 15.1038 12.8853 15.2289 12.532 15.2289H4.46795ZM4.46795 14.1665H12.532C12.5956 14.1665 12.6478 14.146 12.6887 14.1051C12.7295 14.0643 12.75 14.0121 12.75 13.9485V7.30109C12.75 7.23752 12.7295 7.18529 12.6887 7.14442C12.6478 7.10355 12.5956 7.08312 12.532 7.08312H4.46795C4.40438 7.08312 4.35216 7.10355 4.31129 7.14442C4.27042 7.18529 4.24998 7.23752 4.24998 7.30109V13.9485C4.24998 14.0121 4.27042 14.0643 4.31129 14.1051C4.35216 14.146 4.40438 14.1665 4.46795 14.1665ZM8.49998 11.8643C8.84416 11.8643 9.1368 11.7438 9.37789 11.5027C9.619 11.2616 9.73955 10.969 9.73955 10.6248C9.73955 10.2806 9.619 9.98797 9.37789 9.74688C9.1368 9.50577 8.84416 9.38522 8.49998 9.38522C8.1558 9.38522 7.86317 9.50577 7.62207 9.74688C7.38097 9.98797 7.26042 10.2806 7.26042 10.6248C7.26042 10.969 7.38097 11.2616 7.62207 11.5027C7.86317 11.7438 8.1558 11.8643 8.49998 11.8643ZM6.37498 6.02063H10.625V4.60397C10.625 4.01369 10.4184 3.51195 10.0052 3.09876C9.592 2.68557 9.09026 2.47897 8.49998 2.47897C7.9097 2.47897 7.40797 2.68557 6.99477 3.09876C6.58158 3.51195 6.37498 4.01369 6.37498 4.60397V6.02063Z" fill="white"/>
</g>
</g>
</svg>
