<svg width="16" height="17" viewBox="0 0 16 17" fill="none" xmlns="http://www.w3.org/2000/svg">
<g clip-path="url(#clip0_2829_2038)">
<path d="M0.685461 0.95671L3.93042 0.956711C4.05667 0.956711 4.15917 1.05921 4.15917 1.18546L4.15917 12.3405L15.3142 12.3405C15.4405 12.3405 15.543 12.443 15.543 12.5693L15.543 15.8142C15.543 15.9405 15.4405 16.043 15.3142 16.043L0.685411 16.043C0.559161 16.043 0.456659 15.9405 0.456659 15.8142L0.456661 1.18541C0.456661 1.05916 0.559208 0.95671 0.685461 0.95671ZM3.70178 1.41421L0.91426 1.41421L0.914259 15.5854L15.0855 15.5854L15.0855 12.7979L3.93042 12.7979C3.80417 12.7979 3.70167 12.6954 3.70167 12.5691L3.70178 1.41421Z" fill="#58595B"/>
<path d="M13.8709 12.3405C13.9971 12.3405 14.0996 12.443 14.0996 12.5693L14.0996 13.9312C14.0996 14.0574 13.9971 14.1599 13.8709 14.1599C13.7446 14.1599 13.6421 14.0574 13.6421 13.9312L13.6421 12.5693C13.6421 12.443 13.7446 12.3405 13.8709 12.3405Z" fill="#58595B"/>
<path d="M12.4236 12.3409C12.5498 12.3409 12.6523 12.4434 12.6523 12.5697L12.6523 13.3884C12.6523 13.5147 12.5498 13.6172 12.4236 13.6172C12.2973 13.6172 12.1948 13.5147 12.1948 13.3884L12.1948 12.5697C12.1948 12.4434 12.2967 12.3409 12.4236 12.3409Z" fill="#58595B"/>
<path d="M10.9763 12.3405C11.1026 12.3405 11.2051 12.443 11.2051 12.5692L11.2051 13.6167C11.2051 13.743 11.1026 13.8455 10.9763 13.8455C10.8501 13.8455 10.7476 13.743 10.7476 13.6167L10.7476 12.5692C10.7476 12.443 10.8501 12.3405 10.9763 12.3405Z" fill="#58595B"/>
<path d="M9.52906 12.3406C9.65531 12.3406 9.75781 12.4431 9.75781 12.5694L9.75781 14.2881C9.75781 14.4143 9.65531 14.5168 9.52906 14.5168C9.40281 14.5168 9.30031 14.4143 9.30031 14.2881L9.30031 12.5694C9.30031 12.4431 9.40281 12.3406 9.52906 12.3406Z" fill="#58595B"/>
<path d="M8.0818 12.3405C8.20804 12.3405 8.31055 12.443 8.31055 12.5693L8.31055 13.9312C8.31055 14.0574 8.20805 14.1599 8.0818 14.1599C7.95555 14.1599 7.85304 14.0574 7.85304 13.9312L7.85304 12.5693C7.85304 12.443 7.95554 12.3405 8.0818 12.3405Z" fill="#58595B"/>
<path d="M6.63453 12.3406C6.76078 12.3406 6.86328 12.4431 6.86328 12.5693L6.86328 13.4287C6.86328 13.555 6.76078 13.6575 6.63453 13.6575C6.50828 13.6575 6.40578 13.555 6.40578 13.4287L6.40578 12.5693C6.40578 12.4431 6.50765 12.3406 6.63453 12.3406Z" fill="#58595B"/>
<path d="M5.18531 12.3405C5.31156 12.3405 5.41406 12.443 5.41406 12.5692L5.41406 13.6167C5.41406 13.743 5.31156 13.8455 5.18531 13.8455C5.05906 13.8455 4.95656 13.743 4.95656 13.6167L4.95656 12.5692C4.95656 12.443 5.05843 12.3405 5.18531 12.3405Z" fill="#58595B"/>
<path d="M2.52266 10.9917L3.88453 10.9917C4.01078 10.9917 4.11328 11.0942 4.11328 11.2205C4.11328 11.3467 4.01078 11.4492 3.88453 11.4492L2.52266 11.4492C2.39641 11.4492 2.2939 11.3467 2.2939 11.2205C2.2939 11.0942 2.39578 10.9917 2.52266 10.9917Z" fill="#58595B"/>
<path d="M3.06578 9.54421L3.88453 9.54421C4.01078 9.54421 4.11328 9.6467 4.11328 9.77296C4.11328 9.89921 4.01078 10.0017 3.88453 10.0017L3.06578 10.0017C2.93953 10.0017 2.83702 9.89921 2.83702 9.77296C2.83702 9.64608 2.93952 9.54421 3.06578 9.54421Z" fill="#58595B"/>
<path d="M2.83702 8.09718L3.88453 8.09718C4.01078 8.09718 4.11328 8.19968 4.11328 8.32594C4.11328 8.45218 4.01078 8.55469 3.88453 8.55469L2.83702 8.55469C2.71078 8.55469 2.60827 8.45219 2.60827 8.32593C2.6089 8.19906 2.71077 8.09718 2.83702 8.09718Z" fill="#58595B"/>
<path d="M2.16581 6.6487L3.88453 6.6487C4.01078 6.6487 4.11328 6.7512 4.11328 6.87745C4.11328 7.0037 4.01078 7.1062 3.88453 7.1062L2.16581 7.1062C2.03956 7.1062 1.93706 7.0037 1.93706 6.87745C1.93706 6.7512 2.03956 6.6487 2.16581 6.6487Z" fill="#58595B"/>
<path d="M2.52266 5.20168L3.88453 5.20168C4.01078 5.20168 4.11328 5.30418 4.11328 5.43043C4.11328 5.55668 4.01078 5.65918 3.88453 5.65918L2.52266 5.65918C2.39641 5.65918 2.2939 5.55668 2.2939 5.43043C2.2939 5.30418 2.39578 5.20168 2.52266 5.20168Z" fill="#58595B"/>
<path d="M3.02515 3.75368L3.88453 3.75368C4.01078 3.75368 4.11328 3.85618 4.11328 3.98243C4.11328 4.10868 4.01078 4.21118 3.88453 4.21118L3.02515 4.21118C2.8989 4.21118 2.7964 4.10868 2.7964 3.98243C2.7964 3.85618 2.8989 3.75368 3.02515 3.75368Z" fill="#58595B"/>
<path d="M2.83702 2.30617L3.88453 2.30617C4.01078 2.30617 4.11328 2.40867 4.11328 2.53492C4.11328 2.66117 4.01078 2.76367 3.88453 2.76367L2.83702 2.76367C2.71078 2.76367 2.60827 2.66117 2.60827 2.53492C2.6089 2.40867 2.71077 2.30617 2.83702 2.30617Z" fill="#58595B"/>
<path d="M2.63898 12.8223C3.2121 12.8223 3.67773 13.2885 3.67773 13.8616C3.67836 14.4341 3.2121 14.9004 2.63898 14.9004C2.06648 14.9004 1.60023 14.4341 1.60023 13.8616C1.60023 13.2885 2.06648 12.8223 2.63898 12.8223ZM2.63898 14.4435C2.96023 14.4435 3.22085 14.1823 3.22085 13.8617C3.22085 13.5404 2.95961 13.2798 2.63898 13.2798C2.31836 13.2792 2.05711 13.5404 2.05711 13.8617C2.05711 14.1823 2.31836 14.4435 2.63898 14.4435Z" fill="#58595B"/>
</g>
<defs>
<clipPath id="clip0_2829_2038">
<rect width="16" height="16" fill="white" transform="translate(16 16.5) rotate(-180)"/>
</clipPath>
</defs>
</svg>
