<?xml version="1.0" encoding="UTF-8"?><svg xmlns="http://www.w3.org/2000/svg" viewBox="0 0 71.05 71.05"><defs><style>.cls-1{fill:#ededee;}.cls-2{fill:#14477d;}.cls-3{fill:#6dcff6;}</style></defs><g id="CIRCLES"><circle class="cls-1" cx="35.57" cy="35.52" r="34.6"/></g><g id="ICONS"><path class="cls-3" d="m22.28,43.8c0,.54.43.97.97.97h12.75l1.94-1.94h-14.69c-.54,0-.97.43-.97.97Z"/><path class="cls-3" d="m23.25,39.28h16.48c.54,0,.97-.44.97-.97s-.44-.97-.97-.97h-16.48c-.54,0-.97.44-.97.97s.44.97.97.97Z"/><path class="cls-3" d="m23.25,33.79h16.48c.54,0,.97-.44.97-.97s-.44-.97-.97-.97h-16.48c-.54,0-.97.44-.97.97s.44.97.97.97Z"/><path class="cls-3" d="m23.25,28.29h16.48c.54,0,.97-.44.97-.97s-.44-.97-.97-.97h-16.48c-.54,0-.97.44-.97.97s.44.97.97.97Z"/><polygon class="cls-3" points="45.45 37.58 48.88 41.03 50.25 39.66 46.82 36.21 45.45 37.58"/><polygon class="cls-3" points="43.13 39.89 46.56 43.35 47.94 41.97 44.51 38.52 43.13 39.89"/><path class="cls-2" d="m52.54,33.93c-.76-.76-1.77-1.18-2.85-1.18s-2.09.42-2.85,1.18l-1.46,1.46v-13.74s0-.03-.01-.05c0-.07-.02-.13-.04-.2,0-.03-.02-.05-.03-.08-.04-.08-.09-.16-.16-.23l-6.59-6.59c-.07-.07-.15-.12-.23-.16-.02-.01-.05-.02-.07-.03-.07-.02-.13-.04-.21-.04-.02,0-.03,0-.05,0h-19.79c-.44,0-.8.36-.8.8v36.27c0,.44.36.8.8.8h12.76l-1.21,3.61c-.1.29-.02.6.19.82.15.15.35.23.56.23.09,0,.17-.01.26-.04l6.89-2.35s.01,0,.02-.01c.05-.02.08-.05.13-.07.05-.03.11-.06.15-.1,0,0,0,0,0,0l14.57-14.57c.76-.76,1.18-1.78,1.18-2.85s-.42-2.09-1.18-2.85Zm-13.75-16.95l3.88,3.88h-3.88v-3.88Zm-6.53,31.54s-.07.1-.1.15c-.02.04-.05.08-.07.12,0,0-.01.02-.01.02l-.58,1.74s-.06-.02-.1-.02h-12.39V15.85h18.19v5.8c0,.44.36.8.8.8h5.8v14.3c0,.07.02.13.04.2l-.97.97-.34.34-4.58,4.58-1.94,1.94-3.73,3.73s0,.01-.01.02Zm1.11,5.65l-1.06-1.06.87-2.58,2.76,2.76-2.57.88Zm18.05-15.67l-1.16,1.16-1.37,1.37-.94.94-1.37,1.37-9.16,9.16-3.45-3.44,4.36-4.36.6-.59,4.22-4.22,1.37-1.38.94-.94,1.37-1.38,1.15-1.15c.92-.93,2.53-.93,3.45,0,.46.46.72,1.07.72,1.72s-.26,1.26-.72,1.71Z"/></g></svg>