<svg width="42" height="37" viewBox="0 0 42 37" fill="none" xmlns="http://www.w3.org/2000/svg">
<g id="Group 99991">
<path id="Vector" d="M0.5 21.4257V3.5061C0.5 2.12213 1.47514 1 2.67777 1H16.6949C17.8975 1 18.8727 2.12213 18.8727 3.5061V19.6418C18.8727 21.0258 17.8975 22.1479 16.6949 22.1479H5.3989" stroke="#8DC13F" stroke-miterlimit="10"/>
<path id="Vector_2" d="M0.5 21.4258C0.5 21.6675 0.504347 21.9092 0.51449 22.148C0.818769 29.4462 5.70898 35.3848 11.9337 36.2164C12.7335 36.3228 13.4348 35.5963 13.4348 34.6698V31.9638C13.4348 31.2804 12.9885 30.7165 12.3988 30.6301C8.64455 30.0734 5.69159 26.5344 5.39745 22.1494" stroke="#8DC13F" stroke-miterlimit="10"/>
<path id="Vector_3" d="M23.127 21.4257V3.5061C23.127 2.12213 24.1021 1 25.3047 1H39.3219C40.5245 1 41.4996 2.12213 41.4996 3.5061V19.6418C41.4996 21.0258 40.5245 22.1479 39.3219 22.1479H28.0259" stroke="#8DC13F" stroke-miterlimit="10"/>
<path id="Vector_4" d="M23.127 21.4258C23.127 21.6675 23.1313 21.9092 23.1414 22.148C23.4457 29.4462 28.3359 35.3848 34.5606 36.2164C35.3604 36.3228 36.0617 35.5963 36.0617 34.6698V31.9638C36.0617 31.2804 35.6155 30.7165 35.0257 30.6301C31.2715 30.0734 28.3185 26.5344 28.0244 22.1494" stroke="#8DC13F" stroke-miterlimit="10"/>
</g>
</svg>
