<?xml version="1.0" encoding="UTF-8"?><svg xmlns="http://www.w3.org/2000/svg" viewBox="0 0 71.05 71.05"><defs><style>.cls-1{fill:#ededee;}.cls-2{fill:#14477d;}.cls-3{fill:#6dcff6;}</style></defs><g id="CIRCLES"><circle class="cls-1" cx="35.48" cy="35.67" r="34.6"/></g><g id="ICONS"><path class="cls-3" d="m52.24,18.86c-6.01-6.01-16.12-5.92-22.53.21-.4.38-.41,1.01-.03,1.4.38.4,1.01.41,1.4.03,5.63-5.39,14.5-5.5,19.75-.24,5.26,5.26,5.15,14.12-.25,19.75-.38.4-.37,1.02.03,1.4.19.18.44.28.69.28.26,0,.52-.1.72-.31,6.13-6.4,6.23-16.51.22-22.52Z"/><path class="cls-3" d="m38.16,27.39c-.43.34-.5.97-.16,1.39.34.43.97.5,1.39.16.83-.66,1.98-.63,2.68.08.7.7.74,1.86.08,2.68-.34.43-.27,1.05.16,1.39.18.15.4.22.62.22.29,0,.58-.13.78-.37,1.29-1.62,1.2-3.9-.22-5.32-1.42-1.42-3.71-1.52-5.32-.22Z"/><path class="cls-3" d="m47.85,23.24c-3.77-3.77-9.89-3.76-13.95,0-.4.37-.42,1-.05,1.4.37.4,1,.42,1.4.05,3.27-3.04,8.19-3.06,11.2-.06,3.01,3.01,2.98,7.93-.06,11.2-.37.4-.35,1.03.05,1.4.19.18.43.27.67.27.27,0,.53-.11.73-.32,3.77-4.05,3.77-10.18,0-13.95Z"/><path class="cls-2" d="m44.81,56.93c-1.05,0-2.17-.14-3.35-.42-10.13-2.42-23.53-15.24-26.55-25.42-1.23-4.23-.66-7.76,1.65-10.21l3.16-3.32c.45-.52,1.15-.84,1.91-.86.79-.02,1.54.27,2.06.81l6.64,6.36c1.09,1.08,1.13,2.85.09,3.95l-2.17,2.29c-.17.18-.22.42-.13.63.72,1.64,2.35,4.84,5.24,7.71,2.78,2.76,5.96,4.17,7.6,4.77.17.06.4,0,.53-.14l2.24-2.36c.45-.52,1.15-.84,1.91-.86.79-.03,1.54.27,2.06.81l6.61,6.37c1.09,1.06,1.14,2.83.1,3.95l-3.16,3.33c-1.01,1.05-2.21,1.79-3.59,2.2-.01,0-.02,0-.03.01-.88.26-1.82.38-2.83.38ZM21.73,18.32s-.03,0-.04,0c-.31,0-.59.13-.76.33l-3.18,3.35c-1.9,2.01-2.34,4.99-1.28,8.63,2.89,9.72,15.69,21.99,25.37,24.3,2,.48,3.78.5,5.29.07,0,0,0,0,0,0,1.14-.33,2.13-.93,2.96-1.79l3.15-3.32c.44-.47.42-1.23-.04-1.68l-6.62-6.39c-.23-.23-.55-.35-.87-.34-.31,0-.59.13-.76.33l-2.25,2.37c-.55.61-1.47.85-2.27.56-2.17-.79-5.35-2.32-8.2-5.15-3.07-3.06-4.82-6.46-5.58-8.21-.35-.81-.18-1.74.44-2.39l2.17-2.29c.44-.46.42-1.21-.04-1.67l-6.65-6.37c-.22-.22-.52-.34-.84-.34Z"/></g></svg>