<svg width="30" height="30" viewBox="0 0 30 30" fill="none" xmlns="http://www.w3.org/2000/svg">
<g id="2023_IRM_Icons_safety and security-white">
<path id="Vector" d="M14.8545 23.6876C14.8337 23.6876 14.8129 23.6876 14.7879 23.6793C10.442 22.846 7.28369 19.0293 7.28369 14.6001V8.5668C7.28369 8.4168 7.38369 8.28346 7.52536 8.23763L14.7379 5.98763C14.7754 5.97513 14.8129 5.9668 14.8504 5.9668C14.8879 5.9668 14.9295 5.97513 14.9629 5.98763L22.1754 8.23763C22.3212 8.28346 22.417 8.4168 22.417 8.5668V14.6001C22.417 19.0251 19.2629 22.846 14.9129 23.6793C14.892 23.6793 14.8712 23.6876 14.8462 23.6876H14.8545ZM7.97536 8.82513V14.6043C7.97536 18.6793 10.8629 22.196 14.8545 22.9918C18.8462 22.196 21.7337 18.6793 21.7337 14.6043V8.82513L14.8545 6.6793L7.97536 8.82513Z" fill="white"/>
<path id="Vector_2" d="M14.8543 21.1167C14.8168 21.1167 14.7793 21.1125 14.7418 21.1C11.8251 20.3 9.7876 17.625 9.7876 14.6V10.4667C9.7876 10.2833 9.90843 10.1208 10.0834 10.0625L14.7251 8.6125C14.8084 8.5875 14.8959 8.5875 14.9751 8.6125L19.6168 10.0625C19.7918 10.1167 19.9126 10.2792 19.9126 10.4667V14.6C19.9126 17.625 17.8751 20.3 14.9584 21.1C14.9209 21.1083 14.8834 21.1167 14.8459 21.1167H14.8543ZM10.6334 10.7792V14.6042C10.6334 17.2125 12.3626 19.5208 14.8543 20.2583C17.3459 19.5208 19.0751 17.2125 19.0751 14.6042V10.7792L14.8543 9.4625L10.6334 10.7792Z" fill="white"/>
<path id="Vector_3" d="M16.8879 13.3043H16.817C16.7837 12.246 15.917 11.396 14.8504 11.396C13.7837 11.396 12.917 12.246 12.8837 13.3043H12.817C12.6254 13.3043 12.4712 13.4585 12.4712 13.6502V16.9043C12.4712 17.096 12.6254 17.2502 12.817 17.2502H16.8837C17.0754 17.2502 17.2295 17.096 17.2295 16.9043V13.6502C17.2295 13.4585 17.0754 13.3043 16.8837 13.3043H16.8879ZM14.8545 12.0835C15.5379 12.0835 16.0962 12.6252 16.1295 13.3043H13.5795C13.6129 12.6252 14.1712 12.0835 14.8545 12.0835ZM16.5462 16.5585H13.167V13.9918H16.5462V16.5585Z" fill="white"/>
<path id="Vector_4" d="M14.8668 16.3502C15.0585 16.3502 15.2127 16.196 15.2127 16.0043V14.6793C15.2127 14.4877 15.0585 14.3335 14.8668 14.3335C14.6752 14.3335 14.521 14.4877 14.521 14.6793V16.0043C14.521 16.196 14.6752 16.3502 14.8668 16.3502Z" fill="white"/>
</g>
</svg>
