<svg width="72" height="72" viewBox="0 0 72 72" fill="none" xmlns="http://www.w3.org/2000/svg">
<path d="M35.6505 56.85C35.6005 56.85 35.5505 56.85 35.4905 56.83C25.0605 54.83 17.4805 45.67 17.4805 35.04V20.56C17.4805 20.2 17.7205 19.88 18.0605 19.77L35.3705 14.37C35.4605 14.34 35.5505 14.32 35.6405 14.32C35.7305 14.32 35.8305 14.34 35.9105 14.37L53.2205 19.77C53.5705 19.88 53.8005 20.2 53.8005 20.56V35.04C53.8005 45.66 46.2305 54.83 35.7905 56.83C35.7405 56.83 35.6905 56.85 35.6305 56.85H35.6505ZM19.1405 21.18V35.05C19.1405 44.83 26.0705 53.27 35.6505 55.18C45.2305 53.27 52.1605 44.83 52.1605 35.05V21.18L35.6505 16.03L19.1405 21.18Z" fill="white"/>
<path d="M35.6502 50.68C35.5602 50.68 35.4702 50.67 35.3802 50.64C28.3802 48.72 23.4902 42.3 23.4902 35.04V25.12C23.4902 24.68 23.7802 24.29 24.2002 24.15L35.3402 20.67C35.5402 20.61 35.7502 20.61 35.9402 20.67L47.0802 24.15C47.5002 24.28 47.7902 24.67 47.7902 25.12V35.04C47.7902 42.3 42.9002 48.72 35.9002 50.64C35.8102 50.66 35.7202 50.68 35.6302 50.68H35.6502ZM25.5202 25.87V35.05C25.5202 41.31 29.6702 46.85 35.6502 48.62C41.6302 46.85 45.7802 41.31 45.7802 35.05V25.87L35.6502 22.71L25.5202 25.87Z" fill="white"/>
<path d="M40.5307 31.93H40.3607C40.2807 29.39 38.2007 27.35 35.6407 27.35C33.0807 27.35 31.0007 29.39 30.9207 31.93H30.7607C30.3007 31.93 29.9307 32.3 29.9307 32.76V40.57C29.9307 41.03 30.3007 41.4 30.7607 41.4H40.5207C40.9807 41.4 41.3507 41.03 41.3507 40.57V32.76C41.3507 32.3 40.9807 31.93 40.5207 31.93H40.5307ZM35.6507 29C37.2907 29 38.6307 30.3 38.7107 31.93H32.5907C32.6707 30.3 34.0107 29 35.6507 29ZM39.7107 39.74H31.6007V33.58H39.7107V39.74Z" fill="white"/>
<path d="M35.6806 39.24C36.1406 39.24 36.5106 38.87 36.5106 38.41V35.23C36.5106 34.77 36.1406 34.4 35.6806 34.4C35.2206 34.4 34.8506 34.77 34.8506 35.23V38.41C34.8506 38.87 35.2206 39.24 35.6806 39.24Z" fill="white"/>
</svg>
