<svg width="22" height="22" viewBox="0 0 22 22" fill="none" xmlns="http://www.w3.org/2000/svg">
<path d="M20.4269 21.7208L12.576 13.8698C11.951 14.3858 11.2322 14.7897 10.4197 15.0813C9.60722 15.373 8.76668 15.5188 7.89809 15.5188C5.76164 15.5188 3.95349 14.7791 2.47366 13.2997C0.993823 11.8202 0.253906 10.0125 0.253906 7.87663C0.253906 5.74071 0.993636 3.93237 2.47309 2.45159C3.95255 0.970844 5.76024 0.230469 7.89616 0.230469C10.0321 0.230469 11.8404 0.970385 13.3212 2.45022C14.8019 3.93005 15.5423 5.7382 15.5423 7.87466C15.5423 8.76728 15.3925 9.61984 15.0928 10.4323C14.7931 11.2448 14.3933 11.9516 13.8933 12.5525L21.7442 20.4035L20.4269 21.7208ZM7.89809 13.6439C9.50868 13.6439 10.8729 13.085 11.9907 11.9672C13.1084 10.8494 13.6673 9.48524 13.6673 7.87466C13.6673 6.26407 13.1084 4.89989 11.9907 3.78209C10.8729 2.6643 9.50868 2.10541 7.89809 2.10541C6.28751 2.10541 4.92332 2.6643 3.80553 3.78209C2.68776 4.89989 2.12888 6.26407 2.12888 7.87466C2.12888 9.48524 2.68776 10.8494 3.80553 11.9672C4.92332 13.085 6.28751 13.6439 7.89809 13.6439Z" fill="#1B75BC"/>
</svg>
