<svg width="17" height="15" viewBox="0 0 17 15" fill="none" xmlns="http://www.w3.org/2000/svg">
<path d="M5.27826 11.2083C4.4787 11.2083 3.83105 11.8599 3.83105 12.6556C3.83105 13.4512 4.4787 14.1029 5.27826 14.1029C6.07782 14.1029 6.72546 13.4552 6.72546 12.6556C6.72546 11.8559 6.07782 11.2083 5.27826 11.2083ZM5.27826 12.1838C5.53812 12.1838 5.75 12.3957 5.75 12.6556C5.75 12.9154 5.53812 13.1273 5.27826 13.1273C5.0184 13.1273 4.80652 12.9154 4.80652 12.6556C4.80652 12.3957 5.0184 12.1838 5.27826 12.1838Z" fill="#14477D"/>
<path d="M9.32416 11.2083C8.54059 11.2083 7.87695 11.8719 7.87695 12.6556C7.87695 13.4392 8.54059 14.1029 9.32416 14.1029C10.1077 14.1029 10.7714 13.4392 10.7714 12.6556C10.7714 11.8719 10.1077 11.2083 9.32416 11.2083ZM9.32416 12.1838C9.57602 12.1838 9.7959 12.4037 9.7959 12.6556C9.7959 12.9074 9.57602 13.1273 9.32416 13.1273C9.07229 13.1273 8.85242 12.9074 8.85242 12.6556C8.85242 12.4037 9.07229 12.1838 9.32416 12.1838Z" fill="#14477D"/>
<path d="M16.8601 0.185639H12.7943C12.7303 0.185639 12.6784 0.22562 12.6584 0.285591L11.8788 3.07625H0.14128C0.0973046 3.07625 0.0533289 3.09624 0.0253443 3.13622C-0.00264032 3.1762 -0.00663811 3.22018 0.00935309 3.26416L2.59993 10.6646C2.61992 10.7206 2.67189 10.7566 2.73185 10.7566H12.0307C12.0907 10.7566 12.1467 10.7166 12.1627 10.6566L14.5893 2.63646H16.8601C16.936 2.63646 17 2.57249 17 2.49653V0.321573C17 0.24561 16.936 0.181641 16.8601 0.181641M3.22358 9.91696L1.12074 3.90785H12.4065C12.4705 3.90785 12.5225 3.86787 12.5425 3.8079L13.322 1.01724H16.1645V1.80086H14.0736C14.0136 1.80086 13.9577 1.84084 13.9417 1.90081L11.515 9.92096H3.22758L3.22358 9.91696Z" fill="#14477D"/>
<path d="M5.3224 7.15415H3.23156C3.18758 7.15415 3.1436 7.17413 3.11562 7.21412C3.09163 7.2501 3.08364 7.29808 3.09963 7.34206L3.75527 9.20516C3.77526 9.26113 3.82723 9.29712 3.88719 9.29712H5.3224C5.39836 9.29712 5.46233 9.23314 5.46233 9.15718V7.29008C5.46233 7.21412 5.39836 7.15015 5.3224 7.15015M4.11907 8.82934L3.6913 7.61392H4.99858V8.82934H4.11907Z" fill="#14477D"/>
<path d="M5.3225 4.50732H2.33215C2.28817 4.50732 2.2442 4.52731 2.22021 4.5673C2.19223 4.60328 2.18823 4.65126 2.20022 4.69523L2.85586 6.62231C2.87585 6.67828 2.92782 6.71826 2.98779 6.71826H5.3225C5.39846 6.71826 5.46243 6.65429 5.46243 6.57833V4.65126C5.46243 4.57529 5.39846 4.51132 5.3225 4.51132M3.21966 6.25448L2.7879 4.9751H4.99868V6.25448H3.21966Z" fill="#14477D"/>
<path d="M8.55649 7.15015H6.03787C5.96191 7.15015 5.89795 7.21412 5.89795 7.29008V9.15318C5.89795 9.22915 5.96191 9.29312 6.03787 9.29312H8.55649C8.63244 9.29312 8.69641 9.22915 8.69641 9.15318V7.29008C8.69641 7.21412 8.63244 7.15015 8.55649 7.15015ZM6.36169 7.61392H8.22867V8.82934H6.36169V7.61392Z" fill="#14477D"/>
<path d="M8.55649 4.50732H6.03787C5.96191 4.50732 5.89795 4.57129 5.89795 4.64726V6.54235C5.89795 6.61831 5.96191 6.68228 6.03787 6.68228H8.55649C8.63244 6.68228 8.69641 6.61831 8.69641 6.54235V4.64726C8.69641 4.57129 8.63244 4.50732 8.55649 4.50732ZM6.36169 4.9711H8.22867V6.2185H6.36169V4.9711Z" fill="#14477D"/>
<path d="M11.2314 7.15332H9.30447C9.22851 7.15332 9.16455 7.21729 9.16455 7.29325V9.16036C9.16455 9.23632 9.22851 9.30029 9.30447 9.30029H10.7117C10.7757 9.30029 10.8276 9.26031 10.8476 9.19634L11.3673 7.33323C11.3793 7.29325 11.3673 7.24528 11.3434 7.21329C11.3154 7.17731 11.2754 7.15732 11.2314 7.15732M9.63229 8.83651V7.62109H10.8036L10.4678 8.83651H9.63229Z" fill="#14477D"/>
<path d="M12.0865 4.5633C12.0626 4.52732 12.0186 4.50732 11.9746 4.50732H9.30008C9.22412 4.50732 9.16016 4.57129 9.16016 4.64726V6.57433C9.16016 6.65029 9.22412 6.71426 9.30008 6.71426H11.4229C11.4829 6.71426 11.5388 6.67428 11.5548 6.61431L12.1065 4.68724C12.1185 4.64326 12.1065 4.59928 12.0825 4.5633M9.6239 6.25049V4.9711H11.5428L11.179 6.25049H9.6279H9.6239Z" fill="#14477D"/>
</svg>
