<svg width="17" height="14" viewBox="0 0 17 14" fill="none" xmlns="http://www.w3.org/2000/svg">
<path d="M5.27923 11.0664C4.47968 11.0664 3.83203 11.7181 3.83203 12.5137C3.83203 13.3093 4.47968 13.961 5.27923 13.961C6.07879 13.961 6.72644 13.3133 6.72644 12.5137C6.72644 11.7141 6.07879 11.0664 5.27923 11.0664ZM5.27923 12.0419C5.53909 12.0419 5.75097 12.2538 5.75097 12.5137C5.75097 12.7736 5.53909 12.9855 5.27923 12.9855C5.01938 12.9855 4.80749 12.7736 4.80749 12.5137C4.80749 12.2538 5.01938 12.0419 5.27923 12.0419Z" fill="#58595B"/>
<path d="M9.32416 11.0664C8.54059 11.0664 7.87695 11.7301 7.87695 12.5137C7.87695 13.2973 8.54059 13.961 9.32416 13.961C10.1077 13.961 10.7714 13.2973 10.7714 12.5137C10.7714 11.7301 10.1077 11.0664 9.32416 11.0664ZM9.32416 12.0419C9.57602 12.0419 9.7959 12.2618 9.7959 12.5137C9.7959 12.7656 9.57602 12.9855 9.32416 12.9855C9.07229 12.9855 8.85242 12.7656 8.85242 12.5137C8.85242 12.2618 9.07229 12.0419 9.32416 12.0419Z" fill="#ffffff"/>
<path d="M16.8601 0.0430607H12.7943C12.7303 0.0430607 12.6784 0.0830414 12.6584 0.143013L11.8788 2.93367H0.14128C0.0973046 2.93367 0.0533289 2.95366 0.0253443 2.99364C-0.00264032 3.03362 -0.00663811 3.0776 0.00935309 3.12158L2.59993 10.522C2.61992 10.578 2.67189 10.614 2.73185 10.614H12.0307C12.0907 10.614 12.1467 10.574 12.1627 10.514L14.5893 2.49388H16.8601C16.936 2.49388 17 2.42991 17 2.35395V0.178995C17 0.103032 16.936 0.0390625 16.8601 0.0390625M3.22358 9.77438L1.12074 3.76527H12.4065C12.4705 3.76527 12.5225 3.72529 12.5425 3.66532L13.322 0.874661H16.1645V1.65828H14.0736C14.0136 1.65828 13.9577 1.69826 13.9417 1.75824L11.515 9.77838H3.22758L3.22358 9.77438Z" fill="#ffffff"/>
<path d="M5.32289 7.01181H3.23204C3.18807 7.01181 3.14409 7.0318 3.11611 7.07178C3.09212 7.10776 3.08413 7.15574 3.10012 7.19972L3.75576 9.06283C3.77574 9.1188 3.82772 9.15478 3.88768 9.15478H5.32289C5.39885 9.15478 5.46282 9.09081 5.46282 9.01485V7.14775C5.46282 7.07178 5.39885 7.00781 5.32289 7.00781M4.11956 8.68701L3.69179 7.47159H4.99907V8.68701H4.11956Z" fill="#ffffff"/>
<path d="M5.32202 4.36523H2.33166C2.28769 4.36523 2.24371 4.38522 2.21972 4.42521C2.19174 4.46119 2.18774 4.50917 2.19973 4.55314L2.85537 6.48022C2.87536 6.53619 2.92733 6.57617 2.9873 6.57617H5.32202C5.39797 6.57617 5.46194 6.5122 5.46194 6.43624V4.50917C5.46194 4.4332 5.39797 4.36923 5.32202 4.36923M3.21917 6.11239L2.78741 4.83301H4.99819V6.11239H3.21917Z" fill="#ffffff"/>
<path d="M8.55697 7.00781H6.03836C5.9624 7.00781 5.89844 7.07178 5.89844 7.14775V9.01085C5.89844 9.08681 5.9624 9.15078 6.03836 9.15078H8.55697C8.63293 9.15078 8.6969 9.08681 8.6969 9.01085V7.14775C8.6969 7.07178 8.63293 7.00781 8.55697 7.00781ZM6.36218 7.47159H8.22915V8.68701H6.36218V7.47159Z" fill="#ffffff"/>
<path d="M8.55697 4.36523H6.03836C5.9624 4.36523 5.89844 4.4292 5.89844 4.50517V6.40026C5.89844 6.47622 5.9624 6.54019 6.03836 6.54019H8.55697C8.63293 6.54019 8.6969 6.47622 8.6969 6.40026V4.50517C8.6969 4.4292 8.63293 4.36523 8.55697 4.36523ZM6.36218 4.82901H8.22915V6.07641H6.36218V4.82901Z" fill="#ffffff"/>
<path d="M11.2309 7.00977H9.30398C9.22803 7.00977 9.16406 7.07373 9.16406 7.1497V9.0168C9.16406 9.09276 9.22803 9.15673 9.30398 9.15673H10.7112C10.7752 9.15673 10.8271 9.11675 10.8471 9.05278L11.3668 7.18968C11.3788 7.1497 11.3668 7.10172 11.3429 7.06974C11.3149 7.03375 11.2749 7.01376 11.2309 7.01376M9.6318 8.69296V7.47754H10.8032L10.4673 8.69296H9.6318Z" fill="#ffffff"/>
<path d="M12.0865 4.42121C12.0626 4.38523 12.0186 4.36523 11.9746 4.36523H9.30008C9.22412 4.36523 9.16016 4.4292 9.16016 4.50517V6.43224C9.16016 6.5082 9.22412 6.57217 9.30008 6.57217H11.4229C11.4829 6.57217 11.5388 6.53219 11.5548 6.47222L12.1065 4.54515C12.1185 4.50117 12.1065 4.45719 12.0825 4.42121M9.6239 6.1084V4.82901H11.5428L11.179 6.1084H9.6279H9.6239Z" fill="#ffffff"/>
</svg>
